{
.appVersion = "1277";
copyright = "Copyright 2010 Google Inc. All Rights Reserved.";
customParameters = (
{
name = glyphOrder;
value = (
.notdef,
.null,
nonmarkingreturn,
space,
exclam,
quotedbl,
numbersign,
dollar,
percent,
ampersand,
quotesingle,
parenleft,
parenright,
asterisk,
plus,
comma,
hyphen,
period,
slash,
zero,
one,
two,
three,
four,
five,
six,
seven,
eight,
nine,
colon,
semicolon,
less,
equal,
greater,
question,
at,
A,
B,
C,
D,
E,
F,
G,
H,
I,
J,
K,
L,
M,
N,
O,
P,
Q,
R,
S,
T,
U,
V,
W,
X,
Y,
Z,
bracketleft,
backslash,
bracketright,
asciicircum,
underscore,
grave,
a,
b,
c,
d,
e,
f,
g,
h,
i,
j,
k,
l,
m,
n,
o,
p,
q,
r,
s,
t,
u,
v,
w,
x,
y,
z,
braceleft,
bar,
braceright,
asciitilde,
Adieresis,
Aring,
Ccedilla,
Eacute,
Ntilde,
Odieresis,
Udieresis,
aacute,
agrave,
acircumflex,
adieresis,
atilde,
aring,
ccedilla,
eacute,
egrave,
ecircumflex,
edieresis,
iacute,
igrave,
icircumflex,
idieresis,
ntilde,
oacute,
ograve,
ocircumflex,
odieresis,
otilde,
uacute,
ugrave,
ucircumflex,
udieresis,
dagger,
degree,
cent,
sterling,
section,
bullet,
paragraph,
germandbls,
registered,
copyright,
trademark,
acute,
dieresis,
notequal,
AE,
Oslash,
infinity,
plusminus,
lessequal,
greaterequal,
yen,
mu1,
partialdiff,
summation,
product,
integral,
ordfeminine,
ordmasculine,
Ohm,
ae,
oslash,
questiondown,
exclamdown,
logicalnot,
radical,
florin,
approxequal,
uni2206,
guillemotleft,
guillemotright,
ellipsis,
Agrave,
Atilde,
Otilde,
OE,
oe,
endash,
emdash,
quotedblleft,
quotedblright,
quoteleft,
quoteright,
divide,
lozenge,
ydieresis,
Ydieresis,
fraction,
Euro,
guilsinglleft,
guilsinglright,
fi,
fl,
daggerdbl,
periodcentered,
quotesinglbase,
quotedblbase,
perthousand,
Acircumflex,
Ecircumflex,
Aacute,
Edieresis,
Egrave,
Iacute,
Icircumflex,
Idieresis,
Igrave,
Oacute,
Ocircumflex,
Ograve,
Uacute,
Ucircumflex,
Ugrave,
dotlessi,
circumflex,
tilde,
uni02C9,
breve,
dotaccent,
ring,
cedilla,
hungarumlaut,
ogonek,
caron,
Lslash,
lslash,
Scaron,
scaron,
Zcaron,
zcaron,
brokenbar,
Eth,
eth,

glyphs = (
{
glyphname = .notdef;
lastChange = "2019-12-17 17:05:58 +0000";
layers = (
{
layerId = "1812DDDA-A435-4DB7-9993-49CCF378232E";
paths = (
{
closed = 1;
nodes = (
"897 0 LINE",
"897 752 LINE",
"127 752 LINE",
"127 0 LINE"
);
},
{
closed = 1;
nodes = (
"768 129 LINE",
"256 129 LINE",
"256 623 LINE",
"768 623 LINE"
);
}
);
userData = {
assembly = "NPUSHB[ ]\011/* 12 values pushed */
6 0 7 3 0 3 8 9 5 1 6 0 
SVTCA[0]\011/* SetFreedomAndProjectionVectorToAxis */
MDAP[1]\011/* MoveDirectAbsPt */
MDRP[01101]\011/* MoveDirectRelPt */
MDAP[1]\011/* MoveDirectAbsPt */
MDRP[01101]\011/* MoveDirectRelPt */
SRP1[ ]\011/* SetRefPoint1 */
SRP2[ ]\011/* SetRefPoint2 */
SVTCA[1]\011/* SetFreedomAndProjectionVectorToAxis */
IP[ ]\011/* InterpolatePts */
IP[ ]\011/* InterpolatePts */
SRP1[ ]\011/* SetRefPoint1 */
SHP[1]\011/* ShiftPointByLastPoint */
SRP1[ ]\011/* SetRefPoint1 */
SHP[1]\011/* ShiftPointByLastPoint */
IUP[1]\011/* InterpolateUntPts */
IUP[0]\011/* InterpolateUntPts */";
};
width = 1229;
}
);
note = .notdef;
},
{
glyphname = exclam;
lastChange = "2019-12-17 17:05:58 +0000";
layers = (
{
layerId = "1812DDDA-A435-4DB7-9993-49CCF378232E";
paths = (
{
closed = 1;
nodes = (
"762 1349 LINE",
"468 1349 LINE",
"500 426 LINE",
"730 426 LINE"
);
},
{
closed = 1;
nodes = (
"756 0 LINE",
"756 270 LINE",
"468 270 LINE",
"468 0 LINE"
);
}
);
userData = {
assembly = "NPUSHB[ ]\011/* 25 values pushed */
3 7 7 2 4 4 8 9 15 1 1 11 3 1 1 2 4 4 5 158 91 4 18 2 3 
SVTCA[0]\011/* SetFreedomAndProjectionVectorToAxis */
MIAP[1]\011/* MoveIndirectAbsPt */
MIAP[1]\011/* MoveIndirectAbsPt */
CALL[ ]\011/* CallFunction */
SRP1[ ]\011/* SetRefPoint1 */
SRP2[ ]\011/* SetRefPoint2 */
SVTCA[0]\011/* SetFreedomAndProjectionVectorToAxis */
IP[ ]\011/* InterpolatePts */
RTG[ ]\011/* RoundToGrid */
MDAP[1]\011/* MoveDirectAbsPt */
SDS[ ]\011/* SetDeltaShiftInGState */
SDB[ ]\011/* SetDeltaBaseInGState */
DELTAP1[ ]\011/* DeltaExceptionP1 */
SRP1[ ]\011/* SetRefPoint1 */
SRP2[ ]\011/* SetRefPoint2 */
SVTCA[1]\011/* SetFreedomAndProjectionVectorToAxis */
IP[ ]\011/* InterpolatePts */
SRP1[ ]\011/* SetRefPoint1 */
SHP[1]\011/* ShiftPointByLastPoint */
SHP[1]\011/* ShiftPointByLastPoint */
SRP1[ ]\011/* SetRefPoint1 */
SHP[1]\011/* ShiftPointByLastPoint */
IUP[1]\011/* InterpolateUntPts */
IUP[0]\011/* InterpolateUntPts */";
};
width = 1229;
}
);
note = exclam;
unicode = 0021;
},
{
glyphname = quotedbl;
lastChange = "2019-12-17 17:05:58 +0000";
layers = (
{
layerId = "1812DDDA-A435-4DB7-9993-49CCF378232E";
paths = (
{
closed = 1;
nodes = (
"981 1485 LINE",
"706 1485 LINE",
"743 844 LINE",
"942 844 LINE"
);
},
{
closed = 1;
nodes = (
"523 1485 LINE",
"250 1485 LINE",
"287 844 LINE",
"486 844 LINE"
);
}
);
userData = {
assembly = "NPUSHB[ ]\011/* 17 values pushed */
3 2 2 7 6 6 8 9 4 0 2 0 157 91 6 2 0 
SVTCA[0]\011/* SetFreedomAndProjectionVectorToAxis */
MIAP[1]\011/* MoveIndirectAbsPt */
SHP[1]\011/* ShiftPointByLastPoint */
CALL[ ]\011/* CallFunction */
SRP1[ ]\011/* SetRefPoint1 */
SVTCA[0]\011/* SetFreedomAndProjectionVectorToAxis */
SHP[1]\011/* ShiftPointByLastPoint */
SRP1[ ]\011/* SetRefPoint1 */
SRP2[ ]\011/* SetRefPoint2 */
SVTCA[1]\011/* SetFreedomAndProjectionVectorToAxis */
IP[ ]\011/* InterpolatePts */
SRP1[ ]\011/* SetRefPoint1 */
SHP[1]\011/* ShiftPointByLastPoint */
SHP[1]\011/* ShiftPointByLastPoint */
SRP1[ ]\011/* SetRefPoint1 */
SHP[1]\011/* ShiftPointByLastPoint */
IUP[1]\011/* InterpolateUntPts */
IUP[0]\011/* InterpolateUntPts */";
};
width = 1229;
}
);
note = quotedbl;
unicode = 0022;
},
{
glyphname = numbersign;
lastChange = "2019-12-17 17:05:58 +0000";
layers = (
{
layerId = "1812DDDA-A435-4DB7-9993-49CCF378232E";
paths = (
{
closed = 1;
nodes = (
"1168 835 LINE",
"1168 983 LINE",
"983 983 LINE",
"1061 1349 LINE",
"908 1349 LINE",
"829 983 LINE",
"521 983 LINE",
"599 1349 LINE",
"446 1349 LINE",
"367 983 LINE",
"108 983 LINE",
"108 835 LINE",
"335 835 LINE",
"265 511 LINE",
"59 511 LINE",
"59 362 LINE",
"233 362 LINE",
"155 0 LINE",
"308 0 LINE",
"386 362 LINE",
"695 362 LINE",
"616 0 LINE",
"771 0 LINE",
"849 362 LINE",
"1119 362 LINE",
"1119 511 LINE",
"882 511 LINE",
"951 835 LINE"
);
},
{
closed = 1;
nodes = (
"797 835 LINE",
"727 511 LINE",
"418 511 LINE",
"488 835 LINE"
);
}
);
userData = {
assembly = "NPUSHB[ ]\011/* 55 values pushed */
8 29 28 21 4 20 9 18 15 14 11 4 10 19 22 31 30 7 4 6 23 4 1 0 25 4 24 5 19 20 5 6 20 6 10 33 17 12 12 9 10 3 26 23 3 24 10 24 32 33 8 4 12 13 12 
PUSHW[ ]\011/* 1 value pushed */
287 
NPUSHB[ ]\011/* 9 values pushed */
89 29 1 13 28 0 16 17 16 
PUSHW[ ]\011/* 1 value pushed */
287 
NPUSHB[ ]\011/* 54 values pushed */
89 25 21 17 127 13 143 13 159 13 191 13 207 13 223 13 6 79 13 95 13 2 13 64 21 29 72 191 17 207 17 223 17 3 17 64 31 34 72 17 64 19 29 72 13 17 13 17 5 23 19 3 10 5 
SVTCA[0]\011/* SetFreedomAndProjectionVectorToAxis */
MDAP[1]\011/* MoveDirectAbsPt */
SHP[1]\011/* ShiftPointByLastPoint */
MIAP[1]\011/* MoveIndirectAbsPt */
SHP[1]\011/* ShiftPointByLastPoint */
SRP2[ ]\011/* SetRefPoint2 */
IP[ ]\011/* InterpolatePts */
IP[ ]\011/* InterpolatePts */
MDAP[1]\011/* MoveDirectAbsPt */
MDAP[1]\011/* MoveDirectAbsPt */
CALL[ ]\011/* CallFunction */
CALL[ ]\011/* CallFunction */
DELTAP2[ ]\011/* DeltaExceptionP2 */
CALL[ ]\011/* CallFunction */
DELTAP1[ ]\011/* DeltaExceptionP1 */
DELTAP2[ ]\011/* DeltaExceptionP2 */
SRP1[ ]\011/* SetRefPoint1 */
SHP[1]\011/* ShiftPointByLastPoint */
SHP[1]\011/* ShiftPointByLastPoint */
CALL[ ]\011/* CallFunction */
SRP1[ ]\011/* SetRefPoint1 */
SVTCA[0]\011/* SetFreedomAndProjectionVectorToAxis */
SHP[1]\011/* ShiftPointByLastPoint */
SHP[1]\011/* ShiftPointByLastPoint */
SRP1[ ]\011/* SetRefPoint1 */
SHP[1]\011/* ShiftPointByLastPoint */
SHP[1]\011/* ShiftPointByLastPoint */
CALL[ ]\011/* CallFunction */
SRP1[ ]\011/* SetRefPoint1 */
SVTCA[0]\011/* SetFreedomAndProjectionVectorToAxis */
SHP[1]\011/* ShiftPointByLastPoint */
SHP[1]\011/* ShiftPointByLastPoint */
SRP1[ ]\011/* SetRefPoint1 */
SRP2[ ]\011/* SetRefPoint2 */
SVTCA[1]\011/* SetFreedomAndProjectionVectorToAxis */
IP[ ]\011/* InterpolatePts */
IP[ ]\011/* InterpolatePts */
SRP1[ ]\011/* SetRefPoint1 */
SLOOP[ ]\011/* SetLoopVariable */
SHP[1]\011/* ShiftPointByLastPoint */
SRP1[ ]\011/* SetRefPoint1 */
SHP[1]\011/* ShiftPointByLastPoint */
SHP[1]\011/* ShiftPointByLastPoint */
SRP1[ ]\011/* SetRefPoint1 */
SHP[1]\011/* ShiftPointByLastPoint */
SRP1[ ]\011/* SetRefPoint1 */
SRP2[ ]\011/* SetRefPoint2 */
IP[ ]\011/* InterpolatePts */
IP[ ]\011/* InterpolatePts */
SRP1[ ]\011/* SetRefPoint1 */
SHP[1]\011/* ShiftPointByLastPoint */
SRP1[ ]\011/* SetRefPoint1 */
SHP[1]\011/* ShiftPointByLastPoint */
SRP1[ ]\011/* SetRefPoint1 */
SRP2[ ]\011/* SetRefPoint2 */
SLOOP[ ]\011/* SetLoopVariable */
IP[ ]\011/* InterpolatePts */
SRP1[ ]\011/* SetRefPoint1 */
SRP2[ ]\011/* SetRefPoint2 */
SLOOP[ ]\011/* SetLoopVariable */
IP[ ]\011/* InterpolatePts */
SRP1[ ]\011/* SetRefPoint1 */
SRP2[ ]\011/* SetRefPoint2 */
SLOOP[ ]\011/* SetLoopVariable */
IP[ ]\011/* InterpolatePts */
SRP1[ ]\011/* SetRefPoint1 */
SRP2[ ]\011/* SetRefPoint2 */
SLOOP[ ]\011/* SetLoopVariable */
IP[ ]\011/* InterpolatePts */
IUP[1]\011/* InterpolateUntPts */
IUP[0]\011/* InterpolateUntPts */";
};
width = 1229;
}
);
note = numbersign;
unicode = 0023;
},
{
glyphname = dollar;
lastChange = "2019-12-17 17:05:58 +0000";
layers = (
{
layerId = "1812DDDA-A435-4DB7-9993-49CCF378232E";
paths = (
{
closed = 1;
nodes = (
"1152 534 OFFCURVE",
"1006 721 OFFCURVE",
"711 817 OFFCURVE",
"682 817 QCURVE",
"671 819 LINE",
"671 1171 LINE",
"828 1150 OFFCURVE",
"858 978 QCURVE",
"1122 1017 LINE",
"1076 1201 OFFCURVE",
"866 1360 OFFCURVE",
"671 1367 QCURVE",
"671 1501 LINE",
"562 1501 LINE",
"562 1367 LINE",
"343 1358 OFFCURVE",
"117 1177 OFFCURVE",
"117 1011 QCURVE SMOOTH",
"117 899 OFFCURVE",
"206 744 OFFCURVE",
"370 643 OFFCURVE",
"531 606 QCURVE",
"535 606 OFFCURVE",
"559 601 OFFCURVE",
"562 599 QCURVE",
"562 208 LINE",
"457 218 OFFCURVE",
"344 323 OFFCURVE",
"325 436 QCURVE",
"69 389 LINE",
"107 196 OFFCURVE",
"347 9 OFFCURVE",
"562 1 QCURVE",
"562 -171 LINE",
"671 -171 LINE",
"671 4 LINE",
"909 13 OFFCURVE",
"1152 212 OFFCURVE",
"1152 393 QCURVE SMOOTH"
);
},
{
closed = 1;
nodes = (
"562 843 LINE",
"469 873 OFFCURVE",
"409 913 OFFCURVE",
"379 970 OFFCURVE",
"379 1015 QCURVE SMOOTH",
"379 1161 OFFCURVE",
"562 1175 QCURVE"
);
},
{
closed = 1;
nodes = (
"892 223 OFFCURVE",
"671 208 QCURVE",
"671 575 LINE",
"787 542 OFFCURVE",
"856 502 OFFCURVE",
"892 439 OFFCURVE",
"892 389 QCURVE SMOOTH"
);
}
);
userData = {
assembly = "NPUSHB[ ]\011/* 47 values pushed */
27 34 51 3 4 13 24 45 4 4 5 5 21 0 10 9 9 41 21 31 30 30 46 0 21 0 53 54 15 31 31 31 47 31 95 31 4 13 31 31 6 0 10 1 29 3 10 
PUSHW[ ]\011/* 1 value pushed */
-64 
NPUSHB[ ]\011/* 43 values pushed */
12 18 72 10 10 24 6 50 14 45 14 117 89 34 45 45 41 46 24 6 33 39 24 39 118 89 27 24 25 25 24 7 51 13 6 13 115 89 5 5 3 6 24 
SVTCA[0]\011/* SetFreedomAndProjectionVectorToAxis */
MIAP[1]\011/* MoveIndirectAbsPt */
SHP[1]\011/* ShiftPointByLastPoint */
SHP[1]\011/* ShiftPointByLastPoint */
MDAP[1]\011/* MoveDirectAbsPt */
CALL[ ]\011/* CallFunction */
SRP1[ ]\011/* SetRefPoint1 */
SVTCA[0]\011/* SetFreedomAndProjectionVectorToAxis */
SHP[1]\011/* ShiftPointByLastPoint */
RTG[ ]\011/* RoundToGrid */
MIAP[1]\011/* MoveIndirectAbsPt */
SHP[1]\011/* ShiftPointByLastPoint */
MDAP[1]\011/* MoveDirectAbsPt */
SRP1[ ]\011/* SetRefPoint1 */
SHP[1]\011/* ShiftPointByLastPoint */
CALL[ ]\011/* CallFunction */
SRP1[ ]\011/* SetRefPoint1 */
SVTCA[0]\011/* SetFreedomAndProjectionVectorToAxis */
SHP[1]\011/* ShiftPointByLastPoint */
SRP1[ ]\011/* SetRefPoint1 */
SRP2[ ]\011/* SetRefPoint2 */
IP[ ]\011/* InterpolatePts */
IP[ ]\011/* InterpolatePts */
IP[ ]\011/* InterpolatePts */
SRP1[ ]\011/* SetRefPoint1 */
SHP[1]\011/* ShiftPointByLastPoint */
CALL[ ]\011/* CallFunction */
SRP1[ ]\011/* SetRefPoint1 */
SVTCA[0]\011/* SetFreedomAndProjectionVectorToAxis */
SHP[1]\011/* ShiftPointByLastPoint */
SRP1[ ]\011/* SetRefPoint1 */
SRP2[ ]\011/* SetRefPoint2 */
IP[ ]\011/* InterpolatePts */
RTG[ ]\011/* RoundToGrid */
MDAP[1]\011/* MoveDirectAbsPt */
CALL[ ]\011/* CallFunction */
SDS[ ]\011/* SetDeltaShiftInGState */
SDB[ ]\011/* SetDeltaBaseInGState */
DELTAP1[ ]\011/* DeltaExceptionP1 */
SRP1[ ]\011/* SetRefPoint1 */
IP[ ]\011/* InterpolatePts */
MDAP[1]\011/* MoveDirectAbsPt */
SDB[ ]\011/* SetDeltaBaseInGState */
DELTAP1[ ]\011/* DeltaExceptionP1 */
SRP1[ ]\011/* SetRefPoint1 */
SRP2[ ]\011/* SetRefPoint2 */
SVTCA[1]\011/* SetFreedomAndProjectionVectorToAxis */
IP[ ]\011/* InterpolatePts */
IP[ ]\011/* InterpolatePts */
SRP1[ ]\011/* SetRefPoint1 */
SHP[1]\011/* ShiftPointByLastPoint */
SHP[1]\011/* ShiftPointByLastPoint */
SRP1[ ]\011/* SetRefPoint1 */
SHP[1]\011/* ShiftPointByLastPoint */
SRP1[ ]\011/* SetRefPoint1 */
SHP[1]\011/* ShiftPointByLastPoint */
SHP[1]\011/* ShiftPointByLastPoint */
SRP1[ ]\011/* SetRefPoint1 */
SHP[1]\011/* ShiftPointByLastPoint */
SRP1[ ]\011/* SetRefPoint1 */
SRP2[ ]\011/* SetRefPoint2 */
IP[ ]\011/* InterpolatePts */
SRP1[ ]\011/* SetRefPoint1 */
SLOOP[ ]\011/* SetLoopVariable */
SHP[1]\011/* ShiftPointByLastPoint */
SRP1[ ]\011/* SetRefPoint1 */
SLOOP[ ]\011/* SetLoopVariable */
SHP[1]\011/* ShiftPointByLastPoint */
IUP[1]\011/* InterpolateUntPts */
IUP[0]\011/* InterpolateUntPts */";
};
width = 1229;
}
);
note = dollar;
unicode = 0024;
},
{
glyphname = percent;
lastChange = "2019-12-17 17:05:58 +0000";
layers = (
{
layerId = "1812DDDA-A435-4DB7-9993-49CCF378232E";
paths = (
{
closed = 1;
nodes = (
"1170 1353 LINE",
"993 1353 LINE",
"61 0 LINE",
"236 0 LINE"
);
},
{
closed = 1;
nodes = (
"140 1361 OFFCURVE",
"0 1192 OFFCURVE",
"0 1025 QCURVE SMOOTH",
"0 856 OFFCURVE",
"146 684 OFFCURVE",
"287 684 QCURVE SMOOTH",
"428 684 OFFCURVE",
"574 858 OFFCURVE",
"574 1025 QCURVE SMOOTH",
"574 1361 OFFCURVE",
"291 1361 QCURVE SMOOTH"
);
},
{
closed = 1;
nodes = (
"398 824 OFFCURVE",
"289 824 QCURVE SMOOTH",
"234 824 OFFCURVE",
"176 917 OFFCURVE",
"176 1025 QCURVE SMOOTH",
"176 1135 OFFCURVE",
"233 1226 OFFCURVE",
"289 1226 QCURVE SMOOTH",
"345 1226 OFFCURVE",
"398 1132 OFFCURVE",
"398 1025 QCURVE SMOOTH"
);
},
{
closed = 1;
nodes = (
"796 665 OFFCURVE",
"656 496 OFFCURVE",
"656 329 QCURVE SMOOTH",
"656 160 OFFCURVE",
"802 -12 OFFCURVE",
"943 -12 QCURVE SMOOTH",
"1084 -12 OFFCURVE",
"1230 162 OFFCURVE",
"1230 329 QCURVE SMOOTH",
"1230 665 OFFCURVE",
"947 665 QCURVE SMOOTH"
);
},
{
closed = 1;
nodes = (
"1054 128 OFFCURVE",
"945 128 QCURVE SMOOTH",
"890 128 OFFCURVE",
"832 221 OFFCURVE",
"832 329 QCURVE SMOOTH",
"832 439 OFFCURVE",
"889 530 OFFCURVE",
"945 530 QCURVE SMOOTH",
"1001 530 OFFCURVE",
"1054 436 OFFCURVE",
"1054 329 QCURVE SMOOTH"
);
}
);
userData = {
assembly = "NPUSHB[ ]\011/* 54 values pushed */
0 1 2 3 1 3 12 28 43 34 34 37 28 15 6 6 21 12 28 49 12 48 26 40 182 89 31 26 183 91 31 46 182 89 31 25 9 24 182 89 4 9 183 91 4 18 182 89 4 7 2 6 0 24 
SVTCA[0]\011/* SetFreedomAndProjectionVectorToAxis */
MIAP[1]\011/* MoveIndirectAbsPt */
MIAP[1]\011/* MoveIndirectAbsPt */
MIAP[1]\011/* MoveIndirectAbsPt */
CALL[ ]\011/* CallFunction */
CALL[ ]\011/* CallFunction */
CALL[ ]\011/* CallFunction */
SVTCA[0]\011/* SetFreedomAndProjectionVectorToAxis */
RTG[ ]\011/* RoundToGrid */
MIAP[1]\011/* MoveIndirectAbsPt */
CALL[ ]\011/* CallFunction */
CALL[ ]\011/* CallFunction */
CALL[ ]\011/* CallFunction */
SRP1[ ]\011/* SetRefPoint1 */
SVTCA[1]\011/* SetFreedomAndProjectionVectorToAxis */
SHP[1]\011/* ShiftPointByLastPoint */
SRP1[ ]\011/* SetRefPoint1 */
SHP[1]\011/* ShiftPointByLastPoint */
SRP1[ ]\011/* SetRefPoint1 */
SHP[1]\011/* ShiftPointByLastPoint */
SHP[1]\011/* ShiftPointByLastPoint */
SRP1[ ]\011/* SetRefPoint1 */
SHP[1]\011/* ShiftPointByLastPoint */
SRP1[ ]\011/* SetRefPoint1 */
SHP[1]\011/* ShiftPointByLastPoint */
SHP[1]\011/* ShiftPointByLastPoint */
SRP1[ ]\011/* SetRefPoint1 */
SHP[1]\011/* ShiftPointByLastPoint */
SRP1[ ]\011/* SetRefPoint1 */
SRP2[ ]\011/* SetRefPoint2 */
IP[ ]\011/* InterpolatePts */
IP[ ]\011/* InterpolatePts */
SRP1[ ]\011/* SetRefPoint1 */
SHP[1]\011/* ShiftPointByLastPoint */
SRP1[ ]\011/* SetRefPoint1 */
SHP[1]\011/* ShiftPointByLastPoint */
IUP[1]\011/* InterpolateUntPts */
IUP[0]\011/* InterpolateUntPts */";
};
width = 1229;
}
);
note = percent;
unicode = 0025;
},
{
glyphname = ampersand;
lastChange = "2019-12-17 17:05:58 +0000";
layers = (
{
layerId = "1812DDDA-A435-4DB7-9993-49CCF378232E";
paths = (
{
closed = 1;
nodes = (
"24 182 OFFCURVE",
"255 -19 OFFCURVE",
"467 -19 QCURVE SMOOTH",
"662 -19 OFFCURVE",
"826 104 QCURVE",
"966 -11 OFFCURVE",
"1126 -11 QCURVE SMOOTH",
"1183 -11 OFFCURVE",
"1221 10 QCURVE",
"1221 206 LINE",
"1185 189 OFFCURVE",
"1128 189 QCURVE SMOOTH",
"1044 189 OFFCURVE",
"959 262 QCURVE",
"1072 460 OFFCURVE",
"1114 697 QCURVE",
"910 724 LINE",
"877 549 OFFCURVE",
"802 400 QCURVE",
"683 536 OFFCURVE",
"588 702 QCURVE",
"793 797 OFFCURVE",
"953 971 OFFCURVE",
"953 1073 QCURVE SMOOTH",
"953 1203 OFFCURVE",
"769 1357 OFFCURVE",
"616 1357 QCURVE SMOOTH",
"442 1357 OFFCURVE",
"255 1194 OFFCURVE",
"255 1046 QCURVE SMOOTH",
"255 921 OFFCURVE",
"326 779 QCURVE",
"185 712 OFFCURVE",
"24 496 OFFCURVE",
"24 369 QCURVE SMOOTH"
);
},
{
closed = 1;
nodes = (
"581 163 OFFCURVE",
"477 163 QCURVE SMOOTH",
"377 163 OFFCURVE",
"267 275 OFFCURVE",
"267 373 QCURVE SMOOTH",
"267 443 OFFCURVE",
"341 559 OFFCURVE",
"409 599 QCURVE",
"512 415 OFFCURVE",
"671 239 QCURVE"
);
},
{
closed = 1;
nodes = (
"739 1030 OFFCURVE",
"695 964 OFFCURVE",
"615 906 OFFCURVE",
"515 859 QCURVE",
"463 956 OFFCURVE",
"463 1044 QCURVE SMOOTH",
"463 1112 OFFCURVE",
"540 1195 OFFCURVE",
"614 1195 QCURVE SMOOTH",
"677 1195 OFFCURVE",
"739 1126 OFFCURVE",
"739 1071 QCURVE SMOOTH"
);
}
);
userData = {
assembly = "NPUSHB[ ]\011/* 60 values pushed */
3 37 35 3 30 5 21 30 16 35 53 14 6 51 45 11 51 5 5 11 19 40 0 18 19 0 19 57 58 30 35 21 16 4 32 37 14 43 3 53 8 18 18 32 8 23 43 32 43 81 89 28 32 22 8 48 81 89 8 4 
SVTCA[0]\011/* SetFreedomAndProjectionVectorToAxis */
MIAP[1]\011/* MoveIndirectAbsPt */
CALL[ ]\011/* CallFunction */
SVTCA[0]\011/* SetFreedomAndProjectionVectorToAxis */
RTG[ ]\011/* RoundToGrid */
MIAP[1]\011/* MoveIndirectAbsPt */
SHP[1]\011/* ShiftPointByLastPoint */
CALL[ ]\011/* CallFunction */
SRP1[ ]\011/* SetRefPoint1 */
SVTCA[0]\011/* SetFreedomAndProjectionVectorToAxis */
SHP[1]\011/* ShiftPointByLastPoint */
SRP1[ ]\011/* SetRefPoint1 */
SRP2[ ]\011/* SetRefPoint2 */
IP[ ]\011/* InterpolatePts */
RTG[ ]\011/* RoundToGrid */
MDAP[1]\011/* MoveDirectAbsPt */
SRP2[ ]\011/* SetRefPoint2 */
IP[ ]\011/* InterpolatePts */
IP[ ]\011/* InterpolatePts */
SRP2[ ]\011/* SetRefPoint2 */
IP[ ]\011/* InterpolatePts */
IP[ ]\011/* InterpolatePts */
SRP2[ ]\011/* SetRefPoint2 */
SLOOP[ ]\011/* SetLoopVariable */
IP[ ]\011/* InterpolatePts */
SRP1[ ]\011/* SetRefPoint1 */
SRP2[ ]\011/* SetRefPoint2 */
SVTCA[1]\011/* SetFreedomAndProjectionVectorToAxis */
IP[ ]\011/* InterpolatePts */
IP[ ]\011/* InterpolatePts */
SRP1[ ]\011/* SetRefPoint1 */
SHP[1]\011/* ShiftPointByLastPoint */
SRP1[ ]\011/* SetRefPoint1 */
SHP[1]\011/* ShiftPointByLastPoint */
SRP2[ ]\011/* SetRefPoint2 */
IP[ ]\011/* InterpolatePts */
IP[ ]\011/* InterpolatePts */
SRP1[ ]\011/* SetRefPoint1 */
SHP[1]\011/* ShiftPointByLastPoint */
SRP1[ ]\011/* SetRefPoint1 */
SHP[1]\011/* ShiftPointByLastPoint */
SRP1[ ]\011/* SetRefPoint1 */
SLOOP[ ]\011/* SetLoopVariable */
IP[ ]\011/* InterpolatePts */
SRP1[ ]\011/* SetRefPoint1 */
SRP2[ ]\011/* SetRefPoint2 */
SLOOP[ ]\011/* SetLoopVariable */
IP[ ]\011/* InterpolatePts */
IUP[1]\011/* InterpolateUntPts */
IUP[0]\011/* InterpolateUntPts */";
};
width = 1229;
}
);
note = ampersand;
unicode = 0026;
},
{
glyphname = quotesingle;
lastChange = "2019-12-17 17:05:58 +0000";
layers = (
{
layerId = "1812DDDA-A435-4DB7-9993-49CCF378232E";
paths = (
{
closed = 1;
nodes = (
"751 1485 LINE",
"478 1485 LINE",
"515 844 LINE",
"714 844 LINE"
);
}
);
userData = {
assembly = "NPUSHB[ ]\011/* 11 values pushed */
3 2 2 4 5 2 0 157 91 2 0 
SVTCA[0]\011/* SetFreedomAndProjectionVectorToAxis */
MIAP[1]\011/* MoveIndirectAbsPt */
CALL[ ]\011/* CallFunction */
SRP1[ ]\011/* SetRefPoint1 */
SRP2[ ]\011/* SetRefPoint2 */
SVTCA[1]\011/* SetFreedomAndProjectionVectorToAxis */
IP[ ]\011/* InterpolatePts */
SRP1[ ]\011/* SetRefPoint1 */
SHP[1]\011/* ShiftPointByLastPoint */
IUP[1]\011/* InterpolateUntPts */
IUP[0]\011/* InterpolateUntPts */";
};
width = 1229;
}
);
note = quotesingle;
unicode = 0027;
},
{
glyphname = parenleft;
lastChange = "2019-12-17 17:05:58 +0000";
layers = (
{
layerId = "1812DDDA-A435-4DB7-9993-49CCF378232E";
paths = (
{
closed = 1;
nodes = (
"922 -425 LINE",
"763 -192 OFFCURVE",
"621 257 OFFCURVE",
"621 530 QCURVE SMOOTH",
"621 804 OFFCURVE",
"764 1256 OFFCURVE",
"922 1484 QCURVE",
"641 1484 LINE",
"484 1259 OFFCURVE",
"344 810 OFFCURVE",
"344 531 QCURVE SMOOTH",
"344 251 OFFCURVE",
"484 -199 OFFCURVE",
"641 -425 QCURVE"
);
}
);
userData = {
assembly = "NPUSHB[ ]\011/* 15 values pushed */
0 13 13 6 7 7 10 3 3 14 15 6 0 0 27 
SVTCA[0]\011/* SetFreedomAndProjectionVectorToAxis */
MIAP[1]\011/* MoveIndirectAbsPt */
MIAP[1]\011/* MoveIndirectAbsPt */
SRP1[ ]\011/* SetRefPoint1 */
SRP2[ ]\011/* SetRefPoint2 */
SVTCA[1]\011/* SetFreedomAndProjectionVectorToAxis */
IP[ ]\011/* InterpolatePts */
SRP1[ ]\011/* SetRefPoint1 */
SHP[1]\011/* ShiftPointByLastPoint */
SHP[1]\011/* ShiftPointByLastPoint */
SRP1[ ]\011/* SetRefPoint1 */
SHP[1]\011/* ShiftPointByLastPoint */
SHP[1]\011/* ShiftPointByLastPoint */
SRP1[ ]\011/* SetRefPoint1 */
SHP[1]\011/* ShiftPointByLastPoint */
IUP[1]\011/* InterpolateUntPts */
IUP[0]\011/* InterpolateUntPts */";
};
width = 1229;
}
);
note = parenleft;
unicode = 0028;
},
{
glyphname = parenright;
lastChange = "2019-12-17 17:05:58 +0000";
layers = (
{
layerId = "1812DDDA-A435-4DB7-9993-49CCF378232E";
paths = (
{
closed = 1;
nodes = (
"588 -425 LINE",
"746 -197 OFFCURVE",
"885 253 OFFCURVE",
"885 531 QCURVE SMOOTH",
"885 807 OFFCURVE",
"746 1257 OFFCURVE",
"588 1484 QCURVE",
"307 1484 LINE",
"464 1258 OFFCURVE",
"608 805 OFFCURVE",
"608 530 QCURVE SMOOTH",
"608 256 OFFCURVE",
"467 -191 OFFCURVE",
"307 -425 QCURVE"
);
}
);
userData = {
assembly = "NPUSHB[ ]\011/* 15 values pushed */
7 6 6 13 0 0 3 10 10 14 15 6 0 0 27 
SVTCA[0]\011/* SetFreedomAndProjectionVectorToAxis */
MIAP[1]\011/* MoveIndirectAbsPt */
MIAP[1]\011/* MoveIndirectAbsPt */
SRP1[ ]\011/* SetRefPoint1 */
SRP2[ ]\011/* SetRefPoint2 */
SVTCA[1]\011/* SetFreedomAndProjectionVectorToAxis */
IP[ ]\011/* InterpolatePts */
SRP1[ ]\011/* SetRefPoint1 */
SHP[1]\011/* ShiftPointByLastPoint */
SHP[1]\011/* ShiftPointByLastPoint */
SRP1[ ]\011/* SetRefPoint1 */
SHP[1]\011/* ShiftPointByLastPoint */
SHP[1]\011/* ShiftPointByLastPoint */
SRP1[ ]\011/* SetRefPoint1 */
SHP[1]\011/* ShiftPointByLastPoint */
IUP[1]\011/* InterpolateUntPts */
IUP[0]\011/* InterpolateUntPts */";
};
width = 1229;
}
);
note = parenright;
unicode = 0029;
},
{
glyphname = asterisk;
lastChange = "2019-12-17 17:05:58 +0000";
layers = (
{
layerId = "1812DDDA-A435-4DB7-9993-49CCF378232E";
paths = (
{
closed = 1;
nodes = (
"724 1483 LINE",
"509 1483 LINE",
"527 1209 LINE",
"288 1313 LINE",
"220 1116 LINE",
"470 1055 LINE",
"280 844 LINE",
"466 721 LINE",
"615 973 LINE",
"761 721 LINE",
"945 842 LINE",
"759 1055 LINE",
"1009 1116 LINE",
"941 1313 LINE",
"706 1209 LINE"
);
}
);
userData = {
assembly = "NPUSHB[ ]\011/* 57 values pushed */
6 13 2 14 10 14 13 13 15 16 2 10 10 1 11 0 12 117 12 133 12 2 3 9 4 8 127 11 143 11 2 11 8 6 9 12 11 5 13 5 0 7 32 7 48 7 112 7 128 7 144 7 6 7 7 13 0 
SVTCA[0]\011/* SetFreedomAndProjectionVectorToAxis */
MIAP[1]\011/* MoveIndirectAbsPt */
SHP[1]\011/* ShiftPointByLastPoint */
MDAP[1]\011/* MoveDirectAbsPt */
DELTAP1[ ]\011/* DeltaExceptionP1 */
SHP[1]\011/* ShiftPointByLastPoint */
SRP2[ ]\011/* SetRefPoint2 */
SLOOP[ ]\011/* SetLoopVariable */
IP[ ]\011/* InterpolatePts */
MDAP[1]\011/* MoveDirectAbsPt */
DELTAP1[ ]\011/* DeltaExceptionP1 */
SRP1[ ]\011/* SetRefPoint1 */
SHP[1]\011/* ShiftPointByLastPoint */
SRP1[ ]\011/* SetRefPoint1 */
SHP[1]\011/* ShiftPointByLastPoint */
DELTAP1[ ]\011/* DeltaExceptionP1 */
SRP1[ ]\011/* SetRefPoint1 */
SHP[1]\011/* ShiftPointByLastPoint */
SRP1[ ]\011/* SetRefPoint1 */
SHP[1]\011/* ShiftPointByLastPoint */
SHP[1]\011/* ShiftPointByLastPoint */
SRP1[ ]\011/* SetRefPoint1 */
SHP[1]\011/* ShiftPointByLastPoint */
SRP1[ ]\011/* SetRefPoint1 */
SRP2[ ]\011/* SetRefPoint2 */
SVTCA[1]\011/* SetFreedomAndProjectionVectorToAxis */
IP[ ]\011/* InterpolatePts */
SRP1[ ]\011/* SetRefPoint1 */
SHP[1]\011/* ShiftPointByLastPoint */
SHP[1]\011/* ShiftPointByLastPoint */
SRP1[ ]\011/* SetRefPoint1 */
SHP[1]\011/* ShiftPointByLastPoint */
SRP2[ ]\011/* SetRefPoint2 */
IP[ ]\011/* InterpolatePts */
IUP[1]\011/* InterpolateUntPts */
IUP[0]\011/* InterpolateUntPts */";
};
width = 1229;
}
);
note = asterisk;
unicode = 002A;
},
{
glyphname = plus;
lastChange = "2019-12-17 17:05:58 +0000";
layers = (
{
layerId = "1812DDDA-A435-4DB7-9993-49CCF378232E";
paths = (
{
closed = 1;
nodes = (
"1128 569 LINE",
"1128 793 LINE",
"726 793 LINE",
"726 1201 LINE",
"500 1201 LINE",
"500 793 LINE",
"101 793 LINE",
"101 569 LINE",
"500 569 LINE",
"500 161 LINE",
"726 161 LINE",
"726 569 LINE"
);
}
);
userData = {
assembly = "NPUSHB[ ]\011/* 30 values pushed */
9 1 1 6 2 2 5 10 5 10 12 13 4 2 175 89 0 4 5 4 173 89 9 5 5 7 175 89 5 179 
SVTCA[0]\011/* SetFreedomAndProjectionVectorToAxis */
MIAP[1]\011/* MoveIndirectAbsPt */
CALL[ ]\011/* CallFunction */
SRP1[ ]\011/* SetRefPoint1 */
SVTCA[0]\011/* SetFreedomAndProjectionVectorToAxis */
SHP[1]\011/* ShiftPointByLastPoint */
CALL[ ]\011/* CallFunction */
SRP1[ ]\011/* SetRefPoint1 */
SVTCA[0]\011/* SetFreedomAndProjectionVectorToAxis */
SHP[1]\011/* ShiftPointByLastPoint */
CALL[ ]\011/* CallFunction */
SRP1[ ]\011/* SetRefPoint1 */
SRP2[ ]\011/* SetRefPoint2 */
SVTCA[1]\011/* SetFreedomAndProjectionVectorToAxis */
IP[ ]\011/* InterpolatePts */
IP[ ]\011/* InterpolatePts */
SRP1[ ]\011/* SetRefPoint1 */
SRP2[ ]\011/* SetRefPoint2 */
IP[ ]\011/* InterpolatePts */
SRP1[ ]\011/* SetRefPoint1 */
SHP[1]\011/* ShiftPointByLastPoint */
SHP[1]\011/* ShiftPointByLastPoint */
SRP1[ ]\011/* SetRefPoint1 */
SHP[1]\011/* ShiftPointByLastPoint */
IUP[1]\011/* InterpolateUntPts */
IUP[0]\011/* InterpolateUntPts */";
};
width = 1229;
}
);
note = plus;
unicode = 002B;
},
{
glyphname = comma;
lastChange = "2019-12-17 17:05:58 +0000";
layers = (
{
layerId = "1812DDDA-A435-4DB7-9993-49CCF378232E";
paths = (
{
closed = 1;
nodes = (
"431 -363 LINE",
"742 299 LINE",
"427 299 LINE",
"258 -363 LINE"
);
}
);
userData = {
assembly = "NPUSHB[ ]\011/* 13 values pushed */
2 0 0 4 5 1 3 156 91 4 1 155 91 
SVTCA[0]\011/* SetFreedomAndProjectionVectorToAxis */
CALL[ ]\011/* CallFunction */
CALL[ ]\011/* CallFunction */
SRP1[ ]\011/* SetRefPoint1 */
SRP2[ ]\011/* SetRefPoint2 */
SVTCA[1]\011/* SetFreedomAndProjectionVectorToAxis */
IP[ ]\011/* InterpolatePts */
SRP1[ ]\011/* SetRefPoint1 */
SHP[1]\011/* ShiftPointByLastPoint */
IUP[1]\011/* InterpolateUntPts */
IUP[0]\011/* InterpolateUntPts */";
};
width = 1229;
}
);
note = comma;
unicode = 002C;
},
{
glyphname = hyphen;
lastChange = "2019-12-17 17:05:58 +0000";
layers = (
{
layerId = "1812DDDA-A435-4DB7-9993-49CCF378232E";
paths = (
{
closed = 1;
nodes = (
"904 409 LINE",
"904 653 LINE",
"324 653 LINE",
"324 409 LINE"
);
}
);
userData = {
assembly = "NPUSHB[ ]\011/* 10 values pushed */
0 3 4 5 1 0 186 89 1 188 
SVTCA[0]\011/* SetFreedomAndProjectionVectorToAxis */
MIAP[1]\011/* MoveIndirectAbsPt */
CALL[ ]\011/* CallFunction */
SRP1[ ]\011/* SetRefPoint1 */
SRP2[ ]\011/* SetRefPoint2 */
SVTCA[1]\011/* SetFreedomAndProjectionVectorToAxis */
IP[ ]\011/* InterpolatePts */
IP[ ]\011/* InterpolatePts */
IUP[1]\011/* InterpolateUntPts */
IUP[0]\011/* InterpolateUntPts */";
};
width = 1229;
}
);
note = hyphen;
unicode = "002D,00AD";
},
{
glyphname = period;
lastChange = "2019-12-17 17:05:58 +0000";
layers = (
{
layerId = "1812DDDA-A435-4DB7-9993-49CCF378232E";
paths = (
{
closed = 1;
nodes = (
"759 0 LINE",
"759 305 LINE",
"470 305 LINE",
"470 0 LINE"
);
}
);
userData = {
assembly = "NPUSHB[ ]\011/* 11 values pushed */
3 0 0 4 5 0 1 155 91 0 18 
SVTCA[0]\011/* SetFreedomAndProjectionVectorToAxis */
MIAP[1]\011/* MoveIndirectAbsPt */
CALL[ ]\011/* CallFunction */
SRP1[ ]\011/* SetRefPoint1 */
SRP2[ ]\011/* SetRefPoint2 */
SVTCA[1]\011/* SetFreedomAndProjectionVectorToAxis */
IP[ ]\011/* InterpolatePts */
SRP1[ ]\011/* SetRefPoint1 */
SHP[1]\011/* ShiftPointByLastPoint */
IUP[1]\011/* InterpolateUntPts */
IUP[0]\011/* InterpolateUntPts */";
};
width = 1229;
}
);
note = period;
unicode = 002E;
},
{
glyphname = slash;
lastChange = "2019-12-17 17:05:58 +0000";
layers = (
{
layerId = "1812DDDA-A435-4DB7-9993-49CCF378232E";
paths = (
{
closed = 1;
nodes = (
"321 -20 LINE",
"1138 1484 LINE",
"910 1484 LINE",
"89 -20 LINE"
);
}
);
userData = {
assembly = "NPUSHB[ ]\011/* 12 values pushed */
3 0 1 2 0 2 4 5 1 0 0 19 
SVTCA[0]\011/* SetFreedomAndProjectionVectorToAxis */
MIAP[1]\011/* MoveIndirectAbsPt */
MIAP[1]\011/* MoveIndirectAbsPt */
SRP1[ ]\011/* SetRefPoint1 */
SRP2[ ]\011/* SetRefPoint2 */
SVTCA[1]\011/* SetFreedomAndProjectionVectorToAxis */
IP[ ]\011/* InterpolatePts */
IP[ ]\011/* InterpolatePts */
SRP1[ ]\011/* SetRefPoint1 */
SHP[1]\011/* ShiftPointByLastPoint */
SRP1[ ]\011/* SetRefPoint1 */
SHP[1]\011/* ShiftPointByLastPoint */
IUP[1]\011/* InterpolateUntPts */
IUP[0]\011/* InterpolateUntPts */";
};
width = 1229;
}
);
note = slash;
unicode = 002F;
},
{
glyphname = zero;
lastChange = "2019-12-17 17:05:58 +0000";
layers = (
{
layerId = "1812DDDA-A435-4DB7-9993-49CCF378232E";
paths = (
{
closed = 1;
nodes = (
"1111 1022 OFFCURVE",
"869 1370 OFFCURVE",
"619 1370 QCURVE SMOOTH",
"360 1370 OFFCURVE",
"117 1027 OFFCURVE",
"117 675 QCURVE SMOOTH",
"117 335 OFFCURVE",
"366 -20 OFFCURVE",
"611 -20 QCURVE SMOOTH",
"855 -20 OFFCURVE",
"1111 336 OFFCURVE",
"1111 675 QCURVE SMOOTH"
);
},
{
closed = 1;
nodes = (
"829 419 OFFCURVE",
"729 201 OFFCURVE",
"613 201 QCURVE SMOOTH",
"531 201 OFFCURVE",
"441 295 OFFCURVE",
"398 501 OFFCURVE",
"398 675 QCURVE SMOOTH",
"398 851 OFFCURVE",
"439 1056 OFFCURVE",
"531 1150 OFFCURVE",
"617 1150 QCURVE SMOOTH",
"699 1150 OFFCURVE",
"787 1056 OFFCURVE",
"829 851 OFFCURVE",
"829 675 QCURVE SMOOTH"
);
},
{
closed = 1;
nodes = (
"721 555 LINE",
"721 804 LINE",
"506 804 LINE",
"506 555 LINE"
);
}
);
userData = {
assembly = "NPUSHB[ ]\011/* 48 values pushed */
29 28 12 20 20 6 12 0 6 0 31 32 15 27 1 27 64 15 28 31 28 143 28 159 28 191 28 207 28 6 13 3 28 28 3 9 9 16 116 89 9 7 3 24 116 89 3 25 
SVTCA[0]\011/* SetFreedomAndProjectionVectorToAxis */
MIAP[1]\011/* MoveIndirectAbsPt */
CALL[ ]\011/* CallFunction */
SVTCA[0]\011/* SetFreedomAndProjectionVectorToAxis */
RTG[ ]\011/* RoundToGrid */
MIAP[1]\011/* MoveIndirectAbsPt */
CALL[ ]\011/* CallFunction */
SRP1[ ]\011/* SetRefPoint1 */
SRP2[ ]\011/* SetRefPoint2 */
SVTCA[0]\011/* SetFreedomAndProjectionVectorToAxis */
IP[ ]\011/* InterpolatePts */
RTG[ ]\011/* RoundToGrid */
MDAP[1]\011/* MoveDirectAbsPt */
SDS[ ]\011/* SetDeltaShiftInGState */
SDB[ ]\011/* SetDeltaBaseInGState */
DELTAP1[ ]\011/* DeltaExceptionP1 */
SMD[ ]\011/* SetMinimumDistance */
MDRP[01101]\011/* MoveDirectRelPt */
DELTAP2[ ]\011/* DeltaExceptionP2 */
SRP1[ ]\011/* SetRefPoint1 */
SRP2[ ]\011/* SetRefPoint2 */
SVTCA[1]\011/* SetFreedomAndProjectionVectorToAxis */
IP[ ]\011/* InterpolatePts */
IP[ ]\011/* InterpolatePts */
SRP1[ ]\011/* SetRefPoint1 */
SHP[1]\011/* ShiftPointByLastPoint */
SRP1[ ]\011/* SetRefPoint1 */
SHP[1]\011/* ShiftPointByLastPoint */
SRP1[ ]\011/* SetRefPoint1 */
SRP2[ ]\011/* SetRefPoint2 */
IP[ ]\011/* InterpolatePts */
IP[ ]\011/* InterpolatePts */
IUP[1]\011/* InterpolateUntPts */
IUP[0]\011/* InterpolateUntPts */";
};
width = 1229;
}
);
note = zero;
unicode = 0030;
},
{
glyphname = one;
lastChange = "2019-12-17 17:05:58 +0000";
layers = (
{
layerId = "1812DDDA-A435-4DB7-9993-49CCF378232E";
paths = (
{
closed = 1;
nodes = (
"1142 0 LINE",
"1142 209 LINE",
"819 209 LINE",
"819 1349 LINE",
"553 1349 LINE",
"497 1242 OFFCURVE",
"277 1120 OFFCURVE",
"138 1120 QCURVE",
"138 906 LINE",
"266 906 OFFCURVE",
"499 1018 OFFCURVE",
"538 1100 QCURVE",
"538 209 LINE",
"149 209 LINE",
"149 0 LINE"
);
}
);
userData = {
assembly = "NPUSHB[ ]\011/* 31 values pushed */
13 12 6 1 10 1 12 3 2 2 15 16 3 6 10 7 6 115 89 7 7 10 6 12 1 0 1 115 89 0 24 
SVTCA[0]\011/* SetFreedomAndProjectionVectorToAxis */
MIAP[1]\011/* MoveIndirectAbsPt */
CALL[ ]\011/* CallFunction */
SRP1[ ]\011/* SetRefPoint1 */
SVTCA[0]\011/* SetFreedomAndProjectionVectorToAxis */
SHP[1]\011/* ShiftPointByLastPoint */
RTG[ ]\011/* RoundToGrid */
MIAP[1]\011/* MoveIndirectAbsPt */
SHP[1]\011/* ShiftPointByLastPoint */
MDAP[1]\011/* MoveDirectAbsPt */
CALL[ ]\011/* CallFunction */
SRP1[ ]\011/* SetRefPoint1 */
SRP2[ ]\011/* SetRefPoint2 */
SVTCA[0]\011/* SetFreedomAndProjectionVectorToAxis */
IP[ ]\011/* InterpolatePts */
SRP1[ ]\011/* SetRefPoint1 */
SRP2[ ]\011/* SetRefPoint2 */
SVTCA[1]\011/* SetFreedomAndProjectionVectorToAxis */
IP[ ]\011/* InterpolatePts */
SRP1[ ]\011/* SetRefPoint1 */
SLOOP[ ]\011/* SetLoopVariable */
SHP[1]\011/* ShiftPointByLastPoint */
SRP1[ ]\011/* SetRefPoint1 */
SHP[1]\011/* ShiftPointByLastPoint */
SRP1[ ]\011/* SetRefPoint1 */
SHP[1]\011/* ShiftPointByLastPoint */
IUP[1]\011/* InterpolateUntPts */
IUP[0]\011/* InterpolateUntPts */";
};
width = 1229;
}
);
note = one;
unicode = 0031;
},
{
glyphname = two;
lastChange = "2019-12-17 17:05:58 +0000";
layers = (
{
layerId = "1812DDDA-A435-4DB7-9993-49CCF378232E";
paths = (
{
closed = 1;
nodes = (
"1109 0 LINE",
"1109 231 LINE",
"455 231 LINE",
"485 299 OFFCURVE",
"619 431 OFFCURVE",
"813 581 QCURVE SMOOTH",
"950 688 OFFCURVE",
"1087 895 OFFCURVE",
"1087 1004 QCURVE SMOOTH",
"1087 1171 OFFCURVE",
"833 1370 OFFCURVE",
"615 1370 QCURVE SMOOTH",
"404 1370 OFFCURVE",
"159 1164 OFFCURVE",
"135 968 QCURVE",
"418 952 LINE",
"432 1049 OFFCURVE",
"527 1146 OFFCURVE",
"617 1146 QCURVE SMOOTH",
"708 1146 OFFCURVE",
"802 1064 OFFCURVE",
"802 992 QCURVE SMOOTH",
"802 950 OFFCURVE",
"755 869 OFFCURVE",
"673 783 OFFCURVE",
"535 670 QCURVE SMOOTH",
"358 526 OFFCURVE",
"173 305 OFFCURVE",
"123 195 QCURVE",
"123 0 LINE"
);
}
);
userData = {
assembly = "NPUSHB[ ]\011/* 48 values pushed */
27 1 1 14 15 28 8 21 15 21 30 31 15 14 31 14 47 14 95 14 111 14 5 18 3 14 64 12 15 72 14 14 18 27 18 11 116 89 18 7 1 27 0 27 117 89 0 24 
SVTCA[0]\011/* SetFreedomAndProjectionVectorToAxis */
MIAP[1]\011/* MoveIndirectAbsPt */
CALL[ ]\011/* CallFunction */
SRP1[ ]\011/* SetRefPoint1 */
SVTCA[0]\011/* SetFreedomAndProjectionVectorToAxis */
SHP[1]\011/* ShiftPointByLastPoint */
RTG[ ]\011/* RoundToGrid */
MIAP[1]\011/* MoveIndirectAbsPt */
CALL[ ]\011/* CallFunction */
SRP1[ ]\011/* SetRefPoint1 */
SRP2[ ]\011/* SetRefPoint2 */
SVTCA[0]\011/* SetFreedomAndProjectionVectorToAxis */
IP[ ]\011/* InterpolatePts */
RTG[ ]\011/* RoundToGrid */
MDAP[1]\011/* MoveDirectAbsPt */
CALL[ ]\011/* CallFunction */
SDS[ ]\011/* SetDeltaShiftInGState */
SDB[ ]\011/* SetDeltaBaseInGState */
DELTAP1[ ]\011/* DeltaExceptionP1 */
SRP1[ ]\011/* SetRefPoint1 */
SRP2[ ]\011/* SetRefPoint2 */
SVTCA[1]\011/* SetFreedomAndProjectionVectorToAxis */
IP[ ]\011/* InterpolatePts */
IP[ ]\011/* InterpolatePts */
SRP1[ ]\011/* SetRefPoint1 */
SHP[1]\011/* ShiftPointByLastPoint */
SHP[1]\011/* ShiftPointByLastPoint */
SRP1[ ]\011/* SetRefPoint1 */
SHP[1]\011/* ShiftPointByLastPoint */
SHP[1]\011/* ShiftPointByLastPoint */
SRP1[ ]\011/* SetRefPoint1 */
SHP[1]\011/* ShiftPointByLastPoint */
IUP[1]\011/* InterpolateUntPts */
IUP[0]\011/* InterpolateUntPts */";
};
width = 1229;
}
);
note = two;
unicode = 0032;
},
{
glyphname = three;
lastChange = "2019-12-17 17:05:58 +0000";
layers = (
{
layerId = "1812DDDA-A435-4DB7-9993-49CCF378232E";
paths = (
{
closed = 1;
nodes = (
"1125 504 OFFCURVE",
"945 673 OFFCURVE",
"788 691 QCURVE",
"788 695 LINE",
"933 723 OFFCURVE",
"1089 887 OFFCURVE",
"1089 1010 QCURVE SMOOTH",
"1089 1117 OFFCURVE",
"974 1280 OFFCURVE",
"757 1370 OFFCURVE",
"609 1370 QCURVE SMOOTH",
"398 1370 OFFCURVE",
"139 1176 OFFCURVE",
"117 997 QCURVE",
"398 977 LINE",
"406 1065 OFFCURVE",
"518 1146 OFFCURVE",
"604 1146 QCURVE SMOOTH",
"695 1146 OFFCURVE",
"804 1050 OFFCURVE",
"804 975 QCURVE SMOOTH",
"804 892 OFFCURVE",
"673 799 OFFCURVE",
"551 799 QCURVE SMOOTH",
"459 799 LINE",
"459 572 LINE",
"557 572 LINE SMOOTH",
"692 572 OFFCURVE",
"837 480 OFFCURVE",
"837 393 QCURVE SMOOTH",
"837 306 OFFCURVE",
"719 205 OFFCURVE",
"614 205 QCURVE SMOOTH",
"404 205 OFFCURVE",
"379 393 QCURVE",
"93 368 LINE",
"116 178 OFFCURVE",
"385 -23 OFFCURVE",
"615 -23 QCURVE SMOOTH",
"854 -23 OFFCURVE",
"1125 187 OFFCURVE",
"1125 376 QCURVE SMOOTH"
);
}
);
userData = {
assembly = "NPUSHB[ ]\011/* 68 values pushed */
38 35 17 17 6 0 27 28 28 7 6 21 35 35 12 0 6 0 42 43 7 3 38 16 27 31 17 17 16 117 89 63 17 79 17 143 17 159 17 191 17 207 17 6 3 13 17 29 17 2 13 4 17 17 3 31 31 24 116 89 31 7 3 9 117 89 3 25 
SVTCA[0]\011/* SetFreedomAndProjectionVectorToAxis */
MIAP[1]\011/* MoveIndirectAbsPt */
CALL[ ]\011/* CallFunction */
SVTCA[0]\011/* SetFreedomAndProjectionVectorToAxis */
RTG[ ]\011/* RoundToGrid */
MIAP[1]\011/* MoveIndirectAbsPt */
CALL[ ]\011/* CallFunction */
SRP1[ ]\011/* SetRefPoint1 */
SRP2[ ]\011/* SetRefPoint2 */
SVTCA[0]\011/* SetFreedomAndProjectionVectorToAxis */
IP[ ]\011/* InterpolatePts */
RTG[ ]\011/* RoundToGrid */
MDAP[1]\011/* MoveDirectAbsPt */
SDS[ ]\011/* SetDeltaShiftInGState */
SDB[ ]\011/* SetDeltaBaseInGState */
DELTAP1[ ]\011/* DeltaExceptionP1 */
SDS[ ]\011/* SetDeltaShiftInGState */
DELTAP1[ ]\011/* DeltaExceptionP1 */
CALL[ ]\011/* CallFunction */
SRP1[ ]\011/* SetRefPoint1 */
SRP2[ ]\011/* SetRefPoint2 */
SVTCA[0]\011/* SetFreedomAndProjectionVectorToAxis */
IP[ ]\011/* InterpolatePts */
SRP2[ ]\011/* SetRefPoint2 */
IP[ ]\011/* InterpolatePts */
SRP1[ ]\011/* SetRefPoint1 */
IP[ ]\011/* InterpolatePts */
SRP1[ ]\011/* SetRefPoint1 */
SRP2[ ]\011/* SetRefPoint2 */
SVTCA[1]\011/* SetFreedomAndProjectionVectorToAxis */
IP[ ]\011/* InterpolatePts */
IP[ ]\011/* InterpolatePts */
SRP1[ ]\011/* SetRefPoint1 */
SHP[1]\011/* ShiftPointByLastPoint */
SHP[1]\011/* ShiftPointByLastPoint */
SRP1[ ]\011/* SetRefPoint1 */
SHP[1]\011/* ShiftPointByLastPoint */
SRP1[ ]\011/* SetRefPoint1 */
SHP[1]\011/* ShiftPointByLastPoint */
SHP[1]\011/* ShiftPointByLastPoint */
SRP1[ ]\011/* SetRefPoint1 */
SHP[1]\011/* ShiftPointByLastPoint */
SRP1[ ]\011/* SetRefPoint1 */
SRP2[ ]\011/* SetRefPoint2 */
IP[ ]\011/* InterpolatePts */
SRP1[ ]\011/* SetRefPoint1 */
SRP2[ ]\011/* SetRefPoint2 */
IP[ ]\011/* InterpolatePts */
IUP[1]\011/* InterpolateUntPts */
IUP[0]\011/* InterpolateUntPts */";
};
width = 1229;
}
);
note = three;
unicode = 0033;
},
{
glyphname = four;
lastChange = "2019-12-17 17:05:58 +0000";
layers = (
{
layerId = "1812DDDA-A435-4DB7-9993-49CCF378232E";
paths = (
{
closed = 1;
nodes = (
"1168 287 LINE",
"1168 496 LINE",
"980 496 LINE",
"980 1349 LINE",
"666 1349 LINE",
"71 498 LINE",
"71 287 LINE",
"712 287 LINE",
"712 0 LINE",
"980 0 LINE",
"980 287 LINE"
);
},
{
closed = 1;
nodes = (
"712 496 LINE",
"307 496 LINE",
"627 943 LINE",
"695 1049 OFFCURVE",
"721 1105 QCURVE",
"719 1087 OFFCURVE",
"712 961 OFFCURVE",
"712 907 QCURVE SMOOTH"
);
}
);
userData = {
assembly = "NPUSHB[ ]\011/* 29 values pushed */
17 5 18 6 2 2 8 1 5 1 19 20 0 4 17 4 115 89 8 5 14 6 17 17 1 6 6 1 24 
SVTCA[0]\011/* SetFreedomAndProjectionVectorToAxis */
MIAP[1]\011/* MoveIndirectAbsPt */
MIAP[1]\011/* MoveIndirectAbsPt */
SRP2[ ]\011/* SetRefPoint2 */
IP[ ]\011/* InterpolatePts */
MDAP[1]\011/* MoveDirectAbsPt */
SRP2[ ]\011/* SetRefPoint2 */
IP[ ]\011/* InterpolatePts */
SHP[1]\011/* ShiftPointByLastPoint */
SHP[1]\011/* ShiftPointByLastPoint */
CALL[ ]\011/* CallFunction */
SRP1[ ]\011/* SetRefPoint1 */
SVTCA[0]\011/* SetFreedomAndProjectionVectorToAxis */
SHP[1]\011/* ShiftPointByLastPoint */
SRP1[ ]\011/* SetRefPoint1 */
SRP2[ ]\011/* SetRefPoint2 */
SVTCA[1]\011/* SetFreedomAndProjectionVectorToAxis */
IP[ ]\011/* InterpolatePts */
IP[ ]\011/* InterpolatePts */
SRP1[ ]\011/* SetRefPoint1 */
SHP[1]\011/* ShiftPointByLastPoint */
SHP[1]\011/* ShiftPointByLastPoint */
SRP1[ ]\011/* SetRefPoint1 */
SHP[1]\011/* ShiftPointByLastPoint */
SHP[1]\011/* ShiftPointByLastPoint */
SRP1[ ]\011/* SetRefPoint1 */
SHP[1]\011/* ShiftPointByLastPoint */
IUP[1]\011/* InterpolateUntPts */
IUP[0]\011/* InterpolateUntPts */";
};
width = 1229;
}
);
note = four;
unicode = 0034;
},
{
glyphname = five;
lastChange = "2019-12-17 17:05:58 +0000";
layers = (
{
layerId = "1812DDDA-A435-4DB7-9993-49CCF378232E";
paths = (
{
closed = 1;
nodes = (
"1123 657 OFFCURVE",
"882 904 OFFCURVE",
"681 904 QCURVE SMOOTH",
"528 904 OFFCURVE",
"426 814 QCURVE",
"449 1140 LINE",
"1041 1140 LINE",
"1041 1349 LINE",
"194 1349 LINE",
"145 586 LINE",
"419 586 LINE",
"493 677 OFFCURVE",
"610 677 QCURVE SMOOTH",
"716 677 OFFCURVE",
"834 552 OFFCURVE",
"834 448 QCURVE SMOOTH",
"834 331 OFFCURVE",
"712 203 OFFCURVE",
"604 203 QCURVE SMOOTH",
"519 203 OFFCURVE",
"407 285 OFFCURVE",
"385 375 QCURVE",
"104 352 LINE",
"134 171 OFFCURVE",
"389 -20 OFFCURVE",
"601 -20 QCURVE SMOOTH",
"761 -20 OFFCURVE",
"998 99 OFFCURVE",
"1123 314 OFFCURVE",
"1123 454 QCURVE SMOOTH"
);
}
);
userData = {
assembly = "NPUSHB[ ]\011/* 44 values pushed */
23 7 0 25 24 19 19 21 20 20 8 7 14 0 7 0 30 31 20 8 20 8 4 27 27 17 117 89 27 27 4 21 21 24 115 89 21 6 4 11 116 89 4 25 
SVTCA[0]\011/* SetFreedomAndProjectionVectorToAxis */
MIAP[1]\011/* MoveIndirectAbsPt */
CALL[ ]\011/* CallFunction */
SVTCA[0]\011/* SetFreedomAndProjectionVectorToAxis */
RTG[ ]\011/* RoundToGrid */
MIAP[1]\011/* MoveIndirectAbsPt */
CALL[ ]\011/* CallFunction */
SRP1[ ]\011/* SetRefPoint1 */
SRP2[ ]\011/* SetRefPoint2 */
SVTCA[0]\011/* SetFreedomAndProjectionVectorToAxis */
IP[ ]\011/* InterpolatePts */
RTG[ ]\011/* RoundToGrid */
MDAP[1]\011/* MoveDirectAbsPt */
CALL[ ]\011/* CallFunction */
SRP1[ ]\011/* SetRefPoint1 */
SRP2[ ]\011/* SetRefPoint2 */
SVTCA[0]\011/* SetFreedomAndProjectionVectorToAxis */
IP[ ]\011/* InterpolatePts */
IP[ ]\011/* InterpolatePts */
RTG[ ]\011/* RoundToGrid */
MDAP[1]\011/* MoveDirectAbsPt */
MDAP[1]\011/* MoveDirectAbsPt */
SRP1[ ]\011/* SetRefPoint1 */
SRP2[ ]\011/* SetRefPoint2 */
SVTCA[1]\011/* SetFreedomAndProjectionVectorToAxis */
IP[ ]\011/* InterpolatePts */
IP[ ]\011/* InterpolatePts */
SRP1[ ]\011/* SetRefPoint1 */
SHP[1]\011/* ShiftPointByLastPoint */
SRP1[ ]\011/* SetRefPoint1 */
SHP[1]\011/* ShiftPointByLastPoint */
SHP[1]\011/* ShiftPointByLastPoint */
SRP1[ ]\011/* SetRefPoint1 */
SHP[1]\011/* ShiftPointByLastPoint */
SHP[1]\011/* ShiftPointByLastPoint */
SRP1[ ]\011/* SetRefPoint1 */
SHP[1]\011/* ShiftPointByLastPoint */
SHP[1]\011/* ShiftPointByLastPoint */
SRP1[ ]\011/* SetRefPoint1 */
SRP2[ ]\011/* SetRefPoint2 */
IP[ ]\011/* InterpolatePts */
IUP[1]\011/* InterpolateUntPts */
IUP[0]\011/* InterpolateUntPts */";
};
width = 1229;
}
);
note = five;
unicode = 0035;
},
{
glyphname = six;
lastChange = "2019-12-17 17:05:58 +0000";
layers = (
{
layerId = "1812DDDA-A435-4DB7-9993-49CCF378232E";
paths = (
{
closed = 1;
nodes = (
"1115 644 OFFCURVE",
"891 877 OFFCURVE",
"706 877 QCURVE SMOOTH",
"605 877 OFFCURVE",
"445 797 OFFCURVE",
"400 722 QCURVE",
"400 931 OFFCURVE",
"528 1148 OFFCURVE",
"642 1148 QCURVE SMOOTH",
"774 1148 OFFCURVE",
"812 1009 QCURVE",
"1077 1046 LINE",
"1034 1212 OFFCURVE",
"827 1370 OFFCURVE",
"648 1370 QCURVE SMOOTH",
"396 1370 OFFCURVE",
"125 1026 OFFCURVE",
"125 672 QCURVE SMOOTH",
"125 347 OFFCURVE",
"396 -20 OFFCURVE",
"641 -20 QCURVE SMOOTH",
"861 -20 OFFCURVE",
"1115 229 OFFCURVE",
"1115 446 QCURVE SMOOTH"
);
},
{
closed = 1;
nodes = (
"833 327 OFFCURVE",
"725 199 OFFCURVE",
"632 199 QCURVE SMOOTH",
"538 199 OFFCURVE",
"420 355 OFFCURVE",
"420 468 QCURVE SMOOTH",
"420 559 OFFCURVE",
"535 670 OFFCURVE",
"625 670 QCURVE SMOOTH",
"722 670 OFFCURVE",
"833 547 OFFCURVE",
"833 438 QCURVE SMOOTH"
);
}
);
userData = {
assembly = "NPUSHB[ ]\011/* 46 values pushed */
18 30 30 6 13 12 12 24 0 6 0 36 37 13 13 15 21 21 27 115 89 0 21 16 21 32 21 3 9 3 21 21 3 9 9 15 116 89 9 7 3 33 116 89 3 25 
SVTCA[0]\011/* SetFreedomAndProjectionVectorToAxis */
MIAP[1]\011/* MoveIndirectAbsPt */
CALL[ ]\011/* CallFunction */
SVTCA[0]\011/* SetFreedomAndProjectionVectorToAxis */
RTG[ ]\011/* RoundToGrid */
MIAP[1]\011/* MoveIndirectAbsPt */
CALL[ ]\011/* CallFunction */
SRP1[ ]\011/* SetRefPoint1 */
SRP2[ ]\011/* SetRefPoint2 */
SVTCA[0]\011/* SetFreedomAndProjectionVectorToAxis */
IP[ ]\011/* InterpolatePts */
RTG[ ]\011/* RoundToGrid */
MDAP[1]\011/* MoveDirectAbsPt */
SDS[ ]\011/* SetDeltaShiftInGState */
SDB[ ]\011/* SetDeltaBaseInGState */
DELTAP1[ ]\011/* DeltaExceptionP1 */
CALL[ ]\011/* CallFunction */
SRP1[ ]\011/* SetRefPoint1 */
SRP2[ ]\011/* SetRefPoint2 */
SVTCA[0]\011/* SetFreedomAndProjectionVectorToAxis */
IP[ ]\011/* InterpolatePts */
RTG[ ]\011/* RoundToGrid */
MDAP[1]\011/* MoveDirectAbsPt */
SRP1[ ]\011/* SetRefPoint1 */
SRP2[ ]\011/* SetRefPoint2 */
SVTCA[1]\011/* SetFreedomAndProjectionVectorToAxis */
IP[ ]\011/* InterpolatePts */
IP[ ]\011/* InterpolatePts */
SRP1[ ]\011/* SetRefPoint1 */
SHP[1]\011/* ShiftPointByLastPoint */
SHP[1]\011/* ShiftPointByLastPoint */
SRP1[ ]\011/* SetRefPoint1 */
SHP[1]\011/* ShiftPointByLastPoint */
SRP1[ ]\011/* SetRefPoint1 */
SHP[1]\011/* ShiftPointByLastPoint */
SRP1[ ]\011/* SetRefPoint1 */
SHP[1]\011/* ShiftPointByLastPoint */
IUP[1]\011/* InterpolateUntPts */
IUP[0]\011/* InterpolateUntPts */";
};
width = 1229;
}
);
note = six;
unicode = 0036;
},
{
glyphname = seven;
lastChange = "2019-12-17 17:05:58 +0000";
layers = (
{
layerId = "1812DDDA-A435-4DB7-9993-49CCF378232E";
paths = (
{
closed = 1;
nodes = (
"1092 1349 LINE",
"131 1349 LINE",
"131 1118 LINE",
"831 1118 LINE",
"575 807 OFFCURVE",
"336 260 OFFCURVE",
"336 0 QCURVE",
"629 0 LINE",
"629 256 OFFCURVE",
"837 778 OFFCURVE",
"1092 1126 QCURVE"
);
}
);
userData = {
assembly = "NPUSHB[ ]\011/* 21 values pushed */
3 4 4 8 7 7 0 8 0 11 12 0 8 9 8 117 89 9 6 3 24 
SVTCA[0]\011/* SetFreedomAndProjectionVectorToAxis */
MIAP[1]\011/* MoveIndirectAbsPt */
MIAP[1]\011/* MoveIndirectAbsPt */
CALL[ ]\011/* CallFunction */
SRP1[ ]\011/* SetRefPoint1 */
SVTCA[0]\011/* SetFreedomAndProjectionVectorToAxis */
SHP[1]\011/* ShiftPointByLastPoint */
SRP1[ ]\011/* SetRefPoint1 */
SRP2[ ]\011/* SetRefPoint2 */
SVTCA[1]\011/* SetFreedomAndProjectionVectorToAxis */
IP[ ]\011/* InterpolatePts */
IP[ ]\011/* InterpolatePts */
SRP1[ ]\011/* SetRefPoint1 */
SHP[1]\011/* ShiftPointByLastPoint */
SRP1[ ]\011/* SetRefPoint1 */
SRP2[ ]\011/* SetRefPoint2 */
IP[ ]\011/* InterpolatePts */
SRP1[ ]\011/* SetRefPoint1 */
SHP[1]\011/* ShiftPointByLastPoint */
IUP[1]\011/* InterpolateUntPts */
IUP[0]\011/* InterpolateUntPts */";
};
width = 1229;
}
);
note = seven;
unicode = 0037;
},
{
glyphname = eight;
lastChange = "2019-12-17 17:05:58 +0000";
layers = (
{
layerId = "1812DDDA-A435-4DB7-9993-49CCF378232E";
paths = (
{
closed = 1;
nodes = (
"1120 513 OFFCURVE",
"964 687 OFFCURVE",
"829 709 QCURVE",
"829 713 LINE",
"943 736 OFFCURVE",
"1085 904 OFFCURVE",
"1085 1010 QCURVE SMOOTH",
"1085 1182 OFFCURVE",
"838 1370 OFFCURVE",
"611 1370 QCURVE SMOOTH",
"391 1370 OFFCURVE",
"142 1176 OFFCURVE",
"142 1012 QCURVE SMOOTH",
"142 902 OFFCURVE",
"283 736 OFFCURVE",
"396 711 QCURVE",
"396 707 LINE",
"268 686 OFFCURVE",
"109 508 OFFCURVE",
"109 380 QCURVE SMOOTH",
"109 192 OFFCURVE",
"378 -20 OFFCURVE",
"615 -20 QCURVE SMOOTH",
"854 -20 OFFCURVE",
"1120 194 OFFCURVE",
"1120 382 QCURVE SMOOTH"
);
},
{
closed = 1;
nodes = (
"796 808 OFFCURVE",
"613 808 QCURVE SMOOTH",
"524 808 OFFCURVE",
"429 904 OFFCURVE",
"429 995 QCURVE SMOOTH",
"429 1173 OFFCURVE",
"611 1173 QCURVE SMOOTH",
"796 1173 OFFCURVE",
"796 995 QCURVE SMOOTH"
);
},
{
closed = 1;
nodes = (
"829 286 OFFCURVE",
"723 178 OFFCURVE",
"617 178 QCURVE SMOOTH",
"398 178 OFFCURVE",
"398 401 QCURVE SMOOTH",
"398 500 OFFCURVE",
"508 611 OFFCURVE",
"609 611 QCURVE SMOOTH",
"718 611 OFFCURVE",
"829 506 OFFCURVE",
"829 405 QCURVE SMOOTH"
);
}
);
userData = {
assembly = "NPUSHB[ ]\011/* 43 values pushed */
22 10 13 26 19 30 13 19 13 0 41 6 35 0 6 0 46 47 22 10 10 33 38 33 38 118 89 33 33 3 16 16 28 118 89 16 7 3 43 118 89 3 25 
SVTCA[0]\011/* SetFreedomAndProjectionVectorToAxis */
MIAP[1]\011/* MoveIndirectAbsPt */
CALL[ ]\011/* CallFunction */
SVTCA[0]\011/* SetFreedomAndProjectionVectorToAxis */
RTG[ ]\011/* RoundToGrid */
MIAP[1]\011/* MoveIndirectAbsPt */
CALL[ ]\011/* CallFunction */
SRP1[ ]\011/* SetRefPoint1 */
SRP2[ ]\011/* SetRefPoint2 */
SVTCA[0]\011/* SetFreedomAndProjectionVectorToAxis */
IP[ ]\011/* InterpolatePts */
RTG[ ]\011/* RoundToGrid */
MDAP[1]\011/* MoveDirectAbsPt */
CALL[ ]\011/* CallFunction */
SRP1[ ]\011/* SetRefPoint1 */
SRP2[ ]\011/* SetRefPoint2 */
SVTCA[0]\011/* SetFreedomAndProjectionVectorToAxis */
IP[ ]\011/* InterpolatePts */
SRP1[ ]\011/* SetRefPoint1 */
SHP[1]\011/* ShiftPointByLastPoint */
SRP1[ ]\011/* SetRefPoint1 */
SRP2[ ]\011/* SetRefPoint2 */
SVTCA[1]\011/* SetFreedomAndProjectionVectorToAxis */
IP[ ]\011/* InterpolatePts */
IP[ ]\011/* InterpolatePts */
SRP1[ ]\011/* SetRefPoint1 */
SHP[1]\011/* ShiftPointByLastPoint */
SRP1[ ]\011/* SetRefPoint1 */
SHP[1]\011/* ShiftPointByLastPoint */
SRP2[ ]\011/* SetRefPoint2 */
IP[ ]\011/* InterpolatePts */
IP[ ]\011/* InterpolatePts */
SRP1[ ]\011/* SetRefPoint1 */
SHP[1]\011/* ShiftPointByLastPoint */
SRP1[ ]\011/* SetRefPoint1 */
SHP[1]\011/* ShiftPointByLastPoint */
SRP2[ ]\011/* SetRefPoint2 */
IP[ ]\011/* InterpolatePts */
IP[ ]\011/* InterpolatePts */
IUP[1]\011/* InterpolateUntPts */
IUP[0]\011/* InterpolateUntPts */";
};
width = 1229;
}
);
note = eight;
unicode = 0038;
},
{
glyphname = nine;
lastChange = "2019-12-17 17:05:58 +0000";
layers = (
{
layerId = "1812DDDA-A435-4DB7-9993-49CCF378232E";
paths = (
{
closed = 1;
nodes = (
"1106 1038 OFFCURVE",
"850 1370 OFFCURVE",
"606 1370 QCURVE SMOOTH",
"374 1370 OFFCURVE",
"114 1126 OFFCURVE",
"114 913 QCURVE SMOOTH",
"114 705 OFFCURVE",
"336 459 OFFCURVE",
"519 459 QCURVE SMOOTH",
"619 459 OFFCURVE",
"792 544 OFFCURVE",
"830 619 QCURVE",
"828 410 OFFCURVE",
"697 201 OFFCURVE",
"583 201 QCURVE SMOOTH",
"442 201 OFFCURVE",
"403 348 QCURVE",
"139 311 LINE",
"183 139 OFFCURVE",
"394 -20 OFFCURVE",
"580 -20 QCURVE SMOOTH",
"835 -20 OFFCURVE",
"1106 350 OFFCURVE",
"1106 697 QCURVE SMOOTH"
);
},
{
closed = 1;
nodes = (
"809 785 OFFCURVE",
"691 668 OFFCURVE",
"600 668 QCURVE SMOOTH",
"508 668 OFFCURVE",
"399 803 OFFCURVE",
"399 911 QCURVE SMOOTH",
"399 1021 OFFCURVE",
"508 1150 OFFCURVE",
"599 1150 QCURVE SMOOTH",
"691 1150 OFFCURVE",
"809 1001 OFFCURVE",
"809 879 QCURVE SMOOTH"
);
}
);
userData = {
assembly = "NPUSHB[ ]\011/* 46 values pushed */
7 6 6 30 18 12 24 24 0 18 0 36 37 7 7 9 15 15 33 115 89 15 15 31 15 47 15 3 9 3 15 15 21 3 21 27 116 89 21 7 3 9 116 89 3 25 
SVTCA[0]\011/* SetFreedomAndProjectionVectorToAxis */
MIAP[1]\011/* MoveIndirectAbsPt */
CALL[ ]\011/* CallFunction */
SVTCA[0]\011/* SetFreedomAndProjectionVectorToAxis */
RTG[ ]\011/* RoundToGrid */
MIAP[1]\011/* MoveIndirectAbsPt */
CALL[ ]\011/* CallFunction */
SRP1[ ]\011/* SetRefPoint1 */
SRP2[ ]\011/* SetRefPoint2 */
SVTCA[0]\011/* SetFreedomAndProjectionVectorToAxis */
IP[ ]\011/* InterpolatePts */
RTG[ ]\011/* RoundToGrid */
MDAP[1]\011/* MoveDirectAbsPt */
SDS[ ]\011/* SetDeltaShiftInGState */
SDB[ ]\011/* SetDeltaBaseInGState */
DELTAP1[ ]\011/* DeltaExceptionP1 */
CALL[ ]\011/* CallFunction */
SRP1[ ]\011/* SetRefPoint1 */
SRP2[ ]\011/* SetRefPoint2 */
SVTCA[0]\011/* SetFreedomAndProjectionVectorToAxis */
IP[ ]\011/* InterpolatePts */
RTG[ ]\011/* RoundToGrid */
MDAP[1]\011/* MoveDirectAbsPt */
SRP1[ ]\011/* SetRefPoint1 */
SRP2[ ]\011/* SetRefPoint2 */
SVTCA[1]\011/* SetFreedomAndProjectionVectorToAxis */
IP[ ]\011/* InterpolatePts */
IP[ ]\011/* InterpolatePts */
SRP1[ ]\011/* SetRefPoint1 */
SHP[1]\011/* ShiftPointByLastPoint */
SRP1[ ]\011/* SetRefPoint1 */
SHP[1]\011/* ShiftPointByLastPoint */
SRP1[ ]\011/* SetRefPoint1 */
SHP[1]\011/* ShiftPointByLastPoint */
SHP[1]\011/* ShiftPointByLastPoint */
SRP1[ ]\011/* SetRefPoint1 */
SHP[1]\011/* ShiftPointByLastPoint */
IUP[1]\011/* InterpolateUntPts */
IUP[0]\011/* InterpolateUntPts */";
};
width = 1229;
}
);
note = nine;
unicode = 0039;
},
{
glyphname = colon;
lastChange = "2019-12-17 17:05:58 +0000";
layers = (
{
layerId = "1812DDDA-A435-4DB7-9993-49CCF378232E";
paths = (
{
closed = 1;
nodes = (
"759 0 LINE",
"759 305 LINE",
"470 305 LINE",
"470 0 LINE"
);
},
{
closed = 1;
nodes = (
"759 780 LINE",
"759 1085 LINE",
"470 1085 LINE",
"470 780 LINE"
);
}
);
userData = {
assembly = "NPUSHB[ ]\011/* 20 values pushed */
7 3 3 4 0 0 8 9 5 4 155 91 5 15 0 1 155 91 0 18 
SVTCA[0]\011/* SetFreedomAndProjectionVectorToAxis */
MIAP[1]\011/* MoveIndirectAbsPt */
CALL[ ]\011/* CallFunction */
SVTCA[0]\011/* SetFreedomAndProjectionVectorToAxis */
RTG[ ]\011/* RoundToGrid */
MIAP[1]\011/* MoveIndirectAbsPt */
CALL[ ]\011/* CallFunction */
SRP1[ ]\011/* SetRefPoint1 */
SRP2[ ]\011/* SetRefPoint2 */
SVTCA[1]\011/* SetFreedomAndProjectionVectorToAxis */
IP[ ]\011/* InterpolatePts */
SRP1[ ]\011/* SetRefPoint1 */
SHP[1]\011/* ShiftPointByLastPoint */
SHP[1]\011/* ShiftPointByLastPoint */
SRP1[ ]\011/* SetRefPoint1 */
SHP[1]\011/* ShiftPointByLastPoint */
IUP[1]\011/* InterpolateUntPts */
IUP[0]\011/* InterpolateUntPts */";
};
width = 1229;
}
);
note = colon;
unicode = 003A;
},
{
glyphname = semicolon;
lastChange = "2019-12-17 17:05:58 +0000";
layers = (
{
layerId = "1812DDDA-A435-4DB7-9993-49CCF378232E";
paths = (
{
closed = 1;
nodes = (
"768 780 LINE",
"768 1085 LINE",
"479 1085 LINE",
"479 780 LINE"
);
},
{
closed = 1;
nodes = (
"499 -363 LINE",
"810 299 LINE",
"495 299 LINE",
"326 -363 LINE"
);
}
);
userData = {
assembly = "NPUSHB[ ]\011/* 22 values pushed */
6 4 4 3 0 0 8 9 5 7 156 91 8 5 155 91 1 0 155 91 1 15 
SVTCA[0]\011/* SetFreedomAndProjectionVectorToAxis */
MIAP[1]\011/* MoveIndirectAbsPt */
CALL[ ]\011/* CallFunction */
CALL[ ]\011/* CallFunction */
CALL[ ]\011/* CallFunction */
SRP1[ ]\011/* SetRefPoint1 */
SRP2[ ]\011/* SetRefPoint2 */
SVTCA[1]\011/* SetFreedomAndProjectionVectorToAxis */
IP[ ]\011/* InterpolatePts */
SRP1[ ]\011/* SetRefPoint1 */
SHP[1]\011/* ShiftPointByLastPoint */
SHP[1]\011/* ShiftPointByLastPoint */
SRP1[ ]\011/* SetRefPoint1 */
SHP[1]\011/* ShiftPointByLastPoint */
IUP[1]\011/* InterpolateUntPts */
IUP[0]\011/* InterpolateUntPts */";
};
width = 1229;
}
);
note = semicolon;
unicode = "003B,037E";
},
{
glyphname = less;
lastChange = "2019-12-17 17:05:58 +0000";
layers = (
{
layerId = "1812DDDA-A435-4DB7-9993-49CCF378232E";
paths = (
{
closed = 1;
nodes = (
"1128 125 LINE",
"1128 352 LINE",
"295 676 LINE",
"1128 1001 LINE",
"1128 1229 LINE",
"101 838 LINE",
"101 516 LINE"
);
}
);
userData = {
assembly = "NPUSHB[ ]\011/* 36 values pushed */
4 0 2 6 0 6 7 8 1 0 4 4 2 5 63 6 111 6 143 6 175 6 191 6 207 6 6 6 3 32 2 1 15 2 1 2 
SVTCA[0]\011/* SetFreedomAndProjectionVectorToAxis */
MDAP[1]\011/* MoveDirectAbsPt */
DELTAP1[ ]\011/* DeltaExceptionP1 */
DELTAP1[ ]\011/* DeltaExceptionP1 */
SHP[1]\011/* ShiftPointByLastPoint */
MDAP[1]\011/* MoveDirectAbsPt */
DELTAP1[ ]\011/* DeltaExceptionP1 */
SHP[1]\011/* ShiftPointByLastPoint */
SRP2[ ]\011/* SetRefPoint2 */
IP[ ]\011/* InterpolatePts */
RTDG[ ]\011/* RoundToDoubleGrid */
MDAP[1]\011/* MoveDirectAbsPt */
SHP[1]\011/* ShiftPointByLastPoint */
SHP[1]\011/* ShiftPointByLastPoint */
SRP1[ ]\011/* SetRefPoint1 */
SRP2[ ]\011/* SetRefPoint2 */
SVTCA[1]\011/* SetFreedomAndProjectionVectorToAxis */
IP[ ]\011/* InterpolatePts */
IP[ ]\011/* InterpolatePts */
SRP1[ ]\011/* SetRefPoint1 */
SHP[1]\011/* ShiftPointByLastPoint */
SRP1[ ]\011/* SetRefPoint1 */
SHP[1]\011/* ShiftPointByLastPoint */
IUP[1]\011/* InterpolateUntPts */
IUP[0]\011/* InterpolateUntPts */";
};
width = 1229;
}
);
note = less;
unicode = 003C;
},
{
glyphname = equal;
lastChange = "2019-12-17 17:05:58 +0000";
layers = (
{
layerId = "1812DDDA-A435-4DB7-9993-49CCF378232E";
paths = (
{
closed = 1;
nodes = (
"1128 842 LINE",
"1128 1065 LINE",
"101 1065 LINE",
"101 842 LINE"
);
},
{
closed = 1;
nodes = (
"1128 291 LINE",
"1128 512 LINE",
"101 512 LINE",
"101 291 LINE"
);
}
);
userData = {
assembly = "NPUSHB[ ]\011/* 56 values pushed */
4 0 7 3 0 3 8 9 4 5 173 89 95 4 111 4 223 4 3 15 4 31 4 111 4 143 4 4 9 3 4 1 0 173 89 16 1 32 1 112 1 144 1 4 32 1 64 1 160 1 192 1 208 1 5 1 
SVTCA[0]\011/* SetFreedomAndProjectionVectorToAxis */
MDAP[1]\011/* MoveDirectAbsPt */
DELTAP1[ ]\011/* DeltaExceptionP1 */
DELTAP2[ ]\011/* DeltaExceptionP2 */
CALL[ ]\011/* CallFunction */
SVTCA[0]\011/* SetFreedomAndProjectionVectorToAxis */
RTG[ ]\011/* RoundToGrid */
MDAP[1]\011/* MoveDirectAbsPt */
SDS[ ]\011/* SetDeltaShiftInGState */
SDB[ ]\011/* SetDeltaBaseInGState */
DELTAP1[ ]\011/* DeltaExceptionP1 */
DELTAP2[ ]\011/* DeltaExceptionP2 */
CALL[ ]\011/* CallFunction */
SRP1[ ]\011/* SetRefPoint1 */
SRP2[ ]\011/* SetRefPoint2 */
SVTCA[1]\011/* SetFreedomAndProjectionVectorToAxis */
IP[ ]\011/* InterpolatePts */
IP[ ]\011/* InterpolatePts */
SRP1[ ]\011/* SetRefPoint1 */
SHP[1]\011/* ShiftPointByLastPoint */
SRP1[ ]\011/* SetRefPoint1 */
SHP[1]\011/* ShiftPointByLastPoint */
IUP[1]\011/* InterpolateUntPts */
IUP[0]\011/* InterpolateUntPts */";
};
width = 1229;
}
);
note = equal;
unicode = 003D;
},
{
glyphname = greater;
lastChange = "2019-12-17 17:05:58 +0000";
layers = (
{
layerId = "1812DDDA-A435-4DB7-9993-49CCF378232E";
paths = (
{
closed = 1;
nodes = (
"1128 516 LINE",
"1128 838 LINE",
"101 1229 LINE",
"101 1001 LINE",
"933 676 LINE",
"101 352 LINE",
"101 125 LINE"
);
}
);
userData = {
assembly = "NPUSHB[ ]\011/* 35 values pushed */
4 0 2 6 0 6 7 8 6 5 2 2 3 32 4 1 15 4 1 4 1 63 0 111 0 143 0 175 0 191 0 207 0 6 0 
SVTCA[0]\011/* SetFreedomAndProjectionVectorToAxis */
MDAP[1]\011/* MoveDirectAbsPt */
DELTAP1[ ]\011/* DeltaExceptionP1 */
SHP[0]\011/* ShiftPointByLastPoint */
MDAP[1]\011/* MoveDirectAbsPt */
DELTAP1[ ]\011/* DeltaExceptionP1 */
DELTAP1[ ]\011/* DeltaExceptionP1 */
SHP[1]\011/* ShiftPointByLastPoint */
IP[ ]\011/* InterpolatePts */
RTDG[ ]\011/* RoundToDoubleGrid */
MDAP[1]\011/* MoveDirectAbsPt */
SHP[1]\011/* ShiftPointByLastPoint */
SHP[1]\011/* ShiftPointByLastPoint */
SRP1[ ]\011/* SetRefPoint1 */
SRP2[ ]\011/* SetRefPoint2 */
SVTCA[1]\011/* SetFreedomAndProjectionVectorToAxis */
IP[ ]\011/* InterpolatePts */
IP[ ]\011/* InterpolatePts */
SRP1[ ]\011/* SetRefPoint1 */
SHP[1]\011/* ShiftPointByLastPoint */
SRP1[ ]\011/* SetRefPoint1 */
SHP[1]\011/* ShiftPointByLastPoint */
IUP[1]\011/* InterpolateUntPts */
IUP[0]\011/* InterpolateUntPts */";
};
width = 1229;
}
);
note = greater;
unicode = 003E;
},
{
glyphname = question;
lastChange = "2019-12-17 17:05:58 +0000";
layers = (
{
layerId = "1812DDDA-A435-4DB7-9993-49CCF378232E";
paths = (
{
closed = 1;
nodes = (
"1113 1162 OFFCURVE",
"837 1370 OFFCURVE",
"605 1370 QCURVE SMOOTH",
"381 1370 OFFCURVE",
"101 1144 OFFCURVE",
"74 941 QCURVE",
"359 929 LINE",
"371 1026 OFFCURVE",
"508 1144 OFFCURVE",
"609 1144 QCURVE SMOOTH",
"708 1144 OFFCURVE",
"830 1051 OFFCURVE",
"830 974 QCURVE SMOOTH",
"830 915 OFFCURVE",
"748 816 OFFCURVE",
"635 739 QCURVE SMOOTH",
"538 672 OFFCURVE",
"432 509 OFFCURVE",
"426 406 QCURVE",
"693 406 LINE",
"698 512 OFFCURVE",
"831 608 QCURVE SMOOTH",
"983 718 OFFCURVE",
"1068 813 OFFCURVE",
"1113 921 OFFCURVE",
"1113 986 QCURVE SMOOTH"
);
},
{
closed = 1;
nodes = (
"707 0 LINE",
"707 270 LINE",
"418 270 LINE",
"418 0 LINE"
);
}
);
userData = {
assembly = "NPUSHB[ ]\011/* 52 values pushed */
6 7 7 29 26 26 20 13 0 19 20 0 20 30 31 112 7 1 15 7 31 7 2 11 3 7 7 23 26 26 27 158 91 26 18 64 19 1 15 19 1 12 3 19 19 23 23 16 95 89 23 4 
SVTCA[0]\011/* SetFreedomAndProjectionVectorToAxis */
MIAP[1]\011/* MoveIndirectAbsPt */
CALL[ ]\011/* CallFunction */
SRP1[ ]\011/* SetRefPoint1 */
SVTCA[0]\011/* SetFreedomAndProjectionVectorToAxis */
SHP[1]\011/* ShiftPointByLastPoint */
RTG[ ]\011/* RoundToGrid */
MDAP[1]\011/* MoveDirectAbsPt */
SDS[ ]\011/* SetDeltaShiftInGState */
SDB[ ]\011/* SetDeltaBaseInGState */
DELTAP1[ ]\011/* DeltaExceptionP1 */
DELTAP1[ ]\011/* DeltaExceptionP1 */
MIAP[1]\011/* MoveIndirectAbsPt */
CALL[ ]\011/* CallFunction */
SRP1[ ]\011/* SetRefPoint1 */
SRP2[ ]\011/* SetRefPoint2 */
SVTCA[0]\011/* SetFreedomAndProjectionVectorToAxis */
IP[ ]\011/* InterpolatePts */
RTG[ ]\011/* RoundToGrid */
MDAP[1]\011/* MoveDirectAbsPt */
SDS[ ]\011/* SetDeltaShiftInGState */
SDB[ ]\011/* SetDeltaBaseInGState */
DELTAP1[ ]\011/* DeltaExceptionP1 */
DELTAP1[ ]\011/* DeltaExceptionP1 */
SRP1[ ]\011/* SetRefPoint1 */
SRP2[ ]\011/* SetRefPoint2 */
SVTCA[1]\011/* SetFreedomAndProjectionVectorToAxis */
IP[ ]\011/* InterpolatePts */
IP[ ]\011/* InterpolatePts */
SRP1[ ]\011/* SetRefPoint1 */
SHP[1]\011/* ShiftPointByLastPoint */
SRP1[ ]\011/* SetRefPoint1 */
SHP[1]\011/* ShiftPointByLastPoint */
SRP2[ ]\011/* SetRefPoint2 */
IP[ ]\011/* InterpolatePts */
SRP1[ ]\011/* SetRefPoint1 */
SHP[1]\011/* ShiftPointByLastPoint */
SHP[1]\011/* ShiftPointByLastPoint */
SRP1[ ]\011/* SetRefPoint1 */
SHP[1]\011/* ShiftPointByLastPoint */
IUP[1]\011/* InterpolateUntPts */
IUP[0]\011/* InterpolateUntPts */";
};
width = 1229;
}
);
note = question;
unicode = 003F;
},
{
glyphname = at;
lastChange = "2019-12-17 17:05:58 +0000";
layers = (
{
layerId = "1812DDDA-A435-4DB7-9993-49CCF378232E";
paths = (
{
closed = 1;
nodes = (
"1189 972 OFFCURVE",
"1063 1303 OFFCURVE",
"830 1484 OFFCURVE",
"672 1484 QCURVE SMOOTH",
"484 1484 OFFCURVE",
"198 1243 OFFCURVE",
"44 800 OFFCURVE",
"44 514 QCURVE SMOOTH",
"44 276 OFFCURVE",
"178 -89 OFFCURVE",
"429 -283 OFFCURVE",
"594 -283 QCURVE SMOOTH",
"713 -283 OFFCURVE",
"929 -193 OFFCURVE",
"1044 -94 QCURVE",
"973 3 LINE",
"872 -85 OFFCURVE",
"698 -155 OFFCURVE",
"604 -155 QCURVE SMOOTH",
"409 -155 OFFCURVE",
"180 206 OFFCURVE",
"180 514 QCURVE SMOOTH",
"180 753 OFFCURVE",
"299 1141 OFFCURVE",
"521 1358 OFFCURVE",
"670 1358 QCURVE SMOOTH",
"846 1358 OFFCURVE",
"1058 1024 OFFCURVE",
"1058 753 QCURVE SMOOTH",
"1058 513 OFFCURVE",
"965 226 OFFCURVE",
"891 226 QCURVE SMOOTH",
"862 226 OFFCURVE",
"842 260 OFFCURVE",
"842 294 QCURVE SMOOTH",
"842 362 OFFCURVE",
"882 572 QCURVE SMOOTH",
"981 1079 LINE",
"846 1079 LINE",
"813 928 LINE",
"808 928 LINE",
"794 1014 OFFCURVE",
"710 1101 OFFCURVE",
"644 1101 QCURVE SMOOTH",
"541 1101 OFFCURVE",
"374 936 OFFCURVE",
"277 650 OFFCURVE",
"277 489 QCURVE SMOOTH",
"277 304 OFFCURVE",
"396 104 OFFCURVE",
"502 104 QCURVE SMOOTH",
"575 104 OFFCURVE",
"701 215 OFFCURVE",
"737 309 QCURVE",
"743 309 LINE",
"741 270 LINE",
"741 261 LINE SMOOTH",
"741 104 OFFCURVE",
"884 104 QCURVE SMOOTH",
"1024 104 OFFCURVE",
"1189 457 OFFCURVE",
"1189 755 QCURVE SMOOTH"
);
},
{
closed = 1;
nodes = (
"755 716 OFFCURVE",
"699 402 OFFCURVE",
"596 230 OFFCURVE",
"526 230 QCURVE SMOOTH",
"432 230 OFFCURVE",
"432 491 QCURVE SMOOTH",
"432 612 OFFCURVE",
"488 842 OFFCURVE",
"586 979 OFFCURVE",
"646 979 QCURVE SMOOTH",
"755 979 OFFCURVE",
"755 784 QCURVE SMOOTH"
);
}
);
userData = {
assembly = "NPUSHB[ ]\011/* 73 values pushed */
40 54 68 14 24 27 27 62 23 5 33 0 0 47 5 14 54 5 74 75 30 70 11 70 213 89 46 46 43 7 3 11 18 64 213 89 23 22 18 15 11 31 11 95 11 111 11 127 11 5 11 0 18 1 12 3 11 18 11 18 50 58 58 36 213 89 58 0 50 43 213 89 50 
SVTCA[0]\011/* SetFreedomAndProjectionVectorToAxis */
MDAP[1]\011/* MoveDirectAbsPt */
CALL[ ]\011/* CallFunction */
SVTCA[0]\011/* SetFreedomAndProjectionVectorToAxis */
RTG[ ]\011/* RoundToGrid */
MIAP[1]\011/* MoveIndirectAbsPt */
CALL[ ]\011/* CallFunction */
SRP1[ ]\011/* SetRefPoint1 */
SRP2[ ]\011/* SetRefPoint2 */
SVTCA[0]\011/* SetFreedomAndProjectionVectorToAxis */
IP[ ]\011/* InterpolatePts */
IP[ ]\011/* InterpolatePts */
RTG[ ]\011/* RoundToGrid */
MDAP[1]\011/* MoveDirectAbsPt */
MDAP[1]\011/* MoveDirectAbsPt */
SDS[ ]\011/* SetDeltaShiftInGState */
SDB[ ]\011/* SetDeltaBaseInGState */
DELTAP1[ ]\011/* DeltaExceptionP1 */
SDB[ ]\011/* SetDeltaBaseInGState */
DELTAP1[ ]\011/* DeltaExceptionP1 */
SRP1[ ]\011/* SetRefPoint1 */
SHP[1]\011/* ShiftPointByLastPoint */
SHP[1]\011/* ShiftPointByLastPoint */
CALL[ ]\011/* CallFunction */
SRP1[ ]\011/* SetRefPoint1 */
SVTCA[0]\011/* SetFreedomAndProjectionVectorToAxis */
SHP[1]\011/* ShiftPointByLastPoint */
SHP[1]\011/* ShiftPointByLastPoint */
SRP2[ ]\011/* SetRefPoint2 */
IP[ ]\011/* InterpolatePts */
RTG[ ]\011/* RoundToGrid */
MDAP[1]\011/* MoveDirectAbsPt */
CALL[ ]\011/* CallFunction */
SRP1[ ]\011/* SetRefPoint1 */
SVTCA[0]\011/* SetFreedomAndProjectionVectorToAxis */
SHP[1]\011/* ShiftPointByLastPoint */
SRP1[ ]\011/* SetRefPoint1 */
SRP2[ ]\011/* SetRefPoint2 */
SVTCA[1]\011/* SetFreedomAndProjectionVectorToAxis */
SLOOP[ ]\011/* SetLoopVariable */
IP[ ]\011/* InterpolatePts */
SRP1[ ]\011/* SetRefPoint1 */
SHP[1]\011/* ShiftPointByLastPoint */
SRP1[ ]\011/* SetRefPoint1 */
SHP[1]\011/* ShiftPointByLastPoint */
SHP[1]\011/* ShiftPointByLastPoint */
SHP[1]\011/* ShiftPointByLastPoint */
SRP1[ ]\011/* SetRefPoint1 */
SHP[1]\011/* ShiftPointByLastPoint */
SRP1[ ]\011/* SetRefPoint1 */
SHP[1]\011/* ShiftPointByLastPoint */
SRP1[ ]\011/* SetRefPoint1 */
SHP[1]\011/* ShiftPointByLastPoint */
IUP[1]\011/* InterpolateUntPts */
IUP[0]\011/* InterpolateUntPts */";
};
width = 1229;
}
);
note = at;
unicode = 0040;
},
{
glyphname = A;
lastChange = "2019-12-17 17:05:58 +0000";
layers = (
{
layerId = "1812DDDA-A435-4DB7-9993-49CCF378232E";
paths = (
{
closed = 1;
nodes = (
"787 1349 LINE",
"443 1349 LINE",
"0 0 LINE",
"295 0 LINE",
"387 330 LINE",
"843 330 LINE",
"935 0 LINE",
"1229 0 LINE"
);
},
{
closed = 1;
nodes = (
"623 1126 OFFCURVE",
"664 964 OFFCURVE",
"781 552 QCURVE",
"449 552 LINE",
"564 958 OFFCURVE",
"607 1125 OFFCURVE",
"615 1167 QCURVE"
);
}
);
userData = {
assembly = "NPUSHB[ ]\011/* 27 values pushed */
11 3 4 4 5 7 6 12 2 8 1 1 0 0 8 5 3 15 16 11 3 97 89 101 8 1 8 
PUSHW[ ]\011/* 1 value pushed */
-48 
NPUSHB[ ]\011/* 12 values pushed */
9 14 72 8 6 11 11 6 3 4 0 18 
SVTCA[0]\011/* SetFreedomAndProjectionVectorToAxis */
MIAP[1]\011/* MoveIndirectAbsPt */
SHP[0]\011/* ShiftPointByLastPoint */
MIAP[1]\011/* MoveIndirectAbsPt */
IP[ ]\011/* InterpolatePts */
MDAP[1]\011/* MoveDirectAbsPt */
SRP2[ ]\011/* SetRefPoint2 */
IP[ ]\011/* InterpolatePts */
CALL[ ]\011/* CallFunction */
DELTAP1[ ]\011/* DeltaExceptionP1 */
CALL[ ]\011/* CallFunction */
SRP1[ ]\011/* SetRefPoint1 */
SRP2[ ]\011/* SetRefPoint2 */
SVTCA[1]\011/* SetFreedomAndProjectionVectorToAxis */
SLOOP[ ]\011/* SetLoopVariable */
IP[ ]\011/* InterpolatePts */
SRP1[ ]\011/* SetRefPoint1 */
SHP[1]\011/* ShiftPointByLastPoint */
SRP1[ ]\011/* SetRefPoint1 */
SRP2[ ]\011/* SetRefPoint2 */
IP[ ]\011/* InterpolatePts */
IP[ ]\011/* InterpolatePts */
SHP[0]\011/* ShiftPointByLastPoint */
SHP[0]\011/* ShiftPointByLastPoint */
SRP1[ ]\011/* SetRefPoint1 */
SHP[1]\011/* ShiftPointByLastPoint */
SRP1[ ]\011/* SetRefPoint1 */
IP[ ]\011/* InterpolatePts */
IP[ ]\011/* InterpolatePts */
IUP[1]\011/* InterpolateUntPts */
IUP[0]\011/* InterpolateUntPts */";
};
width = 1229;
}
);
note = A;
unicode = 0041;
},
{
glyphname = B;
lastChange = "2019-12-17 17:05:58 +0000";
layers = (
{
layerId = "1812DDDA-A435-4DB7-9993-49CCF378232E";
paths = (
{
closed = 1;
nodes = (
"1186 523 OFFCURVE",
"1007 691 OFFCURVE",
"836 709 QCURVE",
"973 738 OFFCURVE",
"1105 895 OFFCURVE",
"1105 1010 QCURVE SMOOTH",
"1105 1174 OFFCURVE",
"880 1349 OFFCURVE",
"662 1349 QCURVE SMOOTH",
"137 1349 LINE",
"137 0 LINE",
"719 0 LINE SMOOTH",
"938 0 OFFCURVE",
"1186 204 OFFCURVE",
"1186 385 QCURVE SMOOTH"
);
},
{
closed = 1;
nodes = (
"808 811 OFFCURVE",
"643 811 QCURVE SMOOTH",
"432 811 LINE",
"432 1130 LINE",
"641 1130 LINE SMOOTH",
"808 1130 OFFCURVE",
"808 970 QCURVE SMOOTH"
);
},
{
closed = 1;
nodes = (
"889 219 OFFCURVE",
"689 219 QCURVE SMOOTH",
"432 219 LINE",
"432 593 LINE",
"682 593 LINE SMOOTH",
"783 593 OFFCURVE",
"889 498 OFFCURVE",
"889 410 QCURVE SMOOTH"
);
}
);
userData = {
assembly = "NPUSHB[ ]\011/* 52 values pushed */
12 27 15 9 9 4 0 19 27 27 4 22 0 4 0 30 31 12 19 26 19 26 97 89 139 19 155 19 2 13 19 29 19 2 13 4 19 19 4 5 5 18 97 89 5 3 4 27 97 89 4 18 
SVTCA[0]\011/* SetFreedomAndProjectionVectorToAxis */
MIAP[1]\011/* MoveIndirectAbsPt */
CALL[ ]\011/* CallFunction */
SVTCA[0]\011/* SetFreedomAndProjectionVectorToAxis */
RTG[ ]\011/* RoundToGrid */
MIAP[1]\011/* MoveIndirectAbsPt */
CALL[ ]\011/* CallFunction */
SRP1[ ]\011/* SetRefPoint1 */
SRP2[ ]\011/* SetRefPoint2 */
SVTCA[0]\011/* SetFreedomAndProjectionVectorToAxis */
IP[ ]\011/* InterpolatePts */
RTG[ ]\011/* RoundToGrid */
MDAP[1]\011/* MoveDirectAbsPt */
SDS[ ]\011/* SetDeltaShiftInGState */
SDB[ ]\011/* SetDeltaBaseInGState */
DELTAP1[ ]\011/* DeltaExceptionP1 */
DELTAP1[ ]\011/* DeltaExceptionP1 */
CALL[ ]\011/* CallFunction */
SRP1[ ]\011/* SetRefPoint1 */
SRP2[ ]\011/* SetRefPoint2 */
SVTCA[0]\011/* SetFreedomAndProjectionVectorToAxis */
IP[ ]\011/* InterpolatePts */
SRP1[ ]\011/* SetRefPoint1 */
SRP2[ ]\011/* SetRefPoint2 */
SVTCA[1]\011/* SetFreedomAndProjectionVectorToAxis */
IP[ ]\011/* InterpolatePts */
IP[ ]\011/* InterpolatePts */
SRP1[ ]\011/* SetRefPoint1 */
SHP[1]\011/* ShiftPointByLastPoint */
SRP1[ ]\011/* SetRefPoint1 */
SHP[1]\011/* ShiftPointByLastPoint */
SRP1[ ]\011/* SetRefPoint1 */
SHP[1]\011/* ShiftPointByLastPoint */
SRP1[ ]\011/* SetRefPoint1 */
SRP2[ ]\011/* SetRefPoint2 */
IP[ ]\011/* InterpolatePts */
SRP1[ ]\011/* SetRefPoint1 */
SHP[1]\011/* ShiftPointByLastPoint */
SRP2[ ]\011/* SetRefPoint2 */
IP[ ]\011/* InterpolatePts */
IUP[1]\011/* InterpolateUntPts */
IUP[0]\011/* InterpolateUntPts */";
};
width = 1229;
}
);
note = B;
unicode = 0042;
},
{
glyphname = C;
lastChange = "2019-12-17 17:05:58 +0000";
layers = (
{
layerId = "1812DDDA-A435-4DB7-9993-49CCF378232E";
paths = (
{
closed = 1;
nodes = (
"380 1138 OFFCURVE",
"652 1138 QCURVE SMOOTH",
"727 1138 OFFCURVE",
"843 1021 OFFCURVE",
"872 915 QCURVE",
"1144 981 LINE",
"1085 1174 OFFCURVE",
"834 1370 OFFCURVE",
"648 1370 QCURVE SMOOTH",
"80 1370 OFFCURVE",
"80 681 QCURVE SMOOTH",
"80 337 OFFCURVE",
"375 -20 OFFCURVE",
"656 -20 QCURVE SMOOTH",
"1039 -20 OFFCURVE",
"1172 404 QCURVE",
"899 456 LINE",
"821 212 OFFCURVE",
"659 212 QCURVE SMOOTH",
"520 212 OFFCURVE",
"380 456 OFFCURVE",
"380 681 QCURVE SMOOTH"
);
}
);
userData = {
assembly = "NPUSHB[ ]\011/* 45 values pushed */
0 11 17 16 16 5 6 11 6 22 23 13 20 95 89 31 17 1 17 17 13 4 16 5 1 0 5 16 5 144 5 208 5 4 11 3 5 5 8 8 3 95 89 8 19 
SVTCA[0]\011/* SetFreedomAndProjectionVectorToAxis */
MIAP[1]\011/* MoveIndirectAbsPt */
CALL[ ]\011/* CallFunction */
SRP1[ ]\011/* SetRefPoint1 */
SVTCA[0]\011/* SetFreedomAndProjectionVectorToAxis */
SHP[1]\011/* ShiftPointByLastPoint */
RTG[ ]\011/* RoundToGrid */
MDAP[1]\011/* MoveDirectAbsPt */
SDS[ ]\011/* SetDeltaShiftInGState */
SDB[ ]\011/* SetDeltaBaseInGState */
DELTAP1[ ]\011/* DeltaExceptionP1 */
DELTAP2[ ]\011/* DeltaExceptionP2 */
MIAP[1]\011/* MoveIndirectAbsPt */
SHP[1]\011/* ShiftPointByLastPoint */
MDAP[1]\011/* MoveDirectAbsPt */
DELTAP1[ ]\011/* DeltaExceptionP1 */
CALL[ ]\011/* CallFunction */
SRP1[ ]\011/* SetRefPoint1 */
SRP2[ ]\011/* SetRefPoint2 */
SVTCA[1]\011/* SetFreedomAndProjectionVectorToAxis */
IP[ ]\011/* InterpolatePts */
IP[ ]\011/* InterpolatePts */
SRP1[ ]\011/* SetRefPoint1 */
SHP[1]\011/* ShiftPointByLastPoint */
SHP[1]\011/* ShiftPointByLastPoint */
SRP1[ ]\011/* SetRefPoint1 */
SHP[1]\011/* ShiftPointByLastPoint */
SRP1[ ]\011/* SetRefPoint1 */
SHP[1]\011/* ShiftPointByLastPoint */
IUP[1]\011/* InterpolateUntPts */
IUP[0]\011/* InterpolateUntPts */";
};
width = 1229;
}
);
note = C;
unicode = 0043;
},
{
glyphname = D;
lastChange = "2019-12-17 17:05:58 +0000";
layers = (
{
layerId = "1812DDDA-A435-4DB7-9993-49CCF378232E";
paths = (
{
closed = 1;
nodes = (
"1149 1020 OFFCURVE",
"824 1349 OFFCURVE",
"496 1349 QCURVE SMOOTH",
"135 1349 LINE",
"135 0 LINE",
"556 0 LINE SMOOTH",
"841 0 OFFCURVE",
"1149 355 OFFCURVE",
"1149 685 QCURVE SMOOTH"
);
},
{
closed = 1;
nodes = (
"852 228 OFFCURVE",
"532 228 QCURVE SMOOTH",
"430 228 LINE",
"430 1121 LINE",
"491 1121 LINE SMOOTH",
"681 1121 OFFCURVE",
"852 912 OFFCURVE",
"852 685 QCURVE SMOOTH"
);
}
);
userData = {
assembly = "NPUSHB[ ]\011/* 20 values pushed */
14 4 9 0 4 0 17 18 5 13 95 89 5 3 4 14 95 89 4 18 
SVTCA[0]\011/* SetFreedomAndProjectionVectorToAxis */
MIAP[1]\011/* MoveIndirectAbsPt */
CALL[ ]\011/* CallFunction */
SVTCA[0]\011/* SetFreedomAndProjectionVectorToAxis */
RTG[ ]\011/* RoundToGrid */
MIAP[1]\011/* MoveIndirectAbsPt */
CALL[ ]\011/* CallFunction */
SRP1[ ]\011/* SetRefPoint1 */
SRP2[ ]\011/* SetRefPoint2 */
SVTCA[1]\011/* SetFreedomAndProjectionVectorToAxis */
IP[ ]\011/* InterpolatePts */
IP[ ]\011/* InterpolatePts */
SRP1[ ]\011/* SetRefPoint1 */
SHP[1]\011/* ShiftPointByLastPoint */
SRP1[ ]\011/* SetRefPoint1 */
SHP[1]\011/* ShiftPointByLastPoint */
IUP[1]\011/* InterpolateUntPts */
IUP[0]\011/* InterpolateUntPts */";
};
width = 1229;
}
);
note = D;
unicode = 0044;
},
{
glyphname = E;
lastChange = "2019-12-17 17:05:58 +0000";
layers = (
{
layerId = "1812DDDA-A435-4DB7-9993-49CCF378232E";
paths = (
{
closed = 1;
nodes = (
"1146 0 LINE",
"1146 228 LINE",
"432 228 LINE",
"432 569 LINE",
"1044 569 LINE",
"1044 797 LINE",
"432 797 LINE",
"432 1121 LINE",
"1105 1121 LINE",
"1105 1349 LINE",
"137 1349 LINE",
"137 0 LINE"
);
}
);
userData = {
assembly = "NPUSHB[ ]\011/* 57 values pushed */
7 3 10 5 9 9 0 0 10 12 13 5 8 95 89 47 5 1 223 5 239 5 2 3 173 5 189 5 2 61 5 1 46 5 1 4 15 5 1 11 5 5 5 0 1 1 4 95 89 1 3 0 9 95 89 0 18 
SVTCA[0]\011/* SetFreedomAndProjectionVectorToAxis */
MIAP[1]\011/* MoveIndirectAbsPt */
CALL[ ]\011/* CallFunction */
SVTCA[0]\011/* SetFreedomAndProjectionVectorToAxis */
RTG[ ]\011/* RoundToGrid */
MIAP[1]\011/* MoveIndirectAbsPt */
CALL[ ]\011/* CallFunction */
SRP1[ ]\011/* SetRefPoint1 */
SRP2[ ]\011/* SetRefPoint2 */
SVTCA[0]\011/* SetFreedomAndProjectionVectorToAxis */
IP[ ]\011/* InterpolatePts */
RTG[ ]\011/* RoundToGrid */
MDAP[1]\011/* MoveDirectAbsPt */
SDS[ ]\011/* SetDeltaShiftInGState */
SDB[ ]\011/* SetDeltaBaseInGState */
DELTAP1[ ]\011/* DeltaExceptionP1 */
SDS[ ]\011/* SetDeltaShiftInGState */
DELTAP1[ ]\011/* DeltaExceptionP1 */
DELTAP1[ ]\011/* DeltaExceptionP1 */
DELTAP1[ ]\011/* DeltaExceptionP1 */
SDS[ ]\011/* SetDeltaShiftInGState */
DELTAP1[ ]\011/* DeltaExceptionP1 */
DELTAP2[ ]\011/* DeltaExceptionP2 */
CALL[ ]\011/* CallFunction */
SRP1[ ]\011/* SetRefPoint1 */
SRP2[ ]\011/* SetRefPoint2 */
SVTCA[1]\011/* SetFreedomAndProjectionVectorToAxis */
IP[ ]\011/* InterpolatePts */
IP[ ]\011/* InterpolatePts */
SRP1[ ]\011/* SetRefPoint1 */
SHP[1]\011/* ShiftPointByLastPoint */
SRP1[ ]\011/* SetRefPoint1 */
SHP[1]\011/* ShiftPointByLastPoint */
SRP2[ ]\011/* SetRefPoint2 */
IP[ ]\011/* InterpolatePts */
IP[ ]\011/* InterpolatePts */
IUP[1]\011/* InterpolateUntPts */
IUP[0]\011/* InterpolateUntPts */";
};
width = 1229;
}
);
note = E;
unicode = 0045;
},
{
glyphname = F;
lastChange = "2019-12-17 17:05:58 +0000";
layers = (
{
layerId = "1812DDDA-A435-4DB7-9993-49CCF378232E";
paths = (
{
closed = 1;
nodes = (
"1106 1121 LINE",
"1106 1349 LINE",
"167 1349 LINE",
"167 0 LINE",
"462 0 LINE",
"462 509 LINE",
"1083 509 LINE",
"1083 737 LINE",
"462 737 LINE",
"462 1121 LINE"
);
}
);
userData = {
assembly = "NPUSHB[ ]\011/* 46 values pushed */
2 8 1 5 5 6 6 8 10 11 1 4 95 89 15 1 63 1 79 1 95 1 127 1 143 1 6 12 3 1 64 23 29 72 1 1 5 7 7 0 95 89 7 3 5 18 
SVTCA[0]\011/* SetFreedomAndProjectionVectorToAxis */
MIAP[1]\011/* MoveIndirectAbsPt */
MIAP[1]\011/* MoveIndirectAbsPt */
CALL[ ]\011/* CallFunction */
SRP1[ ]\011/* SetRefPoint1 */
SRP2[ ]\011/* SetRefPoint2 */
SVTCA[0]\011/* SetFreedomAndProjectionVectorToAxis */
IP[ ]\011/* InterpolatePts */
RTG[ ]\011/* RoundToGrid */
MDAP[1]\011/* MoveDirectAbsPt */
CALL[ ]\011/* CallFunction */
SDS[ ]\011/* SetDeltaShiftInGState */
SDB[ ]\011/* SetDeltaBaseInGState */
DELTAP1[ ]\011/* DeltaExceptionP1 */
CALL[ ]\011/* CallFunction */
SRP1[ ]\011/* SetRefPoint1 */
SRP2[ ]\011/* SetRefPoint2 */
SVTCA[1]\011/* SetFreedomAndProjectionVectorToAxis */
IP[ ]\011/* InterpolatePts */
IP[ ]\011/* InterpolatePts */
SRP1[ ]\011/* SetRefPoint1 */
SHP[1]\011/* ShiftPointByLastPoint */
SRP1[ ]\011/* SetRefPoint1 */
SHP[1]\011/* ShiftPointByLastPoint */
SRP2[ ]\011/* SetRefPoint2 */
IP[ ]\011/* InterpolatePts */
IUP[1]\011/* InterpolateUntPts */
IUP[0]\011/* InterpolateUntPts */";
};
width = 1229;
}
);
note = F;
unicode = 0046;
},
{
glyphname = G;
lastChange = "2019-12-17 17:05:58 +0000";
layers = (
{
layerId = "1812DDDA-A435-4DB7-9993-49CCF378232E";
paths = (
{
closed = 1;
nodes = (
"1128 743 LINE",
"584 743 LINE",
"584 525 LINE",
"858 525 LINE",
"858 290 LINE",
"816 256 OFFCURVE",
"703 216 OFFCURVE",
"650 216 QCURVE SMOOTH",
"513 216 OFFCURVE",
"379 458 OFFCURVE",
"379 681 QCURVE SMOOTH",
"379 922 OFFCURVE",
"506 1138 OFFCURVE",
"641 1138 QCURVE SMOOTH",
"773 1138 OFFCURVE",
"826 941 QCURVE",
"1100 995 LINE",
"1046 1184 OFFCURVE",
"818 1370 OFFCURVE",
"638 1370 QCURVE SMOOTH",
"80 1370 OFFCURVE",
"80 681 QCURVE SMOOTH",
"80 347 OFFCURVE",
"374 -20 OFFCURVE",
"635 -20 QCURVE SMOOTH",
"885 -20 OFFCURVE",
"1128 185 QCURVE"
);
}
);
userData = {
assembly = "NPUSHB[ ]\011/* 41 values pushed */
16 5 11 10 10 22 0 5 0 27 28 25 24 97 89 25 25 2 7 7 13 95 89 64 11 1 15 11 1 12 3 11 11 7 4 2 19 95 89 2 19 
SVTCA[0]\011/* SetFreedomAndProjectionVectorToAxis */
MIAP[1]\011/* MoveIndirectAbsPt */
CALL[ ]\011/* CallFunction */
SVTCA[0]\011/* SetFreedomAndProjectionVectorToAxis */
RTG[ ]\011/* RoundToGrid */
MIAP[1]\011/* MoveIndirectAbsPt */
SHP[1]\011/* ShiftPointByLastPoint */
MDAP[1]\011/* MoveDirectAbsPt */
SDS[ ]\011/* SetDeltaShiftInGState */
SDB[ ]\011/* SetDeltaBaseInGState */
DELTAP1[ ]\011/* DeltaExceptionP1 */
DELTAP1[ ]\011/* DeltaExceptionP1 */
CALL[ ]\011/* CallFunction */
SRP1[ ]\011/* SetRefPoint1 */
SRP2[ ]\011/* SetRefPoint2 */
SVTCA[0]\011/* SetFreedomAndProjectionVectorToAxis */
IP[ ]\011/* InterpolatePts */
RTG[ ]\011/* RoundToGrid */
MDAP[1]\011/* MoveDirectAbsPt */
CALL[ ]\011/* CallFunction */
SRP1[ ]\011/* SetRefPoint1 */
SRP2[ ]\011/* SetRefPoint2 */
SVTCA[1]\011/* SetFreedomAndProjectionVectorToAxis */
IP[ ]\011/* InterpolatePts */
IP[ ]\011/* InterpolatePts */
SRP1[ ]\011/* SetRefPoint1 */
SHP[1]\011/* ShiftPointByLastPoint */
SHP[1]\011/* ShiftPointByLastPoint */
SRP1[ ]\011/* SetRefPoint1 */
SHP[1]\011/* ShiftPointByLastPoint */
SRP1[ ]\011/* SetRefPoint1 */
SHP[1]\011/* ShiftPointByLastPoint */
IUP[1]\011/* InterpolateUntPts */
IUP[0]\011/* InterpolateUntPts */";
};
width = 1229;
}
);
note = G;
unicode = 0047;
},
{
glyphname = H;
lastChange = "2019-12-17 17:05:58 +0000";
layers = (
{
layerId = "1812DDDA-A435-4DB7-9993-49CCF378232E";
paths = (
{
closed = 1;
nodes = (
"1091 0 LINE",
"1091 1349 LINE",
"796 1349 LINE",
"796 818 LINE",
"433 818 LINE",
"433 1349 LINE",
"138 1349 LINE",
"138 0 LINE",
"433 0 LINE",
"433 574 LINE",
"796 574 LINE",
"796 0 LINE"
);
}
);
userData = {
assembly = "NPUSHB[ ]\011/* 42 values pushed */
8 0 0 11 7 3 3 4 11 4 13 12 7 2 96 89 220 7 1 203 7 1 152 7 1 92 7 1 75 7 1 42 7 1 7 7 9 5 3 4 0 18 
SVTCA[0]\011/* SetFreedomAndProjectionVectorToAxis */
MIAP[1]\011/* MoveIndirectAbsPt */
SHP[0]\011/* ShiftPointByLastPoint */
MIAP[1]\011/* MoveIndirectAbsPt */
SHP[1]\011/* ShiftPointByLastPoint */
IP[ ]\011/* InterpolatePts */
MDAP[1]\011/* MoveDirectAbsPt */
DELTAP1[ ]\011/* DeltaExceptionP1 */
DELTAP1[ ]\011/* DeltaExceptionP1 */
DELTAP1[ ]\011/* DeltaExceptionP1 */
DELTAP1[ ]\011/* DeltaExceptionP1 */
DELTAP1[ ]\011/* DeltaExceptionP1 */
DELTAP1[ ]\011/* DeltaExceptionP1 */
CALL[ ]\011/* CallFunction */
SRP1[ ]\011/* SetRefPoint1 */
SRP2[ ]\011/* SetRefPoint2 */
SVTCA[1]\011/* SetFreedomAndProjectionVectorToAxis */
IP[ ]\011/* InterpolatePts */
IP[ ]\011/* InterpolatePts */
SRP1[ ]\011/* SetRefPoint1 */
SHP[1]\011/* ShiftPointByLastPoint */
SRP1[ ]\011/* SetRefPoint1 */
SHP[1]\011/* ShiftPointByLastPoint */
SRP1[ ]\011/* SetRefPoint1 */
SHP[1]\011/* ShiftPointByLastPoint */
SRP1[ ]\011/* SetRefPoint1 */
SHP[1]\011/* ShiftPointByLastPoint */
IUP[1]\011/* InterpolateUntPts */
IUP[0]\011/* InterpolateUntPts */";
};
width = 1229;
}
);
note = H;
unicode = 0048;
},
{
glyphname = I;
lastChange = "2019-12-17 17:05:58 +0000";
layers = (
{
layerId = "1812DDDA-A435-4DB7-9993-49CCF378232E";
paths = (
{
closed = 1;
nodes = (
"157 1121 LINE",
"468 1121 LINE",
"468 228 LINE",
"157 228 LINE",
"157 0 LINE",
"1073 0 LINE",
"1073 228 LINE",
"762 228 LINE",
"762 1121 LINE",
"1073 1121 LINE",
"1073 1349 LINE",
"157 1349 LINE"
);
}
);
userData = {
assembly = "NPUSHB[ ]\011/* 28 values pushed */
0 8 1 5 5 4 8 4 9 9 12 13 4 8 7 8 95 89 7 18 3 11 0 11 95 89 0 3 
SVTCA[0]\011/* SetFreedomAndProjectionVectorToAxis */
MIAP[1]\011/* MoveIndirectAbsPt */
CALL[ ]\011/* CallFunction */
SRP1[ ]\011/* SetRefPoint1 */
SVTCA[0]\011/* SetFreedomAndProjectionVectorToAxis */
SHP[1]\011/* ShiftPointByLastPoint */
RTG[ ]\011/* RoundToGrid */
MIAP[1]\011/* MoveIndirectAbsPt */
CALL[ ]\011/* CallFunction */
SRP1[ ]\011/* SetRefPoint1 */
SVTCA[0]\011/* SetFreedomAndProjectionVectorToAxis */
SHP[1]\011/* ShiftPointByLastPoint */
SRP1[ ]\011/* SetRefPoint1 */
SRP2[ ]\011/* SetRefPoint2 */
SVTCA[1]\011/* SetFreedomAndProjectionVectorToAxis */
IP[ ]\011/* InterpolatePts */
SRP1[ ]\011/* SetRefPoint1 */
SHP[1]\011/* ShiftPointByLastPoint */
SHP[1]\011/* ShiftPointByLastPoint */
SRP1[ ]\011/* SetRefPoint1 */
SHP[1]\011/* ShiftPointByLastPoint */
SRP1[ ]\011/* SetRefPoint1 */
SHP[1]\011/* ShiftPointByLastPoint */
SRP1[ ]\011/* SetRefPoint1 */
SHP[1]\011/* ShiftPointByLastPoint */
IUP[1]\011/* InterpolateUntPts */
IUP[0]\011/* InterpolateUntPts */";
};
width = 1229;
}
);
note = I;
unicode = 0049;
},
{
glyphname = J;
lastChange = "2019-12-17 17:05:58 +0000";
layers = (
{
layerId = "1812DDDA-A435-4DB7-9993-49CCF378232E";
paths = (
{
closed = 1;
nodes = (
"777 -20 OFFCURVE",
"1019 228 OFFCURVE",
"1019 446 QCURVE SMOOTH",
"1019 1349 LINE",
"424 1349 LINE",
"424 1118 LINE",
"725 1118 LINE",
"725 439 LINE SMOOTH",
"725 329 OFFCURVE",
"639 211 OFFCURVE",
"566 211 QCURVE SMOOTH",
"503 211 OFFCURVE",
"413 327 OFFCURVE",
"393 445 QCURVE",
"102 402 LINE",
"132 198 OFFCURVE",
"368 -20 OFFCURVE",
"564 -20 QCURVE SMOOTH"
);
}
);
userData = {
assembly = "NPUSHB[ ]\011/* 27 values pushed */
4 3 11 14 3 14 18 19 13 12 95 89 13 3 0 7 95 89 32 4 48 4 2 4 4 0 19 
SVTCA[0]\011/* SetFreedomAndProjectionVectorToAxis */
MIAP[1]\011/* MoveIndirectAbsPt */
SHP[0]\011/* ShiftPointByLastPoint */
MDAP[1]\011/* MoveDirectAbsPt */
DELTAP1[ ]\011/* DeltaExceptionP1 */
CALL[ ]\011/* CallFunction */
SVTCA[0]\011/* SetFreedomAndProjectionVectorToAxis */
RTG[ ]\011/* RoundToGrid */
MIAP[1]\011/* MoveIndirectAbsPt */
CALL[ ]\011/* CallFunction */
SRP1[ ]\011/* SetRefPoint1 */
SRP2[ ]\011/* SetRefPoint2 */
SVTCA[1]\011/* SetFreedomAndProjectionVectorToAxis */
IP[ ]\011/* InterpolatePts */
IP[ ]\011/* InterpolatePts */
SRP1[ ]\011/* SetRefPoint1 */
SHP[1]\011/* ShiftPointByLastPoint */
SRP1[ ]\011/* SetRefPoint1 */
SHP[1]\011/* ShiftPointByLastPoint */
IUP[1]\011/* InterpolateUntPts */
IUP[0]\011/* InterpolateUntPts */";
};
width = 1229;
}
);
note = J;
unicode = 004A;
},
{
glyphname = K;
lastChange = "2019-12-17 17:05:58 +0000";
layers = (
{
layerId = "1812DDDA-A435-4DB7-9993-49CCF378232E";
paths = (
{
closed = 1;
nodes = (
"1229 0 LINE",
"750 770 LINE",
"1210 1349 LINE",
"867 1349 LINE",
"431 750 LINE",
"431 1349 LINE",
"136 1349 LINE",
"136 0 LINE",
"431 0 LINE",
"431 415 LINE",
"558 557 LINE",
"881 0 LINE"
);
}
);
userData = {
assembly = "NPUSHB[ ]\011/* 35 values pushed */
10 1 9 3 9 11 7 2 3 3 4 11 4 12 13 95 2 1 77 2 1 2 1 7 10 4 4 9 8 5 3 11 0 4 18 
SVTCA[0]\011/* SetFreedomAndProjectionVectorToAxis */
MIAP[1]\011/* MoveIndirectAbsPt */
SHP[1]\011/* ShiftPointByLastPoint */
SHP[1]\011/* ShiftPointByLastPoint */
MIAP[1]\011/* MoveIndirectAbsPt */
SHP[1]\011/* ShiftPointByLastPoint */
SHP[1]\011/* ShiftPointByLastPoint */
SRP2[ ]\011/* SetRefPoint2 */
SLOOP[ ]\011/* SetLoopVariable */
IP[ ]\011/* InterpolatePts */
DELTAP1[ ]\011/* DeltaExceptionP1 */
DELTAP1[ ]\011/* DeltaExceptionP1 */
SRP1[ ]\011/* SetRefPoint1 */
SRP2[ ]\011/* SetRefPoint2 */
SVTCA[1]\011/* SetFreedomAndProjectionVectorToAxis */
IP[ ]\011/* InterpolatePts */
IP[ ]\011/* InterpolatePts */
SRP1[ ]\011/* SetRefPoint1 */
SHP[1]\011/* ShiftPointByLastPoint */
SRP1[ ]\011/* SetRefPoint1 */
SHP[1]\011/* ShiftPointByLastPoint */
SHP[1]\011/* ShiftPointByLastPoint */
SRP1[ ]\011/* SetRefPoint1 */
SHP[1]\011/* ShiftPointByLastPoint */
SRP1[ ]\011/* SetRefPoint1 */
SRP2[ ]\011/* SetRefPoint2 */
IP[ ]\011/* InterpolatePts */
IP[ ]\011/* InterpolatePts */
IUP[1]\011/* InterpolateUntPts */
IUP[0]\011/* InterpolateUntPts */";
};
width = 1229;
}
);
note = K;
unicode = 004B;
},
{
glyphname = L;
lastChange = "2019-12-17 17:05:58 +0000";
layers = (
{
layerId = "1812DDDA-A435-4DB7-9993-49CCF378232E";
paths = (
{
closed = 1;
nodes = (
"1122 0 LINE",
"1122 228 LINE",
"506 228 LINE",
"506 1349 LINE",
"211 1349 LINE",
"211 0 LINE"
);
}
);
userData = {
assembly = "NPUSHB[ ]\011/* 14 values pushed */
3 0 0 5 6 7 1 3 0 3 95 89 0 18 
SVTCA[0]\011/* SetFreedomAndProjectionVectorToAxis */
MIAP[1]\011/* MoveIndirectAbsPt */
CALL[ ]\011/* CallFunction */
SVTCA[0]\011/* SetFreedomAndProjectionVectorToAxis */
RTG[ ]\011/* RoundToGrid */
MIAP[1]\011/* MoveIndirectAbsPt */
SRP1[ ]\011/* SetRefPoint1 */
SRP2[ ]\011/* SetRefPoint2 */
SVTCA[1]\011/* SetFreedomAndProjectionVectorToAxis */
IP[ ]\011/* InterpolatePts */
IP[ ]\011/* InterpolatePts */
SRP1[ ]\011/* SetRefPoint1 */
SHP[1]\011/* ShiftPointByLastPoint */
IUP[1]\011/* InterpolateUntPts */
IUP[0]\011/* InterpolateUntPts */";
};
width = 1229;
}
);
note = L;
unicode = 004C;
},
{
glyphname = M;
lastChange = "2019-12-17 17:05:58 +0000";
layers = (
{
layerId = "1812DDDA-A435-4DB7-9993-49CCF378232E";
paths = (
{
closed = 1;
nodes = (
"1130 0 LINE",
"1130 1349 LINE",
"795 1349 LINE",
"659 849 LINE SMOOTH",
"639 774 OFFCURVE",
"619 619 QCURVE",
"596 803 OFFCURVE",
"581 850 QCURVE",
"446 1349 LINE",
"99 1349 LINE",
"99 0 LINE",
"319 0 LINE",
"319 868 LINE SMOOTH",
"319 964 OFFCURVE",
"312 1069 QCURVE SMOOTH",
"305 1169 LINE",
"352 936 OFFCURVE",
"381 828 QCURVE SMOOTH",
"507 360 LINE",
"725 360 LINE",
"849 828 LINE",
"865 879 OFFCURVE",
"924 1169 QCURVE",
"908 973 OFFCURVE",
"908 868 QCURVE SMOOTH",
"908 0 LINE"
);
}
);
userData = {
assembly = "NPUSHB[ ]\011/* 41 values pushed */
22 17 1 17 10 14 14 15 7 6 20 25 23 1 23 3 0 0 25 25 20 15 3 26 27 3 10 10 16 22 20 1 20 7 7 23 16 3 15 0 18 
SVTCA[0]\011/* SetFreedomAndProjectionVectorToAxis */
MIAP[1]\011/* MoveIndirectAbsPt */
SHP[0]\011/* ShiftPointByLastPoint */
MIAP[1]\011/* MoveIndirectAbsPt */
SHP[1]\011/* ShiftPointByLastPoint */
IP[ ]\011/* InterpolatePts */
MDAP[1]\011/* MoveDirectAbsPt */
SHP[1]\011/* ShiftPointByLastPoint */
DELTAP1[ ]\011/* DeltaExceptionP1 */
SRP1[ ]\011/* SetRefPoint1 */
SHP[1]\011/* ShiftPointByLastPoint */
SRP1[ ]\011/* SetRefPoint1 */
SHP[1]\011/* ShiftPointByLastPoint */
SRP1[ ]\011/* SetRefPoint1 */
SRP2[ ]\011/* SetRefPoint2 */
SVTCA[1]\011/* SetFreedomAndProjectionVectorToAxis */
SLOOP[ ]\011/* SetLoopVariable */
IP[ ]\011/* InterpolatePts */
SRP1[ ]\011/* SetRefPoint1 */
SHP[1]\011/* ShiftPointByLastPoint */
SRP1[ ]\011/* SetRefPoint1 */
SHP[1]\011/* ShiftPointByLastPoint */
SHP[1]\011/* ShiftPointByLastPoint */
DELTAP1[ ]\011/* DeltaExceptionP1 */
SRP1[ ]\011/* SetRefPoint1 */
SHP[1]\011/* ShiftPointByLastPoint */
SHP[1]\011/* ShiftPointByLastPoint */
SRP1[ ]\011/* SetRefPoint1 */
SHP[1]\011/* ShiftPointByLastPoint */
SRP1[ ]\011/* SetRefPoint1 */
SHP[1]\011/* ShiftPointByLastPoint */
SHP[1]\011/* ShiftPointByLastPoint */
DELTAP1[ ]\011/* DeltaExceptionP1 */
IUP[1]\011/* InterpolateUntPts */
IUP[0]\011/* InterpolateUntPts */";
};
width = 1229;
}
);
note = M;
unicode = 004D;
},
{
glyphname = N;
lastChange = "2019-12-17 17:05:58 +0000";
layers = (
{
layerId = "1812DDDA-A435-4DB7-9993-49CCF378232E";
paths = (
{
closed = 1;
nodes = (
"1094 0 LINE",
"1094 1349 LINE",
"837 1349 LINE",
"837 677 LINE SMOOTH",
"837 547 OFFCURVE",
"865 312 QCURVE",
"472 1349 LINE",
"135 1349 LINE",
"135 0 LINE",
"392 0 LINE",
"392 656 LINE SMOOTH",
"392 758 OFFCURVE",
"364 1010 QCURVE",
"748 0 LINE"
);
}
);
userData = {
assembly = "NPUSHB[ ]\011/* 22 values pushed */
7 1 4 4 5 8 0 11 11 12 5 12 14 15 11 1 6 3 8 5 0 18 
SVTCA[0]\011/* SetFreedomAndProjectionVectorToAxis */
MIAP[1]\011/* MoveIndirectAbsPt */
SHP[0]\011/* ShiftPointByLastPoint */
SHP[0]\011/* ShiftPointByLastPoint */
MIAP[1]\011/* MoveIndirectAbsPt */
SHP[1]\011/* ShiftPointByLastPoint */
SHP[1]\011/* ShiftPointByLastPoint */
SRP1[ ]\011/* SetRefPoint1 */
SRP2[ ]\011/* SetRefPoint2 */
SVTCA[1]\011/* SetFreedomAndProjectionVectorToAxis */
IP[ ]\011/* InterpolatePts */
IP[ ]\011/* InterpolatePts */
SRP1[ ]\011/* SetRefPoint1 */
SHP[1]\011/* ShiftPointByLastPoint */
SRP1[ ]\011/* SetRefPoint1 */
SHP[1]\011/* ShiftPointByLastPoint */
SHP[1]\011/* ShiftPointByLastPoint */
SRP1[ ]\011/* SetRefPoint1 */
SHP[1]\011/* ShiftPointByLastPoint */
SRP1[ ]\011/* SetRefPoint1 */
SHP[1]\011/* ShiftPointByLastPoint */
SHP[1]\011/* ShiftPointByLastPoint */
IUP[1]\011/* InterpolateUntPts */
IUP[0]\011/* InterpolateUntPts */";
};
width = 1229;
}
);
note = N;
unicode = 004E;
},
{
glyphname = O;
lastChange = "2019-12-17 17:05:58 +0000";
layers = (
{
layerId = "1812DDDA-A435-4DB7-9993-49CCF378232E";
paths = (
{
closed = 1;
nodes = (
"1157 1024 OFFCURVE",
"877 1370 OFFCURVE",
"615 1370 QCURVE SMOOTH",
"353 1370 OFFCURVE",
"72 1024 OFFCURVE",
"72 679 QCURVE SMOOTH",
"72 334 OFFCURVE",
"353 -20 OFFCURVE",
"615 -20 QCURVE SMOOTH",
"877 -20 OFFCURVE",
"1157 334 OFFCURVE",
"1157 679 QCURVE SMOOTH"
);
},
{
closed = 1;
nodes = (
"858 449 OFFCURVE",
"736 212 OFFCURVE",
"615 212 QCURVE SMOOTH",
"494 212 OFFCURVE",
"371 449 OFFCURVE",
"371 679 QCURVE SMOOTH",
"371 1138 OFFCURVE",
"615 1138 QCURVE SMOOTH",
"858 1138 OFFCURVE",
"858 679 QCURVE SMOOTH"
);
}
);
userData = {
assembly = "NPUSHB[ ]\011/* 20 values pushed */
16 6 12 0 6 0 22 23 9 14 95 89 9 4 3 19 95 89 3 19 
SVTCA[0]\011/* SetFreedomAndProjectionVectorToAxis */
MIAP[1]\011/* MoveIndirectAbsPt */
CALL[ ]\011/* CallFunction */
SVTCA[0]\011/* SetFreedomAndProjectionVectorToAxis */
RTG[ ]\011/* RoundToGrid */
MIAP[1]\011/* MoveIndirectAbsPt */
CALL[ ]\011/* CallFunction */
SRP1[ ]\011/* SetRefPoint1 */
SRP2[ ]\011/* SetRefPoint2 */
SVTCA[1]\011/* SetFreedomAndProjectionVectorToAxis */
IP[ ]\011/* InterpolatePts */
IP[ ]\011/* InterpolatePts */
SRP1[ ]\011/* SetRefPoint1 */
SHP[1]\011/* ShiftPointByLastPoint */
SRP1[ ]\011/* SetRefPoint1 */
SHP[1]\011/* ShiftPointByLastPoint */
IUP[1]\011/* InterpolateUntPts */
IUP[0]\011/* InterpolateUntPts */";
};
width = 1229;
}
);
note = O;
unicode = 004F;
},
{
glyphname = P;
lastChange = "2019-12-17 17:05:58 +0000";
layers = (
{
layerId = "1812DDDA-A435-4DB7-9993-49CCF378232E";
paths = (
{
closed = 1;
nodes = (
"1142 1132 OFFCURVE",
"873 1349 OFFCURVE",
"616 1349 QCURVE SMOOTH",
"136 1349 LINE",
"136 0 LINE",
"431 0 LINE",
"431 476 LINE",
"628 476 LINE SMOOTH",
"789 476 OFFCURVE",
"1020 586 OFFCURVE",
"1142 789 OFFCURVE",
"1142 923 QCURVE SMOOTH"
);
},
{
closed = 1;
nodes = (
"845 812 OFFCURVE",
"723 703 OFFCURVE",
"591 703 QCURVE SMOOTH",
"431 703 LINE",
"431 1120 LINE",
"583 1120 LINE SMOOTH",
"714 1120 OFFCURVE",
"845 1027 OFFCURVE",
"845 918 QCURVE SMOOTH"
);
}
);
userData = {
assembly = "NPUSHB[ ]\011/* 26 values pushed */
17 6 6 7 12 0 7 0 21 22 5 17 95 89 5 5 6 8 8 16 95 89 8 3 6 18 
SVTCA[0]\011/* SetFreedomAndProjectionVectorToAxis */
MIAP[1]\011/* MoveIndirectAbsPt */
MIAP[1]\011/* MoveIndirectAbsPt */
CALL[ ]\011/* CallFunction */
SRP1[ ]\011/* SetRefPoint1 */
SRP2[ ]\011/* SetRefPoint2 */
SVTCA[0]\011/* SetFreedomAndProjectionVectorToAxis */
IP[ ]\011/* InterpolatePts */
RTG[ ]\011/* RoundToGrid */
MDAP[1]\011/* MoveDirectAbsPt */
CALL[ ]\011/* CallFunction */
SRP1[ ]\011/* SetRefPoint1 */
SRP2[ ]\011/* SetRefPoint2 */
SVTCA[1]\011/* SetFreedomAndProjectionVectorToAxis */
IP[ ]\011/* InterpolatePts */
IP[ ]\011/* InterpolatePts */
SRP1[ ]\011/* SetRefPoint1 */
SHP[1]\011/* ShiftPointByLastPoint */
SRP1[ ]\011/* SetRefPoint1 */
SHP[1]\011/* ShiftPointByLastPoint */
SRP1[ ]\011/* SetRefPoint1 */
SHP[1]\011/* ShiftPointByLastPoint */
IUP[1]\011/* InterpolateUntPts */
IUP[0]\011/* InterpolateUntPts */";
};
width = 1229;
}
);
note = P;
unicode = 0050;
},
{
glyphname = Q;
lastChange = "2019-12-17 17:05:58 +0000";
layers = (
{
layerId = "1812DDDA-A435-4DB7-9993-49CCF378232E";
paths = (
{
closed = 1;
nodes = (
"1157 1024 OFFCURVE",
"877 1370 OFFCURVE",
"615 1370 QCURVE SMOOTH",
"353 1370 OFFCURVE",
"72 1024 OFFCURVE",
"72 679 QCURVE SMOOTH",
"72 379 OFFCURVE",
"282 35 OFFCURVE",
"482 -7 QCURVE",
"548 -218 OFFCURVE",
"762 -403 OFFCURVE",
"926 -403 QCURVE SMOOTH",
"1042 -403 OFFCURVE",
"1168 -375 QCURVE",
"1168 -173 LINE",
"1090 -186 OFFCURVE",
"1045 -186 QCURVE SMOOTH",
"940 -186 OFFCURVE",
"814 -97 OFFCURVE",
"779 0 QCURVE",
"964 51 OFFCURVE",
"1157 391 OFFCURVE",
"1157 679 QCURVE SMOOTH"
);
},
{
closed = 1;
nodes = (
"858 449 OFFCURVE",
"736 212 OFFCURVE",
"615 212 QCURVE SMOOTH",
"494 212 OFFCURVE",
"371 449 OFFCURVE",
"371 679 QCURVE SMOOTH",
"371 1138 OFFCURVE",
"615 1138 QCURVE SMOOTH",
"858 1138 OFFCURVE",
"858 679 QCURVE SMOOTH"
);
}
);
userData = {
assembly = "NPUSHB[ ]\011/* 33 values pushed */
3 14 14 0 27 17 23 8 0 0 14 17 3 33 34 20 25 95 89 20 4 14 30 97 89 3 14 19 11 6 97 89 11 
SVTCA[0]\011/* SetFreedomAndProjectionVectorToAxis */
MDAP[1]\011/* MoveDirectAbsPt */
CALL[ ]\011/* CallFunction */
SVTCA[0]\011/* SetFreedomAndProjectionVectorToAxis */
RTG[ ]\011/* RoundToGrid */
MIAP[1]\011/* MoveIndirectAbsPt */
SHP[1]\011/* ShiftPointByLastPoint */
CALL[ ]\011/* CallFunction */
SVTCA[0]\011/* SetFreedomAndProjectionVectorToAxis */
RTG[ ]\011/* RoundToGrid */
MIAP[1]\011/* MoveIndirectAbsPt */
CALL[ ]\011/* CallFunction */
SRP1[ ]\011/* SetRefPoint1 */
SRP2[ ]\011/* SetRefPoint2 */
SVTCA[1]\011/* SetFreedomAndProjectionVectorToAxis */
SLOOP[ ]\011/* SetLoopVariable */
IP[ ]\011/* InterpolatePts */
SRP1[ ]\011/* SetRefPoint1 */
SHP[1]\011/* ShiftPointByLastPoint */
SHP[1]\011/* ShiftPointByLastPoint */
SRP1[ ]\011/* SetRefPoint1 */
SHP[1]\011/* ShiftPointByLastPoint */
SRP2[ ]\011/* SetRefPoint2 */
IP[ ]\011/* InterpolatePts */
SRP1[ ]\011/* SetRefPoint1 */
SHP[1]\011/* ShiftPointByLastPoint */
IUP[1]\011/* InterpolateUntPts */
IUP[0]\011/* InterpolateUntPts */";
};
width = 1229;
}
);
note = Q;
unicode = 0051;
},
{
glyphname = R;
lastChange = "2019-12-17 17:05:58 +0000";
layers = (
{
layerId = "1812DDDA-A435-4DB7-9993-49CCF378232E";
paths = (
{
closed = 1;
nodes = (
"1227 0 LINE",
"878 581 LINE",
"1009 620 OFFCURVE",
"1157 812 OFFCURVE",
"1157 949 QCURVE SMOOTH",
"1157 1143 OFFCURVE",
"895 1349 OFFCURVE",
"631 1349 QCURVE SMOOTH",
"137 1349 LINE",
"137 0 LINE",
"432 0 LINE",
"432 515 LINE",
"605 515 LINE",
"895 0 LINE"
);
},
{
closed = 1;
nodes = (
"860 744 OFFCURVE",
"608 744 QCURVE SMOOTH",
"432 744 LINE",
"432 1120 LINE",
"600 1120 LINE SMOOTH",
"736 1120 OFFCURVE",
"860 1031 OFFCURVE",
"860 937 QCURVE SMOOTH"
);
}
);
userData = {
assembly = "NPUSHB[ ]\011/* 38 values pushed */
12 1 9 3 0 13 13 14 9 19 3 3 4 9 4 23 22 12 19 2 19 2 95 89 19 19 0 5 5 18 95 89 5 3 13 4 0 18 
SVTCA[0]\011/* SetFreedomAndProjectionVectorToAxis */
MIAP[1]\011/* MoveIndirectAbsPt */
SHP[0]\011/* ShiftPointByLastPoint */
SHP[0]\011/* ShiftPointByLastPoint */
MIAP[1]\011/* MoveIndirectAbsPt */
CALL[ ]\011/* CallFunction */
SRP1[ ]\011/* SetRefPoint1 */
SRP2[ ]\011/* SetRefPoint2 */
SVTCA[0]\011/* SetFreedomAndProjectionVectorToAxis */
IP[ ]\011/* InterpolatePts */
RTG[ ]\011/* RoundToGrid */
MDAP[1]\011/* MoveDirectAbsPt */
CALL[ ]\011/* CallFunction */
SRP1[ ]\011/* SetRefPoint1 */
SRP2[ ]\011/* SetRefPoint2 */
SVTCA[0]\011/* SetFreedomAndProjectionVectorToAxis */
IP[ ]\011/* InterpolatePts */
SRP1[ ]\011/* SetRefPoint1 */
SRP2[ ]\011/* SetRefPoint2 */
SVTCA[1]\011/* SetFreedomAndProjectionVectorToAxis */
IP[ ]\011/* InterpolatePts */
IP[ ]\011/* InterpolatePts */
SRP1[ ]\011/* SetRefPoint1 */
SHP[1]\011/* ShiftPointByLastPoint */
SRP1[ ]\011/* SetRefPoint1 */
SHP[1]\011/* ShiftPointByLastPoint */
SRP1[ ]\011/* SetRefPoint1 */
SHP[1]\011/* ShiftPointByLastPoint */
SHP[1]\011/* ShiftPointByLastPoint */
SRP1[ ]\011/* SetRefPoint1 */
SHP[1]\011/* ShiftPointByLastPoint */
SRP1[ ]\011/* SetRefPoint1 */
SRP2[ ]\011/* SetRefPoint2 */
IP[ ]\011/* InterpolatePts */
IP[ ]\011/* InterpolatePts */
IUP[1]\011/* InterpolateUntPts */
IUP[0]\011/* InterpolateUntPts */";
};
width = 1229;
}
);
note = R;
unicode = 0052;
},
{
glyphname = S;
lastChange = "2019-12-17 17:05:58 +0000";
layers = (
{
layerId = "1812DDDA-A435-4DB7-9993-49CCF378232E";
paths = (
{
closed = 1;
nodes = (
"1165 493 OFFCURVE",
"1071 653 OFFCURVE",
"869 766 OFFCURVE",
"681 812 QCURVE SMOOTH",
"538 849 OFFCURVE",
"445 894 OFFCURVE",
"391 959 OFFCURVE",
"391 1008 QCURVE SMOOTH",
"391 1082 OFFCURVE",
"503 1161 OFFCURVE",
"609 1161 QCURVE SMOOTH",
"798 1161 OFFCURVE",
"842 978 QCURVE",
"1128 1007 LINE",
"1091 1193 OFFCURVE",
"839 1370 OFFCURVE",
"615 1370 QCURVE SMOOTH",
"385 1370 OFFCURVE",
"104 1166 OFFCURVE",
"104 991 QCURVE SMOOTH",
"104 911 OFFCURVE",
"161 782 OFFCURVE",
"267 686 OFFCURVE",
"444 609 OFFCURVE",
"659 557 QCURVE SMOOTH",
"766 531 OFFCURVE",
"878 440 OFFCURVE",
"878 374 QCURVE SMOOTH",
"878 285 OFFCURVE",
"751 201 OFFCURVE",
"619 201 QCURVE SMOOTH",
"492 201 OFFCURVE",
"346 310 OFFCURVE",
"323 404 QCURVE",
"38 367 LINE",
"80 178 OFFCURVE",
"376 -20 OFFCURVE",
"611 -20 QCURVE SMOOTH",
"872 -20 OFFCURVE",
"1165 199 OFFCURVE",
"1165 391 QCURVE SMOOTH"
);
}
);
userData = {
assembly = "NPUSHB[ ]\011/* 43 values pushed */
13 0 28 27 33 21 7 6 6 21 27 0 4 42 41 13 33 3 24 24 30 98 89 0 28 1 13 3 28 28 24 4 3 10 97 89 128 7 1 7 7 3 19 
SVTCA[0]\011/* SetFreedomAndProjectionVectorToAxis */
MIAP[1]\011/* MoveIndirectAbsPt */
SHP[1]\011/* ShiftPointByLastPoint */
MDAP[1]\011/* MoveDirectAbsPt */
DELTAP1[ ]\011/* DeltaExceptionP1 */
CALL[ ]\011/* CallFunction */
SVTCA[0]\011/* SetFreedomAndProjectionVectorToAxis */
RTG[ ]\011/* RoundToGrid */
MIAP[1]\011/* MoveIndirectAbsPt */
SHP[1]\011/* ShiftPointByLastPoint */
MDAP[1]\011/* MoveDirectAbsPt */
SDS[ ]\011/* SetDeltaShiftInGState */
SDB[ ]\011/* SetDeltaBaseInGState */
DELTAP1[ ]\011/* DeltaExceptionP1 */
CALL[ ]\011/* CallFunction */
SRP1[ ]\011/* SetRefPoint1 */
SRP2[ ]\011/* SetRefPoint2 */
SVTCA[0]\011/* SetFreedomAndProjectionVectorToAxis */
IP[ ]\011/* InterpolatePts */
IP[ ]\011/* InterpolatePts */
SRP1[ ]\011/* SetRefPoint1 */
SRP2[ ]\011/* SetRefPoint2 */
SVTCA[1]\011/* SetFreedomAndProjectionVectorToAxis */
SLOOP[ ]\011/* SetLoopVariable */
IP[ ]\011/* InterpolatePts */
SRP1[ ]\011/* SetRefPoint1 */
SHP[1]\011/* ShiftPointByLastPoint */
SRP1[ ]\011/* SetRefPoint1 */
SHP[1]\011/* ShiftPointByLastPoint */
SRP1[ ]\011/* SetRefPoint1 */
SHP[1]\011/* ShiftPointByLastPoint */
SRP1[ ]\011/* SetRefPoint1 */
SHP[1]\011/* ShiftPointByLastPoint */
IUP[1]\011/* InterpolateUntPts */
IUP[0]\011/* InterpolateUntPts */";
};
width = 1229;
}
);
note = S;
unicode = 0053;
},
{
glyphname = T;
lastChange = "2019-12-17 17:05:58 +0000";
layers = (
{
layerId = "1812DDDA-A435-4DB7-9993-49CCF378232E";
paths = (
{
closed = 1;
nodes = (
"1168 1121 LINE",
"1168 1349 LINE",
"61 1349 LINE",
"61 1121 LINE",
"467 1121 LINE",
"467 0 LINE",
"762 0 LINE",
"762 1121 LINE"
);
}
);
userData = {
assembly = "NPUSHB[ ]\011/* 18 values pushed */
6 1 5 1 2 2 9 8 0 4 5 4 95 89 5 3 1 18 
SVTCA[0]\011/* SetFreedomAndProjectionVectorToAxis */
MIAP[1]\011/* MoveIndirectAbsPt */
MIAP[1]\011/* MoveIndirectAbsPt */
CALL[ ]\011/* CallFunction */
SRP1[ ]\011/* SetRefPoint1 */
SVTCA[0]\011/* SetFreedomAndProjectionVectorToAxis */
SHP[1]\011/* ShiftPointByLastPoint */
SRP1[ ]\011/* SetRefPoint1 */
SRP2[ ]\011/* SetRefPoint2 */
SVTCA[1]\011/* SetFreedomAndProjectionVectorToAxis */
IP[ ]\011/* InterpolatePts */
SRP1[ ]\011/* SetRefPoint1 */
SHP[1]\011/* ShiftPointByLastPoint */
SHP[1]\011/* ShiftPointByLastPoint */
SRP1[ ]\011/* SetRefPoint1 */
SHP[1]\011/* ShiftPointByLastPoint */
IUP[1]\011/* InterpolateUntPts */
IUP[0]\011/* InterpolateUntPts */";
};
width = 1229;
}
);
note = T;
unicode = 0054;
},
{
glyphname = U;
lastChange = "2019-12-17 17:05:58 +0000";
layers = (
{
layerId = "1812DDDA-A435-4DB7-9993-49CCF378232E";
paths = (
{
closed = 1;
nodes = (
"853 -20 OFFCURVE",
"1100 257 OFFCURVE",
"1100 543 QCURVE SMOOTH",
"1100 1349 LINE",
"805 1349 LINE",
"805 541 LINE SMOOTH",
"805 365 OFFCURVE",
"711 211 OFFCURVE",
"607 211 QCURVE SMOOTH",
"505 211 OFFCURVE",
"424 356 OFFCURVE",
"424 531 QCURVE SMOOTH",
"424 1349 LINE",
"129 1349 LINE",
"129 528 LINE SMOOTH",
"129 248 OFFCURVE",
"353 -20 OFFCURVE",
"599 -20 QCURVE SMOOTH"
);
}
);
userData = {
assembly = "NPUSHB[ ]\011/* 17 values pushed */
5 4 13 14 4 14 18 19 13 4 3 0 9 95 89 0 19 
SVTCA[0]\011/* SetFreedomAndProjectionVectorToAxis */
MIAP[1]\011/* MoveIndirectAbsPt */
CALL[ ]\011/* CallFunction */
SVTCA[0]\011/* SetFreedomAndProjectionVectorToAxis */
RTG[ ]\011/* RoundToGrid */
MIAP[1]\011/* MoveIndirectAbsPt */
SHP[1]\011/* ShiftPointByLastPoint */
SRP1[ ]\011/* SetRefPoint1 */
SRP2[ ]\011/* SetRefPoint2 */
SVTCA[1]\011/* SetFreedomAndProjectionVectorToAxis */
IP[ ]\011/* InterpolatePts */
IP[ ]\011/* InterpolatePts */
SRP1[ ]\011/* SetRefPoint1 */
SHP[1]\011/* ShiftPointByLastPoint */
SRP1[ ]\011/* SetRefPoint1 */
SHP[1]\011/* ShiftPointByLastPoint */
IUP[1]\011/* InterpolateUntPts */
IUP[0]\011/* InterpolateUntPts */";
};
width = 1229;
}
);
note = U;
unicode = 0055;
},
{
glyphname = V;
lastChange = "2019-12-17 17:05:58 +0000";
layers = (
{
layerId = "1812DDDA-A435-4DB7-9993-49CCF378232E";
paths = (
{
closed = 1;
nodes = (
"1227 1349 LINE",
"922 1349 LINE",
"690 574 LINE",
"639 394 LINE",
"618 308 LINE",
"571 486 OFFCURVE",
"544 574 QCURVE SMOOTH",
"311 1349 LINE",
"3 1349 LINE",
"467 0 LINE",
"766 0 LINE"
);
}
);
userData = {
assembly = "NPUSHB[ ]\011/* 22 values pushed */
1 0 6 6 10 3 2 9 10 2 10 11 12 6 10 9 3 2 3 1 0 18 
SVTCA[0]\011/* SetFreedomAndProjectionVectorToAxis */
MIAP[1]\011/* MoveIndirectAbsPt */
SHP[0]\011/* ShiftPointByLastPoint */
MIAP[1]\011/* MoveIndirectAbsPt */
SHP[1]\011/* ShiftPointByLastPoint */
SHP[1]\011/* ShiftPointByLastPoint */
SHP[1]\011/* ShiftPointByLastPoint */
IP[ ]\011/* InterpolatePts */
SRP1[ ]\011/* SetRefPoint1 */
SRP2[ ]\011/* SetRefPoint2 */
SVTCA[1]\011/* SetFreedomAndProjectionVectorToAxis */
IP[ ]\011/* InterpolatePts */
IP[ ]\011/* InterpolatePts */
SRP1[ ]\011/* SetRefPoint1 */
SHP[1]\011/* ShiftPointByLastPoint */
SRP1[ ]\011/* SetRefPoint1 */
SHP[1]\011/* ShiftPointByLastPoint */
SRP2[ ]\011/* SetRefPoint2 */
IP[ ]\011/* InterpolatePts */
SRP1[ ]\011/* SetRefPoint1 */
SHP[1]\011/* ShiftPointByLastPoint */
SHP[1]\011/* ShiftPointByLastPoint */
IUP[1]\011/* InterpolateUntPts */
IUP[0]\011/* InterpolateUntPts */";
};
width = 1229;
}
);
note = V;
unicode = 0056;
},
{
glyphname = W;
lastChange = "2019-12-17 17:05:58 +0000";
layers = (
{
layerId = "1812DDDA-A435-4DB7-9993-49CCF378232E";
paths = (
{
closed = 1;
nodes = (
"1228 1349 LINE",
"969 1349 LINE",
"885 654 LINE SMOOTH",
"875 576 OFFCURVE",
"869 415 QCURVE SMOOTH",
"867 388 LINE",
"844 500 OFFCURVE",
"825 587 OFFCURVE",
"812 632 QCURVE SMOOTH",
"713 971 LINE",
"518 971 LINE",
"419 632 LINE",
"379 464 LINE",
"364 388 LINE",
"360 558 OFFCURVE",
"348 654 QCURVE SMOOTH",
"259 1349 LINE",
"0 1349 LINE",
"211 0 LINE",
"459 0 LINE",
"537 312 LINE",
"581 489 LINE",
"616 636 LINE",
"656 456 OFFCURVE",
"706 267 QCURVE SMOOTH",
"770 0 LINE",
"1018 0 LINE"
);
}
);
userData = {
assembly = "NPUSHB[ ]\011/* 59 values pushed */
23 10 1 10 9 8 23 7 1 7 13 23 17 1 17 24 16 1 16 4 24 1 1 1 0 21 24 25 1 25 26 26 21 4 13 9 5 27 28 21 13 17 4 20 13 1 13 16 16 26 25 10 9 3 8 7 1 0 18 
SVTCA[0]\011/* SetFreedomAndProjectionVectorToAxis */
MIAP[1]\011/* MoveIndirectAbsPt */
SHP[0]\011/* ShiftPointByLastPoint */
SHP[0]\011/* ShiftPointByLastPoint */
SHP[0]\011/* ShiftPointByLastPoint */
MIAP[1]\011/* MoveIndirectAbsPt */
SHP[1]\011/* ShiftPointByLastPoint */
SHP[1]\011/* ShiftPointByLastPoint */
SHP[1]\011/* ShiftPointByLastPoint */
IP[ ]\011/* InterpolatePts */
MDAP[1]\011/* MoveDirectAbsPt */
IP[ ]\011/* InterpolatePts */
DELTAP1[ ]\011/* DeltaExceptionP1 */
SHP[1]\011/* ShiftPointByLastPoint */
SHP[1]\011/* ShiftPointByLastPoint */
SRP1[ ]\011/* SetRefPoint1 */
SHP[1]\011/* ShiftPointByLastPoint */
SRP1[ ]\011/* SetRefPoint1 */
SRP2[ ]\011/* SetRefPoint2 */
SVTCA[1]\011/* SetFreedomAndProjectionVectorToAxis */
SLOOP[ ]\011/* SetLoopVariable */
IP[ ]\011/* InterpolatePts */
SRP1[ ]\011/* SetRefPoint1 */
SHP[1]\011/* ShiftPointByLastPoint */
DELTAP1[ ]\011/* DeltaExceptionP1 */
SRP1[ ]\011/* SetRefPoint1 */
SHP[1]\011/* ShiftPointByLastPoint */
SHP[1]\011/* ShiftPointByLastPoint */
DELTAP1[ ]\011/* DeltaExceptionP1 */
SRP1[ ]\011/* SetRefPoint1 */
SHP[1]\011/* ShiftPointByLastPoint */
DELTAP1[ ]\011/* DeltaExceptionP1 */
SHP[1]\011/* ShiftPointByLastPoint */
DELTAP1[ ]\011/* DeltaExceptionP1 */
SRP1[ ]\011/* SetRefPoint1 */
SHP[1]\011/* ShiftPointByLastPoint */
DELTAP1[ ]\011/* DeltaExceptionP1 */
SHP[1]\011/* ShiftPointByLastPoint */
SRP1[ ]\011/* SetRefPoint1 */
SHP[1]\011/* ShiftPointByLastPoint */
DELTAP1[ ]\011/* DeltaExceptionP1 */
IUP[1]\011/* InterpolateUntPts */
IUP[0]\011/* InterpolateUntPts */";
};
width = 1229;
}
);
note = W;
unicode = 0057;
},
{
glyphname = X;
lastChange = "2019-12-17 17:05:58 +0000";
layers = (
{
layerId = "1812DDDA-A435-4DB7-9993-49CCF378232E";
paths = (
{
closed = 1;
nodes = (
"1229 0 LINE",
"760 711 LINE",
"1188 1349 LINE",
"878 1349 LINE",
"616 919 LINE",
"353 1349 LINE",
"41 1349 LINE",
"459 711 LINE",
"0 0 LINE",
"312 0 LINE",
"616 493 LINE",
"919 0 LINE"
);
}
);
userData = {
assembly = "NPUSHB[ ]\011/* 39 values pushed */
10 7 11 6 1 4 0 5 8 9 9 0 11 6 5 5 2 3 11 3 13 12 1 4 10 7 4 6 8 9 3 5 3 2 3 11 3 0 18 
SVTCA[0]\011/* SetFreedomAndProjectionVectorToAxis */
MIAP[1]\011/* MoveIndirectAbsPt */
SLOOP[ ]\011/* SetLoopVariable */
SHP[0]\011/* ShiftPointByLastPoint */
MIAP[1]\011/* MoveIndirectAbsPt */
SLOOP[ ]\011/* SetLoopVariable */
SHP[1]\011/* ShiftPointByLastPoint */
SLOOP[ ]\011/* SetLoopVariable */
IP[ ]\011/* InterpolatePts */
SRP1[ ]\011/* SetRefPoint1 */
SRP2[ ]\011/* SetRefPoint2 */
SVTCA[1]\011/* SetFreedomAndProjectionVectorToAxis */
IP[ ]\011/* InterpolatePts */
IP[ ]\011/* InterpolatePts */
SRP1[ ]\011/* SetRefPoint1 */
SHP[1]\011/* ShiftPointByLastPoint */
SHP[1]\011/* ShiftPointByLastPoint */
SRP1[ ]\011/* SetRefPoint1 */
SHP[1]\011/* ShiftPointByLastPoint */
SRP1[ ]\011/* SetRefPoint1 */
SHP[1]\011/* ShiftPointByLastPoint */
SHP[1]\011/* ShiftPointByLastPoint */
SRP1[ ]\011/* SetRefPoint1 */
SHP[1]\011/* ShiftPointByLastPoint */
SRP1[ ]\011/* SetRefPoint1 */
SRP2[ ]\011/* SetRefPoint2 */
IP[ ]\011/* InterpolatePts */
IP[ ]\011/* InterpolatePts */
SRP1[ ]\011/* SetRefPoint1 */
SRP2[ ]\011/* SetRefPoint2 */
IP[ ]\011/* InterpolatePts */
IP[ ]\011/* InterpolatePts */
IUP[1]\011/* InterpolateUntPts */
IUP[0]\011/* InterpolateUntPts */";
};
width = 1229;
}
);
note = X;
unicode = 0058;
},
{
glyphname = Y;
lastChange = "2019-12-17 17:05:58 +0000";
layers = (
{
layerId = "1812DDDA-A435-4DB7-9993-49CCF378232E";
paths = (
{
closed = 1;
nodes = (
"1225 1349 LINE",
"916 1349 LINE",
"612 783 LINE",
"312 1349 LINE",
"3 1349 LINE",
"467 556 LINE",
"467 0 LINE",
"761 0 LINE",
"761 556 LINE"
);
}
);
userData = {
assembly = "NPUSHB[ ]\011/* 18 values pushed */
6 2 1 7 8 8 1 5 4 4 1 2 2 10 9 6 3 0 
PUSHW[ ]\011/* 1 value pushed */
-64 
NPUSHB[ ]\011/* 14 values pushed */
11 18 72 0 0 1 5 7 8 3 4 3 1 18 
SVTCA[0]\011/* SetFreedomAndProjectionVectorToAxis */
MIAP[1]\011/* MoveIndirectAbsPt */
MIAP[1]\011/* MoveIndirectAbsPt */
SLOOP[ ]\011/* SetLoopVariable */
SHP[1]\011/* ShiftPointByLastPoint */
SRP2[ ]\011/* SetRefPoint2 */
IP[ ]\011/* InterpolatePts */
MDAP[1]\011/* MoveDirectAbsPt */
CALL[ ]\011/* CallFunction */
SHP[1]\011/* ShiftPointByLastPoint */
SHP[1]\011/* ShiftPointByLastPoint */
SRP1[ ]\011/* SetRefPoint1 */
SRP2[ ]\011/* SetRefPoint2 */
SVTCA[1]\011/* SetFreedomAndProjectionVectorToAxis */
IP[ ]\011/* InterpolatePts */
SRP1[ ]\011/* SetRefPoint1 */
SHP[1]\011/* ShiftPointByLastPoint */
SHP[1]\011/* ShiftPointByLastPoint */
SRP1[ ]\011/* SetRefPoint1 */
SHP[1]\011/* ShiftPointByLastPoint */
SRP1[ ]\011/* SetRefPoint1 */
SHP[1]\011/* ShiftPointByLastPoint */
SRP1[ ]\011/* SetRefPoint1 */
SHP[1]\011/* ShiftPointByLastPoint */
SRP1[ ]\011/* SetRefPoint1 */
SRP2[ ]\011/* SetRefPoint2 */
IP[ ]\011/* InterpolatePts */
IUP[1]\011/* InterpolateUntPts */
IUP[0]\011/* InterpolateUntPts */";
};
width = 1229;
}
);
note = Y;
unicode = 0059;
},
{
glyphname = Z;
lastChange = "2019-12-17 17:05:58 +0000";
layers = (
{
layerId = "1812DDDA-A435-4DB7-9993-49CCF378232E";
paths = (
{
closed = 1;
nodes = (
"1138 231 LINE",
"426 231 LINE",
"1097 1144 LINE",
"1097 1349 LINE",
"163 1349 LINE",
"163 1118 LINE",
"758 1118 LINE",
"87 209 LINE",
"87 0 LINE",
"1138 0 LINE"
);
}
);
userData = {
assembly = "NPUSHB[ ]\011/* 26 values pushed */
8 5 2 3 0 7 2 7 10 11 7 4 5 4 95 89 5 3 2 8 1 8 95 89 1 18 
SVTCA[0]\011/* SetFreedomAndProjectionVectorToAxis */
MIAP[1]\011/* MoveIndirectAbsPt */
CALL[ ]\011/* CallFunction */
SRP1[ ]\011/* SetRefPoint1 */
SVTCA[0]\011/* SetFreedomAndProjectionVectorToAxis */
SHP[1]\011/* ShiftPointByLastPoint */
RTG[ ]\011/* RoundToGrid */
MIAP[1]\011/* MoveIndirectAbsPt */
CALL[ ]\011/* CallFunction */
SRP1[ ]\011/* SetRefPoint1 */
SVTCA[0]\011/* SetFreedomAndProjectionVectorToAxis */
SHP[1]\011/* ShiftPointByLastPoint */
SRP1[ ]\011/* SetRefPoint1 */
SRP2[ ]\011/* SetRefPoint2 */
SVTCA[1]\011/* SetFreedomAndProjectionVectorToAxis */
IP[ ]\011/* InterpolatePts */
IP[ ]\011/* InterpolatePts */
SRP1[ ]\011/* SetRefPoint1 */
SHP[1]\011/* ShiftPointByLastPoint */
SHP[1]\011/* ShiftPointByLastPoint */
SRP1[ ]\011/* SetRefPoint1 */
SHP[1]\011/* ShiftPointByLastPoint */
SHP[1]\011/* ShiftPointByLastPoint */
IUP[1]\011/* InterpolateUntPts */
IUP[0]\011/* InterpolateUntPts */";
};
width = 1229;
}
);
note = Z;
unicode = 005A;
},
{
glyphname = bracketleft;
lastChange = "2019-12-17 17:05:58 +0000";
layers = (
{
layerId = "1812DDDA-A435-4DB7-9993-49CCF378232E";
paths = (
{
closed = 1;
nodes = (
"975 -425 LINE",
"975 -234 LINE",
"639 -234 LINE",
"639 1294 LINE",
"975 1294 LINE",
"975 1484 LINE",
"373 1484 LINE",
"373 -425 LINE"
);
}
);
userData = {
assembly = "NPUSHB[ ]\011/* 20 values pushed */
5 0 2 7 0 7 8 9 1 4 245 89 1 0 0 5 245 89 0 27 
SVTCA[0]\011/* SetFreedomAndProjectionVectorToAxis */
MIAP[1]\011/* MoveIndirectAbsPt */
CALL[ ]\011/* CallFunction */
SVTCA[0]\011/* SetFreedomAndProjectionVectorToAxis */
RTG[ ]\011/* RoundToGrid */
MIAP[1]\011/* MoveIndirectAbsPt */
CALL[ ]\011/* CallFunction */
SRP1[ ]\011/* SetRefPoint1 */
SRP2[ ]\011/* SetRefPoint2 */
SVTCA[1]\011/* SetFreedomAndProjectionVectorToAxis */
IP[ ]\011/* InterpolatePts */
IP[ ]\011/* InterpolatePts */
SRP1[ ]\011/* SetRefPoint1 */
SHP[1]\011/* ShiftPointByLastPoint */
SRP1[ ]\011/* SetRefPoint1 */
SHP[1]\011/* ShiftPointByLastPoint */
IUP[1]\011/* InterpolateUntPts */
IUP[0]\011/* InterpolateUntPts */";
};
width = 1229;
}
);
note = bracketleft;
unicode = 005B;
},
{
glyphname = backslash;
lastChange = "2019-12-17 17:05:58 +0000";
layers = (
{
layerId = "1812DDDA-A435-4DB7-9993-49CCF378232E";
paths = (
{
closed = 1;
nodes = (
"1140 -20 LINE",
"319 1484 LINE",
"91 1484 LINE",
"908 -20 LINE"
);
}
);
userData = {
assembly = "NPUSHB[ ]\011/* 12 values pushed */
0 3 2 1 3 1 5 4 1 0 0 19 
SVTCA[0]\011/* SetFreedomAndProjectionVectorToAxis */
MIAP[1]\011/* MoveIndirectAbsPt */
MIAP[1]\011/* MoveIndirectAbsPt */
SRP1[ ]\011/* SetRefPoint1 */
SRP2[ ]\011/* SetRefPoint2 */
SVTCA[1]\011/* SetFreedomAndProjectionVectorToAxis */
IP[ ]\011/* InterpolatePts */
IP[ ]\011/* InterpolatePts */
SRP1[ ]\011/* SetRefPoint1 */
SHP[1]\011/* ShiftPointByLastPoint */
SRP1[ ]\011/* SetRefPoint1 */
SHP[1]\011/* ShiftPointByLastPoint */
IUP[1]\011/* InterpolateUntPts */
IUP[0]\011/* InterpolateUntPts */";
};
width = 1229;
}
);
note = backslash;
unicode = 005C;
},
{
glyphname = bracketright;
lastChange = "2019-12-17 17:05:58 +0000";
layers = (
{
layerId = "1812DDDA-A435-4DB7-9993-49CCF378232E";
paths = (
{
closed = 1;
nodes = (
"856 -425 LINE",
"856 1484 LINE",
"254 1484 LINE",
"254 1294 LINE",
"590 1294 LINE",
"590 -234 LINE",
"254 -234 LINE",
"254 -425 LINE"
);
}
);
userData = {
assembly = "NPUSHB[ ]\011/* 20 values pushed */
5 0 2 7 0 7 8 9 5 4 245 89 5 0 0 1 245 89 0 27 
SVTCA[0]\011/* SetFreedomAndProjectionVectorToAxis */
MIAP[1]\011/* MoveIndirectAbsPt */
CALL[ ]\011/* CallFunction */
SVTCA[0]\011/* SetFreedomAndProjectionVectorToAxis */
RTG[ ]\011/* RoundToGrid */
MIAP[1]\011/* MoveIndirectAbsPt */
CALL[ ]\011/* CallFunction */
SRP1[ ]\011/* SetRefPoint1 */
SRP2[ ]\011/* SetRefPoint2 */
SVTCA[1]\011/* SetFreedomAndProjectionVectorToAxis */
IP[ ]\011/* InterpolatePts */
IP[ ]\011/* InterpolatePts */
SRP1[ ]\011/* SetRefPoint1 */
SHP[1]\011/* ShiftPointByLastPoint */
SRP1[ ]\011/* SetRefPoint1 */
SHP[1]\011/* ShiftPointByLastPoint */
IUP[1]\011/* InterpolateUntPts */
IUP[0]\011/* InterpolateUntPts */";
};
width = 1229;
}
);
note = bracketright;
unicode = 005D;
},
{
glyphname = asciicircum;
lastChange = "2019-12-17 17:05:58 +0000";
layers = (
{
layerId = "1812DDDA-A435-4DB7-9993-49CCF378232E";
paths = (
{
closed = 1;
nodes = (
"1151 514 LINE",
"758 1409 LINE",
"436 1409 LINE",
"45 514 LINE",
"272 514 LINE",
"596 1266 LINE",
"922 514 LINE"
);
}
);
userData = {
assembly = "NPUSHB[ ]\011/* 19 values pushed */
5 4 1 1 6 2 3 0 6 3 6 7 8 3 0 0 1 4 178 
SVTCA[0]\011/* SetFreedomAndProjectionVectorToAxis */
MIAP[1]\011/* MoveIndirectAbsPt */
SHP[1]\011/* ShiftPointByLastPoint */
SHP[1]\011/* ShiftPointByLastPoint */
MDAP[1]\011/* MoveDirectAbsPt */
SHP[0]\011/* ShiftPointByLastPoint */
SRP1[ ]\011/* SetRefPoint1 */
SRP2[ ]\011/* SetRefPoint2 */
SVTCA[1]\011/* SetFreedomAndProjectionVectorToAxis */
IP[ ]\011/* InterpolatePts */
IP[ ]\011/* InterpolatePts */
SRP1[ ]\011/* SetRefPoint1 */
SHP[1]\011/* ShiftPointByLastPoint */
SRP1[ ]\011/* SetRefPoint1 */
SHP[1]\011/* ShiftPointByLastPoint */
SRP2[ ]\011/* SetRefPoint2 */
IP[ ]\011/* InterpolatePts */
SRP1[ ]\011/* SetRefPoint1 */
SHP[1]\011/* ShiftPointByLastPoint */
SHP[1]\011/* ShiftPointByLastPoint */
IUP[1]\011/* InterpolateUntPts */
IUP[0]\011/* InterpolateUntPts */";
};
width = 1229;
}
);
note = asciicircum;
unicode = 005E;
},
{
glyphname = underscore;
lastChange = "2019-12-17 17:05:58 +0000";
layers = (
{
layerId = "1812DDDA-A435-4DB7-9993-49CCF378232E";
paths = (
{
closed = 1;
nodes = (
"1233 -220 LINE",
"1233 -124 LINE",
"-5 -124 LINE",
"-5 -220 LINE"
);
}
);
userData = {
assembly = "NPUSHB[ ]\011/* 9 values pushed */
3 5 0 4 1 0 187 89 1 
SVTCA[0]\011/* SetFreedomAndProjectionVectorToAxis */
MDAP[1]\011/* MoveDirectAbsPt */
CALL[ ]\011/* CallFunction */
SRP1[ ]\011/* SetRefPoint1 */
SVTCA[1]\011/* SetFreedomAndProjectionVectorToAxis */
SHP[1]\011/* ShiftPointByLastPoint */
SRP1[ ]\011/* SetRefPoint1 */
SHP[1]\011/* ShiftPointByLastPoint */
IUP[1]\011/* InterpolateUntPts */
IUP[0]\011/* InterpolateUntPts */";
};
width = 1229;
}
);
note = underscore;
unicode = 005F;
},
{
glyphname = grave;
lastChange = "2019-12-17 17:05:58 +0000";
layers = (
{
layerId = "1812DDDA-A435-4DB7-9993-49CCF378232E";
paths = (
{
closed = 1;
nodes = (
"857 1184 LINE",
"857 1215 LINE",
"605 1458 LINE",
"347 1458 LINE",
"347 1415 LINE",
"687 1184 LINE"
);
}
);
userData = {
assembly = "NPUSHB[ ]\011/* 11 values pushed */
4 1 1 6 7 0 3 140 91 0 148 
SVTCA[0]\011/* SetFreedomAndProjectionVectorToAxis */
MIAP[1]\011/* MoveIndirectAbsPt */
CALL[ ]\011/* CallFunction */
SRP1[ ]\011/* SetRefPoint1 */
SRP2[ ]\011/* SetRefPoint2 */
SVTCA[1]\011/* SetFreedomAndProjectionVectorToAxis */
IP[ ]\011/* InterpolatePts */
SRP1[ ]\011/* SetRefPoint1 */
SHP[1]\011/* ShiftPointByLastPoint */
IUP[1]\011/* InterpolateUntPts */
IUP[0]\011/* InterpolateUntPts */";
};
width = 1229;
}
);
note = grave;
unicode = 0060;
},
{
glyphname = a;
lastChange = "2019-12-17 17:05:58 +0000";
layers = (
{
layerId = "1812DDDA-A435-4DB7-9993-49CCF378232E";
paths = (
{
closed = 1;
nodes = (
"551 -20 OFFCURVE",
"712 80 OFFCURVE",
"775 193 QCURVE",
"781 193 LINE",
"791 92 OFFCURVE",
"892 -12 OFFCURVE",
"998 -12 QCURVE SMOOTH",
"1028 -12 OFFCURVE",
"1073 -8 OFFCURVE",
"1113 -2 OFFCURVE",
"1153 8 OFFCURVE",
"1178 14 QCURVE",
"1178 166 LINE",
"1148 160 OFFCURVE",
"1116 160 QCURVE SMOOTH",
"1068 160 OFFCURVE",
"1027 229 OFFCURVE",
"1027 320 QCURVE SMOOTH",
"1027 712 LINE SMOOTH",
"1027 904 OFFCURVE",
"812 1102 OFFCURVE",
"610 1102 QCURVE SMOOTH",
"209 1102 OFFCURVE",
"155 781 QCURVE",
"448 767 LINE",
"456 847 OFFCURVE",
"525 920 OFFCURVE",
"598 920 QCURVE SMOOTH",
"676 920 OFFCURVE",
"746 814 OFFCURVE",
"746 711 QCURVE SMOOTH",
"746 656 LINE",
"523 652 LINE SMOOTH",
"315 649 OFFCURVE",
"106 474 OFFCURVE",
"106 306 QCURVE SMOOTH",
"106 151 OFFCURVE",
"282 -20 OFFCURVE",
"439 -20 QCURVE SMOOTH"
);
},
{
closed = 1;
nodes = (
"746 446 LINE SMOOTH",
"746 329 OFFCURVE",
"616 176 OFFCURVE",
"519 176 QCURVE SMOOTH",
"399 176 OFFCURVE",
"399 328 QCURVE SMOOTH",
"399 391 OFFCURVE",
"441 464 OFFCURVE",
"522 497 OFFCURVE",
"612 499 QCURVE SMOOTH",
"746 501 LINE"
);
}
);
userData = {
assembly = "NPUSHB[ ]\011/* 16 values pushed */
36 7 49 49 21 14 15 44 3 3 15 21 3 51 50 39 
PUSHW[ ]\011/* 1 value pushed */
-64 
NPUSHB[ ]\011/* 32 values pushed */
16 19 72 39 7 64 15 14 1 11 3 14 7 14 7 17 0 17 11 81 89 17 16 24 46 0 46 80 89 32 0 22 
SVTCA[0]\011/* SetFreedomAndProjectionVectorToAxis */
MIAP[1]\011/* MoveIndirectAbsPt */
SHP[0]\011/* ShiftPointByLastPoint */
CALL[ ]\011/* CallFunction */
SRP1[ ]\011/* SetRefPoint1 */
SVTCA[0]\011/* SetFreedomAndProjectionVectorToAxis */
SHP[1]\011/* ShiftPointByLastPoint */
RTG[ ]\011/* RoundToGrid */
MIAP[1]\011/* MoveIndirectAbsPt */
CALL[ ]\011/* CallFunction */
SRP1[ ]\011/* SetRefPoint1 */
SRP2[ ]\011/* SetRefPoint2 */
SVTCA[0]\011/* SetFreedomAndProjectionVectorToAxis */
IP[ ]\011/* InterpolatePts */
IP[ ]\011/* InterpolatePts */
RTG[ ]\011/* RoundToGrid */
MDAP[1]\011/* MoveDirectAbsPt */
MDAP[1]\011/* MoveDirectAbsPt */
SDS[ ]\011/* SetDeltaShiftInGState */
SDB[ ]\011/* SetDeltaBaseInGState */
DELTAP1[ ]\011/* DeltaExceptionP1 */
SMD[ ]\011/* SetMinimumDistance */
SRP0[ ]\011/* SetRefPoint0 */
MDRP[01101]\011/* MoveDirectRelPt */
CALL[ ]\011/* CallFunction */
SRP1[ ]\011/* SetRefPoint1 */
SRP2[ ]\011/* SetRefPoint2 */
SVTCA[1]\011/* SetFreedomAndProjectionVectorToAxis */
SLOOP[ ]\011/* SetLoopVariable */
IP[ ]\011/* InterpolatePts */
SRP1[ ]\011/* SetRefPoint1 */
SHP[1]\011/* ShiftPointByLastPoint */
SRP1[ ]\011/* SetRefPoint1 */
SHP[1]\011/* ShiftPointByLastPoint */
SRP1[ ]\011/* SetRefPoint1 */
SHP[1]\011/* ShiftPointByLastPoint */
SRP1[ ]\011/* SetRefPoint1 */
SHP[1]\011/* ShiftPointByLastPoint */
SHP[1]\011/* ShiftPointByLastPoint */
IUP[1]\011/* InterpolateUntPts */
IUP[0]\011/* InterpolateUntPts */";
};
width = 1229;
}
);
note = a;
unicode = 0061;
},
{
glyphname = b;
lastChange = "2019-12-17 17:05:58 +0000";
layers = (
{
layerId = "1812DDDA-A435-4DB7-9993-49CCF378232E";
paths = (
{
closed = 1;
nodes = (
"412 0 LINE",
"418 26 OFFCURVE",
"427 143 OFFCURVE",
"427 176 QCURVE",
"431 176 LINE",
"476 79 OFFCURVE",
"633 -20 OFFCURVE",
"737 -20 QCURVE SMOOTH",
"920 -20 OFFCURVE",
"1132 286 OFFCURVE",
"1132 540 QCURVE SMOOTH",
"1132 809 OFFCURVE",
"932 1103 OFFCURVE",
"746 1103 QCURVE SMOOTH",
"635 1103 OFFCURVE",
"470 1003 OFFCURVE",
"429 912 QCURVE",
"427 912 LINE",
"429 1090 LINE",
"429 1484 LINE",
"148 1484 LINE",
"148 236 LINE SMOOTH",
"148 136 OFFCURVE",
"140 0 QCURVE"
);
},
{
closed = 1;
nodes = (
"425 720 OFFCURVE",
"538 912 OFFCURVE",
"636 912 QCURVE SMOOTH",
"736 912 OFFCURVE",
"839 723 OFFCURVE",
"839 540 QCURVE SMOOTH",
"839 356 OFFCURVE",
"734 172 OFFCURVE",
"638 172 QCURVE SMOOTH",
"575 172 OFFCURVE",
"478 261 OFFCURVE",
"425 427 OFFCURVE",
"425 547 QCURVE SMOOTH"
);
}
);
userData = {
assembly = "NPUSHB[ ]\011/* 29 values pushed */
24 19 4 4 3 31 13 3 13 37 38 16 28 80 89 19 16 22 10 34 80 89 6 10 16 3 0 0 21 
SVTCA[0]\011/* SetFreedomAndProjectionVectorToAxis */
MIAP[1]\011/* MoveIndirectAbsPt */
MIAP[1]\011/* MoveIndirectAbsPt */
MIAP[1]\011/* MoveIndirectAbsPt */
SHP[1]\011/* ShiftPointByLastPoint */
CALL[ ]\011/* CallFunction */
SVTCA[0]\011/* SetFreedomAndProjectionVectorToAxis */
RTG[ ]\011/* RoundToGrid */
MIAP[1]\011/* MoveIndirectAbsPt */
SHP[1]\011/* ShiftPointByLastPoint */
CALL[ ]\011/* CallFunction */
SRP1[ ]\011/* SetRefPoint1 */
SRP2[ ]\011/* SetRefPoint2 */
SVTCA[1]\011/* SetFreedomAndProjectionVectorToAxis */
IP[ ]\011/* InterpolatePts */
IP[ ]\011/* InterpolatePts */
SRP1[ ]\011/* SetRefPoint1 */
SHP[1]\011/* ShiftPointByLastPoint */
SRP1[ ]\011/* SetRefPoint1 */
SHP[1]\011/* ShiftPointByLastPoint */
SRP1[ ]\011/* SetRefPoint1 */
SHP[1]\011/* ShiftPointByLastPoint */
SHP[1]\011/* ShiftPointByLastPoint */
IUP[1]\011/* InterpolateUntPts */
IUP[0]\011/* InterpolateUntPts */";
};
width = 1229;
}
);
note = b;
unicode = 0062;
},
{
glyphname = c;
lastChange = "2019-12-17 17:05:58 +0000";
layers = (
{
layerId = "1812DDDA-A435-4DB7-9993-49CCF378232E";
paths = (
{
closed = 1;
nodes = (
"755 -20 OFFCURVE",
"965 75 OFFCURVE",
"1094 249 OFFCURVE",
"1109 360 QCURVE",
"827 373 LINE",
"814 273 OFFCURVE",
"706 172 OFFCURVE",
"626 172 QCURVE SMOOTH",
"405 172 OFFCURVE",
"405 546 QCURVE SMOOTH",
"405 909 OFFCURVE",
"622 909 QCURVE SMOOTH",
"710 909 OFFCURVE",
"806 810 OFFCURVE",
"818 727 QCURVE",
"1101 741 LINE",
"1069 910 OFFCURVE",
"819 1102 OFFCURVE",
"628 1102 QCURVE SMOOTH",
"380 1102 OFFCURVE",
"110 803 OFFCURVE",
"110 535 QCURVE SMOOTH",
"110 273 OFFCURVE",
"378 -20 OFFCURVE",
"624 -20 QCURVE SMOOTH"
);
}
);
userData = {
assembly = "NPUSHB[ ]\011/* 38 values pushed */
15 3 10 20 20 9 21 3 21 25 26 6 13 80 89 31 10 1 10 10 6 16 0 20 16 20 2 13 3 20 20 0 0 17 80 89 0 22 
SVTCA[0]\011/* SetFreedomAndProjectionVectorToAxis */
MIAP[1]\011/* MoveIndirectAbsPt */
CALL[ ]\011/* CallFunction */
SRP1[ ]\011/* SetRefPoint1 */
SVTCA[0]\011/* SetFreedomAndProjectionVectorToAxis */
SHP[1]\011/* ShiftPointByLastPoint */
RTG[ ]\011/* RoundToGrid */
MDAP[1]\011/* MoveDirectAbsPt */
SDS[ ]\011/* SetDeltaShiftInGState */
SDB[ ]\011/* SetDeltaBaseInGState */
DELTAP1[ ]\011/* DeltaExceptionP1 */
MIAP[1]\011/* MoveIndirectAbsPt */
SHP[1]\011/* ShiftPointByLastPoint */
MDAP[1]\011/* MoveDirectAbsPt */
DELTAP1[ ]\011/* DeltaExceptionP1 */
CALL[ ]\011/* CallFunction */
SRP1[ ]\011/* SetRefPoint1 */
SRP2[ ]\011/* SetRefPoint2 */
SVTCA[1]\011/* SetFreedomAndProjectionVectorToAxis */
IP[ ]\011/* InterpolatePts */
IP[ ]\011/* InterpolatePts */
SRP1[ ]\011/* SetRefPoint1 */
SHP[1]\011/* ShiftPointByLastPoint */
SHP[1]\011/* ShiftPointByLastPoint */
SRP1[ ]\011/* SetRefPoint1 */
SHP[1]\011/* ShiftPointByLastPoint */
SRP1[ ]\011/* SetRefPoint1 */
SHP[1]\011/* ShiftPointByLastPoint */
IUP[1]\011/* InterpolateUntPts */
IUP[0]\011/* InterpolateUntPts */";
};
width = 1229;
}
);
note = c;
unicode = 0063;
},
{
glyphname = d;
lastChange = "2019-12-17 17:05:58 +0000";
layers = (
{
layerId = "1812DDDA-A435-4DB7-9993-49CCF378232E";
paths = (
{
closed = 1;
nodes = (
"1089 0 LINE",
"1081 136 OFFCURVE",
"1081 236 QCURVE SMOOTH",
"1081 1484 LINE",
"800 1484 LINE",
"800 1087 LINE",
"802 909 LINE",
"800 909 LINE",
"758 1003 OFFCURVE",
"600 1100 OFFCURVE",
"493 1100 QCURVE SMOOTH",
"304 1100 OFFCURVE",
"97 804 OFFCURVE",
"97 539 QCURVE SMOOTH",
"97 280 OFFCURVE",
"303 -20 OFFCURVE",
"482 -20 QCURVE SMOOTH",
"589 -20 OFFCURVE",
"745 69 OFFCURVE",
"798 176 QCURVE",
"802 176 LINE",
"802 136 OFFCURVE",
"813 15 OFFCURVE",
"817 0 QCURVE"
);
},
{
closed = 1;
nodes = (
"804 427 OFFCURVE",
"751 261 OFFCURVE",
"653 172 OFFCURVE",
"591 172 QCURVE SMOOTH",
"495 172 OFFCURVE",
"390 355 OFFCURVE",
"390 539 QCURVE SMOOTH",
"390 722 OFFCURVE",
"493 909 OFFCURVE",
"593 909 QCURVE SMOOTH",
"692 909 OFFCURVE",
"804 719 OFFCURVE",
"804 546 QCURVE SMOOTH"
);
}
);
userData = {
assembly = "NPUSHB[ ]\011/* 29 values pushed */
30 10 24 3 19 19 20 10 20 37 38 19 0 13 27 80 89 16 13 16 7 33 80 89 3 7 22 0 21 
SVTCA[0]\011/* SetFreedomAndProjectionVectorToAxis */
MIAP[1]\011/* MoveIndirectAbsPt */
MIAP[1]\011/* MoveIndirectAbsPt */
SHP[1]\011/* ShiftPointByLastPoint */
CALL[ ]\011/* CallFunction */
SVTCA[0]\011/* SetFreedomAndProjectionVectorToAxis */
RTG[ ]\011/* RoundToGrid */
MIAP[1]\011/* MoveIndirectAbsPt */
SHP[1]\011/* ShiftPointByLastPoint */
CALL[ ]\011/* CallFunction */
SVTCA[0]\011/* SetFreedomAndProjectionVectorToAxis */
RTG[ ]\011/* RoundToGrid */
MIAP[1]\011/* MoveIndirectAbsPt */
SRP1[ ]\011/* SetRefPoint1 */
SRP2[ ]\011/* SetRefPoint2 */
SVTCA[1]\011/* SetFreedomAndProjectionVectorToAxis */
IP[ ]\011/* InterpolatePts */
IP[ ]\011/* InterpolatePts */
SRP1[ ]\011/* SetRefPoint1 */
SHP[1]\011/* ShiftPointByLastPoint */
SRP1[ ]\011/* SetRefPoint1 */
SHP[1]\011/* ShiftPointByLastPoint */
SHP[1]\011/* ShiftPointByLastPoint */
SRP1[ ]\011/* SetRefPoint1 */
SHP[1]\011/* ShiftPointByLastPoint */
IUP[1]\011/* InterpolateUntPts */
IUP[0]\011/* InterpolateUntPts */";
};
width = 1229;
}
);
note = d;
unicode = 0064;
},
{
glyphname = e;
lastChange = "2019-12-17 17:05:58 +0000";
layers = (
{
layerId = "1812DDDA-A435-4DB7-9993-49CCF378232E";
paths = (
{
closed = 1;
nodes = (
"802 -20 OFFCURVE",
"1058 133 OFFCURVE",
"1113 274 QCURVE",
"848 297 LINE",
"828 231 OFFCURVE",
"714 168 OFFCURVE",
"640 168 QCURVE SMOOTH",
"526 168 OFFCURVE",
"395 340 OFFCURVE",
"395 487 QCURVE",
"1129 487 LINE",
"1129 495 LINE SMOOTH",
"1129 786 OFFCURVE",
"867 1102 OFFCURVE",
"630 1102 QCURVE SMOOTH",
"467 1102 OFFCURVE",
"229 974 OFFCURVE",
"100 726 OFFCURVE",
"100 546 QCURVE SMOOTH",
"100 277 OFFCURVE",
"374 -20 OFFCURVE",
"626 -20 QCURVE SMOOTH"
);
},
{
closed = 1;
nodes = (
"727 925 OFFCURVE",
"850 783 OFFCURVE",
"857 663 QCURVE",
"397 663 LINE",
"401 786 OFFCURVE",
"523 925 OFFCURVE",
"626 925 QCURVE SMOOTH"
);
}
);
userData = {
assembly = "NPUSHB[ ]\011/* 45 values pushed */
25 12 12 3 18 19 26 11 11 19 3 3 29 30 18 18 7 0 25 12 81 89 15 25 31 25 2 16 3 25 25 0 7 7 22 81 89 7 16 0 15 80 89 0 22 
SVTCA[0]\011/* SetFreedomAndProjectionVectorToAxis */
MIAP[1]\011/* MoveIndirectAbsPt */
CALL[ ]\011/* CallFunction */
SVTCA[0]\011/* SetFreedomAndProjectionVectorToAxis */
RTG[ ]\011/* RoundToGrid */
MIAP[1]\011/* MoveIndirectAbsPt */
CALL[ ]\011/* CallFunction */
SRP1[ ]\011/* SetRefPoint1 */
SRP2[ ]\011/* SetRefPoint2 */
SVTCA[0]\011/* SetFreedomAndProjectionVectorToAxis */
IP[ ]\011/* InterpolatePts */
RTG[ ]\011/* RoundToGrid */
MDAP[1]\011/* MoveDirectAbsPt */
SDS[ ]\011/* SetDeltaShiftInGState */
SDB[ ]\011/* SetDeltaBaseInGState */
DELTAP1[ ]\011/* DeltaExceptionP1 */
CALL[ ]\011/* CallFunction */
SRP1[ ]\011/* SetRefPoint1 */
SRP2[ ]\011/* SetRefPoint2 */
SVTCA[0]\011/* SetFreedomAndProjectionVectorToAxis */
IP[ ]\011/* InterpolatePts */
RTG[ ]\011/* RoundToGrid */
MDAP[1]\011/* MoveDirectAbsPt */
SRP1[ ]\011/* SetRefPoint1 */
SRP2[ ]\011/* SetRefPoint2 */
SVTCA[1]\011/* SetFreedomAndProjectionVectorToAxis */
SLOOP[ ]\011/* SetLoopVariable */
IP[ ]\011/* InterpolatePts */
SRP1[ ]\011/* SetRefPoint1 */
SHP[1]\011/* ShiftPointByLastPoint */
SRP1[ ]\011/* SetRefPoint1 */
SHP[1]\011/* ShiftPointByLastPoint */
SRP1[ ]\011/* SetRefPoint1 */
SHP[1]\011/* ShiftPointByLastPoint */
SRP1[ ]\011/* SetRefPoint1 */
SHP[1]\011/* ShiftPointByLastPoint */
IUP[1]\011/* InterpolateUntPts */
IUP[0]\011/* InterpolateUntPts */";
};
width = 1229;
}
);
note = e;
unicode = 0065;
},
{
glyphname = f;
lastChange = "2019-12-17 17:05:58 +0000";
layers = (
{
layerId = "1812DDDA-A435-4DB7-9993-49CCF378232E";
paths = (
{
closed = 1;
nodes = (
"1096 892 LINE",
"1096 1082 LINE",
"653 1082 LINE",
"653 1139 LINE SMOOTH",
"653 1240 OFFCURVE",
"746 1321 OFFCURVE",
"844 1321 QCURVE SMOOTH",
"972 1321 OFFCURVE",
"1122 1302 QCURVE",
"1122 1486 LINE",
"954 1514 OFFCURVE",
"795 1514 QCURVE SMOOTH",
"592 1514 OFFCURVE",
"373 1339 OFFCURVE",
"373 1165 QCURVE SMOOTH",
"373 1082 LINE",
"117 1082 LINE",
"117 892 LINE",
"373 892 LINE",
"373 0 LINE",
"653 0 LINE",
"653 892 LINE"
);
}
);
userData = {
assembly = "NPUSHB[ ]\011/* 26 values pushed */
19 1 1 6 2 2 12 22 23 10 15 80 89 10 1 0 4 5 4 80 89 19 5 15 1 21 
SVTCA[0]\011/* SetFreedomAndProjectionVectorToAxis */
MIAP[1]\011/* MoveIndirectAbsPt */
MIAP[1]\011/* MoveIndirectAbsPt */
SHP[1]\011/* ShiftPointByLastPoint */
CALL[ ]\011/* CallFunction */
SRP1[ ]\011/* SetRefPoint1 */
SVTCA[0]\011/* SetFreedomAndProjectionVectorToAxis */
SHP[1]\011/* ShiftPointByLastPoint */
RTG[ ]\011/* RoundToGrid */
MIAP[1]\011/* MoveIndirectAbsPt */
CALL[ ]\011/* CallFunction */
SRP1[ ]\011/* SetRefPoint1 */
SRP2[ ]\011/* SetRefPoint2 */
SVTCA[1]\011/* SetFreedomAndProjectionVectorToAxis */
IP[ ]\011/* InterpolatePts */
IP[ ]\011/* InterpolatePts */
SRP1[ ]\011/* SetRefPoint1 */
SHP[1]\011/* ShiftPointByLastPoint */
SHP[1]\011/* ShiftPointByLastPoint */
SRP1[ ]\011/* SetRefPoint1 */
SHP[1]\011/* ShiftPointByLastPoint */
IUP[1]\011/* InterpolateUntPts */
IUP[0]\011/* InterpolateUntPts */";
};
width = 1229;
}
);
note = f;
unicode = 0066;
},
{
glyphname = g;
lastChange = "2019-12-17 17:05:58 +0000";
layers = (
{
layerId = "1812DDDA-A435-4DB7-9993-49CCF378232E";
paths = (
{
closed = 1;
nodes = (
"853 -434 OFFCURVE",
"1108 -194 OFFCURVE",
"1108 33 QCURVE SMOOTH",
"1108 832 LINE SMOOTH",
"1108 974 OFFCURVE",
"1114 1082 QCURVE",
"848 1082 LINE",
"843 1063 OFFCURVE",
"834 943 OFFCURVE",
"834 908 QCURVE",
"829 908 LINE",
"785 1002 OFFCURVE",
"627 1099 OFFCURVE",
"522 1099 QCURVE SMOOTH",
"330 1099 OFFCURVE",
"124 812 OFFCURVE",
"124 550 QCURVE SMOOTH",
"124 291 OFFCURVE",
"322 12 OFFCURVE",
"501 12 QCURVE SMOOTH",
"736 12 OFFCURVE",
"829 211 QCURVE",
"831 211 LINE",
"829 96 LINE",
"829 37 LINE SMOOTH",
"829 -106 OFFCURVE",
"725 -251 OFFCURVE",
"624 -251 QCURVE SMOOTH",
"559 -251 OFFCURVE",
"465 -175 OFFCURVE",
"450 -110 QCURVE",
"169 -143 LINE",
"196 -280 OFFCURVE",
"430 -434 OFFCURVE",
"616 -434 QCURVE SMOOTH"
);
},
{
closed = 1;
nodes = (
"831 395 OFFCURVE",
"722 207 OFFCURVE",
"620 207 QCURVE SMOOTH",
"525 207 OFFCURVE",
"417 376 OFFCURVE",
"417 550 QCURVE SMOOTH",
"417 725 OFFCURVE",
"522 906 OFFCURVE",
"622 906 QCURVE SMOOTH",
"719 906 OFFCURVE",
"831 720 OFFCURVE",
"831 556 QCURVE SMOOTH"
);
}
);
userData = {
assembly = "NPUSHB[ ]\011/* 40 values pushed */
4 3 3 41 18 35 24 10 10 32 18 32 47 48 28 15 21 38 80 89 24 21 16 4 4 15 0 15 44 80 89 12 15 21 0 7 81 89 0 28 
SVTCA[0]\011/* SetFreedomAndProjectionVectorToAxis */
MIAP[1]\011/* MoveIndirectAbsPt */
CALL[ ]\011/* CallFunction */
SVTCA[0]\011/* SetFreedomAndProjectionVectorToAxis */
RTG[ ]\011/* RoundToGrid */
MIAP[1]\011/* MoveIndirectAbsPt */
SHP[1]\011/* ShiftPointByLastPoint */
CALL[ ]\011/* CallFunction */
SRP1[ ]\011/* SetRefPoint1 */
SRP2[ ]\011/* SetRefPoint2 */
SVTCA[0]\011/* SetFreedomAndProjectionVectorToAxis */
IP[ ]\011/* InterpolatePts */
RTG[ ]\011/* RoundToGrid */
MDAP[1]\011/* MoveDirectAbsPt */
MIAP[1]\011/* MoveIndirectAbsPt */
SHP[1]\011/* ShiftPointByLastPoint */
CALL[ ]\011/* CallFunction */
SVTCA[0]\011/* SetFreedomAndProjectionVectorToAxis */
RTG[ ]\011/* RoundToGrid */
MIAP[1]\011/* MoveIndirectAbsPt */
SRP1[ ]\011/* SetRefPoint1 */
SRP2[ ]\011/* SetRefPoint2 */
SVTCA[1]\011/* SetFreedomAndProjectionVectorToAxis */
IP[ ]\011/* InterpolatePts */
IP[ ]\011/* InterpolatePts */
SRP1[ ]\011/* SetRefPoint1 */
SHP[1]\011/* ShiftPointByLastPoint */
SRP1[ ]\011/* SetRefPoint1 */
SHP[1]\011/* ShiftPointByLastPoint */
SHP[1]\011/* ShiftPointByLastPoint */
SRP1[ ]\011/* SetRefPoint1 */
SHP[1]\011/* ShiftPointByLastPoint */
SHP[1]\011/* ShiftPointByLastPoint */
SRP1[ ]\011/* SetRefPoint1 */
SHP[1]\011/* ShiftPointByLastPoint */
IUP[1]\011/* InterpolateUntPts */
IUP[0]\011/* InterpolateUntPts */";
};
width = 1229;
}
);
note = g;
unicode = 0067;
},
{
glyphname = h;
lastChange = "2019-12-17 17:05:58 +0000";
layers = (
{
layerId = "1812DDDA-A435-4DB7-9993-49CCF378232E";
paths = (
{
closed = 1;
nodes = (
"416 866 LINE",
"424 970 OFFCURVE",
"424 1079 QCURVE SMOOTH",
"424 1484 LINE",
"143 1484 LINE",
"143 0 LINE",
"424 0 LINE",
"424 579 LINE SMOOTH",
"424 716 OFFCURVE",
"549 891 OFFCURVE",
"651 891 QCURVE SMOOTH",
"743 891 OFFCURVE",
"824 772 OFFCURVE",
"824 621 QCURVE SMOOTH",
"824 0 LINE",
"1104 0 LINE",
"1104 686 LINE SMOOTH",
"1104 898 OFFCURVE",
"936 1102 OFFCURVE",
"768 1102 QCURVE SMOOTH",
"649 1102 OFFCURVE",
"477 990 OFFCURVE",
"420 866 QCURVE"
);
}
);
userData = {
assembly = "NPUSHB[ ]\011/* 23 values pushed */
20 16 16 17 8 7 7 17 23 24 18 0 17 7 21 0 12 3 12 82 89 3 16 
SVTCA[0]\011/* SetFreedomAndProjectionVectorToAxis */
MIAP[1]\011/* MoveIndirectAbsPt */
CALL[ ]\011/* CallFunction */
SRP1[ ]\011/* SetRefPoint1 */
SVTCA[0]\011/* SetFreedomAndProjectionVectorToAxis */
SHP[1]\011/* ShiftPointByLastPoint */
RTG[ ]\011/* RoundToGrid */
MIAP[1]\011/* MoveIndirectAbsPt */
SHP[1]\011/* ShiftPointByLastPoint */
MIAP[1]\011/* MoveIndirectAbsPt */
SRP1[ ]\011/* SetRefPoint1 */
SRP2[ ]\011/* SetRefPoint2 */
SVTCA[1]\011/* SetFreedomAndProjectionVectorToAxis */
IP[ ]\011/* InterpolatePts */
IP[ ]\011/* InterpolatePts */
SRP1[ ]\011/* SetRefPoint1 */
SHP[1]\011/* ShiftPointByLastPoint */
SRP1[ ]\011/* SetRefPoint1 */
SHP[1]\011/* ShiftPointByLastPoint */
SRP1[ ]\011/* SetRefPoint1 */
SHP[1]\011/* ShiftPointByLastPoint */
IUP[1]\011/* InterpolateUntPts */
IUP[0]\011/* InterpolateUntPts */";
};
width = 1229;
}
);
note = h;
unicode = 0068;
},
{
glyphname = i;
lastChange = "2019-12-17 17:05:58 +0000";
layers = (
{
layerId = "1812DDDA-A435-4DB7-9993-49CCF378232E";
paths = (
{
closed = 1;
nodes = (
"794 1082 LINE",
"223 1082 LINE",
"223 892 LINE",
"513 892 LINE",
"513 190 LINE",
"118 190 LINE",
"118 0 LINE",
"1147 0 LINE",
"1147 190 LINE",
"794 190 LINE"
);
},
{
closed = 1;
nodes = (
"794 1277 LINE",
"794 1484 LINE",
"513 1484 LINE",
"513 1277 LINE"
);
}
);
userData = {
assembly = "NPUSHB[ ]\011/* 31 values pushed */
13 1 0 4 10 0 3 5 5 14 15 11 10 83 91 11 0 8 7 80 89 8 15 0 4 3 4 80 89 3 21 
SVTCA[0]\011/* SetFreedomAndProjectionVectorToAxis */
MIAP[1]\011/* MoveIndirectAbsPt */
CALL[ ]\011/* CallFunction */
SRP1[ ]\011/* SetRefPoint1 */
SVTCA[0]\011/* SetFreedomAndProjectionVectorToAxis */
SHP[1]\011/* ShiftPointByLastPoint */
RTG[ ]\011/* RoundToGrid */
MIAP[1]\011/* MoveIndirectAbsPt */
CALL[ ]\011/* CallFunction */
SVTCA[0]\011/* SetFreedomAndProjectionVectorToAxis */
RTG[ ]\011/* RoundToGrid */
MIAP[1]\011/* MoveIndirectAbsPt */
CALL[ ]\011/* CallFunction */
SRP1[ ]\011/* SetRefPoint1 */
SRP2[ ]\011/* SetRefPoint2 */
SVTCA[1]\011/* SetFreedomAndProjectionVectorToAxis */
IP[ ]\011/* InterpolatePts */
SRP1[ ]\011/* SetRefPoint1 */
SLOOP[ ]\011/* SetLoopVariable */
SHP[1]\011/* ShiftPointByLastPoint */
SRP1[ ]\011/* SetRefPoint1 */
SHP[1]\011/* ShiftPointByLastPoint */
SHP[1]\011/* ShiftPointByLastPoint */
IUP[1]\011/* InterpolateUntPts */
IUP[0]\011/* InterpolateUntPts */";
};
width = 1229;
}
);
note = i;
unicode = 0069;
},
{
glyphname = j;
lastChange = "2019-12-17 17:05:58 +0000";
layers = (
{
layerId = "1812DDDA-A435-4DB7-9993-49CCF378232E";
paths = (
{
closed = 1;
nodes = (
"864 1082 LINE",
"228 1082 LINE",
"228 892 LINE",
"582 892 LINE",
"582 10 LINE SMOOTH",
"582 -99 OFFCURVE",
"490 -206 OFFCURVE",
"380 -206 QCURVE SMOOTH",
"253 -206 OFFCURVE",
"117 -172 QCURVE",
"117 -382 LINE",
"162 -399 OFFCURVE",
"326 -425 OFFCURVE",
"405 -425 QCURVE SMOOTH",
"542 -425 OFFCURVE",
"751 -327 OFFCURVE",
"864 -142 OFFCURVE",
"864 -13 QCURVE SMOOTH"
);
},
{
closed = 1;
nodes = (
"864 1277 LINE",
"864 1484 LINE",
"583 1484 LINE",
"583 1277 LINE"
);
}
);
userData = {
assembly = "NPUSHB[ ]\011/* 27 values pushed */
18 13 13 21 0 7 0 22 23 19 18 83 91 19 0 16 15 80 89 16 15 4 10 82 89 4 27 
SVTCA[0]\011/* SetFreedomAndProjectionVectorToAxis */
MIAP[1]\011/* MoveIndirectAbsPt */
CALL[ ]\011/* CallFunction */
SVTCA[0]\011/* SetFreedomAndProjectionVectorToAxis */
RTG[ ]\011/* RoundToGrid */
MIAP[1]\011/* MoveIndirectAbsPt */
CALL[ ]\011/* CallFunction */
SVTCA[0]\011/* SetFreedomAndProjectionVectorToAxis */
RTG[ ]\011/* RoundToGrid */
MIAP[1]\011/* MoveIndirectAbsPt */
CALL[ ]\011/* CallFunction */
SRP1[ ]\011/* SetRefPoint1 */
SRP2[ ]\011/* SetRefPoint2 */
SVTCA[1]\011/* SetFreedomAndProjectionVectorToAxis */
IP[ ]\011/* InterpolatePts */
IP[ ]\011/* InterpolatePts */
SRP1[ ]\011/* SetRefPoint1 */
SHP[1]\011/* ShiftPointByLastPoint */
SHP[1]\011/* ShiftPointByLastPoint */
SRP1[ ]\011/* SetRefPoint1 */
SHP[1]\011/* ShiftPointByLastPoint */
IUP[1]\011/* InterpolateUntPts */
IUP[0]\011/* InterpolateUntPts */";
};
width = 1229;
}
);
note = j;
unicode = 006A;
},
{
glyphname = k;
lastChange = "2019-12-17 17:05:58 +0000";
layers = (
{
layerId = "1812DDDA-A435-4DB7-9993-49CCF378232E";
paths = (
{
closed = 1;
nodes = (
"1171 0 LINE",
"762 660 LINE",
"1142 1082 LINE",
"840 1082 LINE",
"454 634 LINE",
"454 1484 LINE",
"173 1484 LINE",
"173 0 LINE",
"454 0 LINE",
"454 406 LINE",
"575 490 LINE",
"864 0 LINE"
);
}
);
userData = {
assembly = "NPUSHB[ ]\011/* 32 values pushed */
1 10 10 3 8 9 9 0 11 7 3 3 4 11 4 13 12 10 7 1 2 4 9 8 15 5 0 11 4 3 0 21 
SVTCA[0]\011/* SetFreedomAndProjectionVectorToAxis */
MIAP[1]\011/* MoveIndirectAbsPt */
SHP[0]\011/* ShiftPointByLastPoint */
SHP[0]\011/* ShiftPointByLastPoint */
SHP[0]\011/* ShiftPointByLastPoint */
MIAP[1]\011/* MoveIndirectAbsPt */
MIAP[1]\011/* MoveIndirectAbsPt */
SHP[1]\011/* ShiftPointByLastPoint */
SLOOP[ ]\011/* SetLoopVariable */
IP[ ]\011/* InterpolatePts */
SRP1[ ]\011/* SetRefPoint1 */
SRP2[ ]\011/* SetRefPoint2 */
SVTCA[1]\011/* SetFreedomAndProjectionVectorToAxis */
IP[ ]\011/* InterpolatePts */
IP[ ]\011/* InterpolatePts */
SRP1[ ]\011/* SetRefPoint1 */
SHP[1]\011/* ShiftPointByLastPoint */
SRP1[ ]\011/* SetRefPoint1 */
SHP[1]\011/* ShiftPointByLastPoint */
SRP1[ ]\011/* SetRefPoint1 */
SHP[1]\011/* ShiftPointByLastPoint */
SHP[1]\011/* ShiftPointByLastPoint */
SRP1[ ]\011/* SetRefPoint1 */
SHP[1]\011/* ShiftPointByLastPoint */
SRP2[ ]\011/* SetRefPoint2 */
IP[ ]\011/* InterpolatePts */
SRP1[ ]\011/* SetRefPoint1 */
SHP[1]\011/* ShiftPointByLastPoint */
IUP[1]\011/* InterpolateUntPts */
IUP[0]\011/* InterpolateUntPts */";
};
width = 1229;
}
);
note = k;
unicode = 006B;
},
{
glyphname = l;
lastChange = "2019-12-17 17:05:58 +0000";
layers = (
{
layerId = "1812DDDA-A435-4DB7-9993-49CCF378232E";
paths = (
{
closed = 1;
nodes = (
"794 1484 LINE",
"223 1484 LINE",
"223 1294 LINE",
"513 1294 LINE",
"513 190 LINE",
"118 190 LINE",
"118 0 LINE",
"1147 0 LINE",
"1147 190 LINE",
"794 190 LINE"
);
}
);
userData = {
assembly = "NPUSHB[ ]\011/* 22 values pushed */
1 0 0 4 5 5 10 11 8 7 80 89 8 0 0 4 3 4 80 89 3 21 
SVTCA[0]\011/* SetFreedomAndProjectionVectorToAxis */
MIAP[1]\011/* MoveIndirectAbsPt */
CALL[ ]\011/* CallFunction */
SRP1[ ]\011/* SetRefPoint1 */
SVTCA[0]\011/* SetFreedomAndProjectionVectorToAxis */
SHP[1]\011/* ShiftPointByLastPoint */
RTG[ ]\011/* RoundToGrid */
MIAP[1]\011/* MoveIndirectAbsPt */
CALL[ ]\011/* CallFunction */
SRP1[ ]\011/* SetRefPoint1 */
SRP2[ ]\011/* SetRefPoint2 */
SVTCA[1]\011/* SetFreedomAndProjectionVectorToAxis */
IP[ ]\011/* InterpolatePts */
SRP1[ ]\011/* SetRefPoint1 */
SHP[1]\011/* ShiftPointByLastPoint */
SHP[1]\011/* ShiftPointByLastPoint */
SRP1[ ]\011/* SetRefPoint1 */
SHP[1]\011/* ShiftPointByLastPoint */
IUP[1]\011/* InterpolateUntPts */
IUP[0]\011/* InterpolateUntPts */";
};
width = 1229;
}
);
note = l;
unicode = 006C;
},
{
glyphname = m;
lastChange = "2019-12-17 17:05:58 +0000";
layers = (
{
layerId = "1812DDDA-A435-4DB7-9993-49CCF378232E";
paths = (
{
closed = 1;
nodes = (
"729 0 LINE",
"729 601 LINE SMOOTH",
"729 762 OFFCURVE",
"788 923 OFFCURVE",
"839 923 QCURVE SMOOTH",
"889 923 OFFCURVE",
"926 807 OFFCURVE",
"926 658 QCURVE SMOOTH",
"926 0 LINE",
"1154 0 LINE",
"1154 721 LINE SMOOTH",
"1154 930 OFFCURVE",
"1052 1102 OFFCURVE",
"934 1102 QCURVE SMOOTH",
"849 1102 OFFCURVE",
"738 1012 OFFCURVE",
"698 906 QCURVE",
"696 906 LINE",
"677 1006 OFFCURVE",
"590 1102 OFFCURVE",
"502 1102 QCURVE SMOOTH",
"424 1102 OFFCURVE",
"320 1009 OFFCURVE",
"286 907 QCURVE",
"284 907 LINE",
"284 955 LINE",
"278 1082 LINE",
"69 1082 LINE",
"75 1040 OFFCURVE",
"75 851 QCURVE SMOOTH",
"75 0 LINE",
"304 0 LINE",
"304 582 LINE SMOOTH",
"304 735 OFFCURVE",
"363 923 OFFCURVE",
"414 923 QCURVE SMOOTH",
"464 923 OFFCURVE",
"501 807 OFFCURVE",
"501 658 QCURVE SMOOTH",
"501 0 LINE"
);
}
);
userData = {
assembly = "NPUSHB[ ]\011/* 40 values pushed */
22 39 39 0 0 30 9 15 8 8 9 31 30 9 30 40 41 26 35 81 89 26 26 19 22 15 15 19 19 4 81 89 19 16 12 15 31 9 0 21 
SVTCA[0]\011/* SetFreedomAndProjectionVectorToAxis */
MIAP[1]\011/* MoveIndirectAbsPt */
SHP[0]\011/* ShiftPointByLastPoint */
SHP[0]\011/* ShiftPointByLastPoint */
MIAP[1]\011/* MoveIndirectAbsPt */
MIAP[1]\011/* MoveIndirectAbsPt */
CALL[ ]\011/* CallFunction */
SRP1[ ]\011/* SetRefPoint1 */
SVTCA[0]\011/* SetFreedomAndProjectionVectorToAxis */
SHP[1]\011/* ShiftPointByLastPoint */
SRP1[ ]\011/* SetRefPoint1 */
SHP[1]\011/* ShiftPointByLastPoint */
SRP1[ ]\011/* SetRefPoint1 */
SHP[1]\011/* ShiftPointByLastPoint */
RTG[ ]\011/* RoundToGrid */
MDAP[1]\011/* MoveDirectAbsPt */
CALL[ ]\011/* CallFunction */
SRP1[ ]\011/* SetRefPoint1 */
SRP2[ ]\011/* SetRefPoint2 */
SVTCA[1]\011/* SetFreedomAndProjectionVectorToAxis */
IP[ ]\011/* InterpolatePts */
IP[ ]\011/* InterpolatePts */
SRP1[ ]\011/* SetRefPoint1 */
SHP[1]\011/* ShiftPointByLastPoint */
SRP1[ ]\011/* SetRefPoint1 */
SHP[1]\011/* ShiftPointByLastPoint */
SRP1[ ]\011/* SetRefPoint1 */
SHP[1]\011/* ShiftPointByLastPoint */
SRP1[ ]\011/* SetRefPoint1 */
SRP2[ ]\011/* SetRefPoint2 */
IP[ ]\011/* InterpolatePts */
SRP1[ ]\011/* SetRefPoint1 */
SHP[1]\011/* ShiftPointByLastPoint */
SRP2[ ]\011/* SetRefPoint2 */
IP[ ]\011/* InterpolatePts */
IUP[1]\011/* InterpolateUntPts */
IUP[0]\011/* InterpolateUntPts */";
};
width = 1229;
}
);
note = m;
unicode = 006D;
},
{
glyphname = n;
lastChange = "2019-12-17 17:05:58 +0000";
layers = (
{
layerId = "1812DDDA-A435-4DB7-9993-49CCF378232E";
paths = (
{
closed = 1;
nodes = (
"1104 0 LINE",
"1104 687 LINE SMOOTH",
"1104 1103 OFFCURVE",
"768 1103 QCURVE SMOOTH",
"649 1103 OFFCURVE",
"477 991 OFFCURVE",
"420 867 QCURVE",
"416 867 LINE",
"416 898 OFFCURVE",
"406 1063 OFFCURVE",
"403 1082 QCURVE",
"135 1082 LINE",
"138 1038 OFFCURVE",
"143 927 OFFCURVE",
"143 840 QCURVE SMOOTH",
"143 0 LINE",
"424 0 LINE",
"424 580 LINE SMOOTH",
"424 715 OFFCURVE",
"549 892 OFFCURVE",
"653 892 QCURVE SMOOTH",
"747 892 OFFCURVE",
"824 760 OFFCURVE",
"824 619 QCURVE SMOOTH",
"824 0 LINE"
);
}
);
userData = {
assembly = "NPUSHB[ ]\011/* 23 values pushed */
17 8 8 9 0 24 9 24 25 26 17 4 21 4 82 89 21 16 13 15 9 0 21 
SVTCA[0]\011/* SetFreedomAndProjectionVectorToAxis */
MIAP[1]\011/* MoveIndirectAbsPt */
SHP[0]\011/* ShiftPointByLastPoint */
MIAP[1]\011/* MoveIndirectAbsPt */
MIAP[1]\011/* MoveIndirectAbsPt */
CALL[ ]\011/* CallFunction */
SRP1[ ]\011/* SetRefPoint1 */
SVTCA[0]\011/* SetFreedomAndProjectionVectorToAxis */
SHP[1]\011/* ShiftPointByLastPoint */
SRP1[ ]\011/* SetRefPoint1 */
SRP2[ ]\011/* SetRefPoint2 */
SVTCA[1]\011/* SetFreedomAndProjectionVectorToAxis */
IP[ ]\011/* InterpolatePts */
IP[ ]\011/* InterpolatePts */
SRP1[ ]\011/* SetRefPoint1 */
SHP[1]\011/* ShiftPointByLastPoint */
SRP1[ ]\011/* SetRefPoint1 */
SHP[1]\011/* ShiftPointByLastPoint */
SRP1[ ]\011/* SetRefPoint1 */
SHP[1]\011/* ShiftPointByLastPoint */
IUP[1]\011/* InterpolateUntPts */
IUP[0]\011/* InterpolateUntPts */";
};
width = 1229;
}
);
note = n;
unicode = 006E;
},
{
glyphname = o;
lastChange = "2019-12-17 17:05:58 +0000";
layers = (
{
layerId = "1812DDDA-A435-4DB7-9993-49CCF378232E";
paths = (
{
closed = 1;
nodes = (
"1137 1102 OFFCURVE",
"616 1102 QCURVE SMOOTH",
"362 1102 OFFCURVE",
"92 810 OFFCURVE",
"92 542 QCURVE SMOOTH",
"92 273 OFFCURVE",
"364 -20 OFFCURVE",
"610 -20 QCURVE SMOOTH",
"865 -20 OFFCURVE",
"1137 273 OFFCURVE",
"1137 542 QCURVE SMOOTH"
);
},
{
closed = 1;
nodes = (
"843 347 OFFCURVE",
"731 172 OFFCURVE",
"607 172 QCURVE SMOOTH",
"498 172 OFFCURVE",
"387 349 OFFCURVE",
"387 542 QCURVE SMOOTH",
"387 733 OFFCURVE",
"496 909 OFFCURVE",
"620 909 QCURVE SMOOTH",
"741 909 OFFCURVE",
"843 734 OFFCURVE",
"843 542 QCURVE SMOOTH"
);
}
);
userData = {
assembly = "NPUSHB[ ]\011/* 20 values pushed */
17 6 11 0 6 0 23 24 9 14 80 89 9 16 3 20 80 89 3 22 
SVTCA[0]\011/* SetFreedomAndProjectionVectorToAxis */
MIAP[1]\011/* MoveIndirectAbsPt */
CALL[ ]\011/* CallFunction */
SVTCA[0]\011/* SetFreedomAndProjectionVectorToAxis */
RTG[ ]\011/* RoundToGrid */
MIAP[1]\011/* MoveIndirectAbsPt */
CALL[ ]\011/* CallFunction */
SRP1[ ]\011/* SetRefPoint1 */
SRP2[ ]\011/* SetRefPoint2 */
SVTCA[1]\011/* SetFreedomAndProjectionVectorToAxis */
IP[ ]\011/* InterpolatePts */
IP[ ]\011/* InterpolatePts */
SRP1[ ]\011/* SetRefPoint1 */
SHP[1]\011/* ShiftPointByLastPoint */
SRP1[ ]\011/* SetRefPoint1 */
SHP[1]\011/* ShiftPointByLastPoint */
IUP[1]\011/* InterpolateUntPts */
IUP[0]\011/* InterpolateUntPts */";
};
width = 1229;
}
);
note = o;
unicode = 006F;
},
{
glyphname = p;
lastChange = "2019-12-17 17:05:58 +0000";
layers = (
{
layerId = "1812DDDA-A435-4DB7-9993-49CCF378232E";
paths = (
{
closed = 1;
nodes = (
"140 1082 LINE",
"148 946 OFFCURVE",
"148 846 QCURVE SMOOTH",
"148 -425 LINE",
"429 -425 LINE",
"429 -7 LINE",
"427 171 LINE",
"429 171 LINE",
"471 77 OFFCURVE",
"629 -20 OFFCURVE",
"736 -20 QCURVE SMOOTH",
"925 -20 OFFCURVE",
"1132 278 OFFCURVE",
"1132 543 QCURVE SMOOTH",
"1132 801 OFFCURVE",
"927 1103 OFFCURVE",
"747 1103 QCURVE SMOOTH",
"640 1103 OFFCURVE",
"479 1001 OFFCURVE",
"431 906 QCURVE",
"427 906 LINE",
"427 935 OFFCURVE",
"418 1061 OFFCURVE",
"412 1082 QCURVE"
);
},
{
closed = 1;
nodes = (
"425 656 OFFCURVE",
"478 822 OFFCURVE",
"576 911 OFFCURVE",
"638 911 QCURVE SMOOTH",
"734 911 OFFCURVE",
"839 727 OFFCURVE",
"839 543 QCURVE SMOOTH",
"839 361 OFFCURVE",
"737 171 OFFCURVE",
"636 171 QCURVE SMOOTH",
"572 171 OFFCURVE",
"477 256 OFFCURVE",
"425 417 OFFCURVE",
"425 536 QCURVE SMOOTH"
);
}
);
userData = {
assembly = "NPUSHB[ ]\011/* 31 values pushed */
31 10 24 4 19 19 20 10 20 39 38 23 15 19 27 16 28 13 28 80 89 13 22 3 34 7 34 80 89 7 16 
SVTCA[0]\011/* SetFreedomAndProjectionVectorToAxis */
MIAP[1]\011/* MoveIndirectAbsPt */
CALL[ ]\011/* CallFunction */
SRP1[ ]\011/* SetRefPoint1 */
SVTCA[0]\011/* SetFreedomAndProjectionVectorToAxis */
SHP[1]\011/* ShiftPointByLastPoint */
RTG[ ]\011/* RoundToGrid */
MIAP[1]\011/* MoveIndirectAbsPt */
CALL[ ]\011/* CallFunction */
SRP1[ ]\011/* SetRefPoint1 */
SVTCA[0]\011/* SetFreedomAndProjectionVectorToAxis */
SHP[1]\011/* ShiftPointByLastPoint */
RTG[ ]\011/* RoundToGrid */
MIAP[1]\011/* MoveIndirectAbsPt */
MIAP[1]\011/* MoveIndirectAbsPt */
SRP1[ ]\011/* SetRefPoint1 */
SRP2[ ]\011/* SetRefPoint2 */
SVTCA[1]\011/* SetFreedomAndProjectionVectorToAxis */
IP[ ]\011/* InterpolatePts */
IP[ ]\011/* InterpolatePts */
SRP1[ ]\011/* SetRefPoint1 */
SHP[1]\011/* ShiftPointByLastPoint */
SRP1[ ]\011/* SetRefPoint1 */
SHP[1]\011/* ShiftPointByLastPoint */
SHP[1]\011/* ShiftPointByLastPoint */
SRP1[ ]\011/* SetRefPoint1 */
SHP[1]\011/* ShiftPointByLastPoint */
IUP[1]\011/* InterpolateUntPts */
IUP[0]\011/* InterpolateUntPts */";
};
width = 1229;
}
);
note = p;
unicode = 0070;
},
{
glyphname = q;
lastChange = "2019-12-17 17:05:58 +0000";
layers = (
{
layerId = "1812DDDA-A435-4DB7-9993-49CCF378232E";
paths = (
{
closed = 1;
nodes = (
"817 1082 LINE",
"814 1069 OFFCURVE",
"802 950 OFFCURVE",
"802 906 QCURVE",
"798 906 LINE",
"700 1103 OFFCURVE",
"492 1103 QCURVE SMOOTH",
"311 1103 OFFCURVE",
"97 798 OFFCURVE",
"97 543 QCURVE SMOOTH",
"97 274 OFFCURVE",
"297 -20 OFFCURVE",
"483 -20 QCURVE SMOOTH",
"594 -20 OFFCURVE",
"759 80 OFFCURVE",
"800 171 QCURVE",
"802 171 LINE",
"800 -7 LINE",
"800 -425 LINE",
"1081 -425 LINE",
"1081 846 LINE SMOOTH",
"1081 946 OFFCURVE",
"1089 1082 QCURVE"
);
},
{
closed = 1;
nodes = (
"804 363 OFFCURVE",
"691 171 OFFCURVE",
"593 171 QCURVE SMOOTH",
"493 171 OFFCURVE",
"390 360 OFFCURVE",
"390 543 QCURVE SMOOTH",
"390 727 OFFCURVE",
"495 911 OFFCURVE",
"591 911 QCURVE SMOOTH",
"654 911 OFFCURVE",
"751 822 OFFCURVE",
"804 656 OFFCURVE",
"804 536 QCURVE SMOOTH"
);
}
);
userData = {
assembly = "NPUSHB[ ]\011/* 30 values pushed */
23 18 4 4 3 3 37 30 13 13 36 37 22 15 16 27 80 89 18 16 16 10 33 80 89 6 10 22 3 27 
SVTCA[0]\011/* SetFreedomAndProjectionVectorToAxis */
MIAP[1]\011/* MoveIndirectAbsPt */
MIAP[1]\011/* MoveIndirectAbsPt */
SHP[1]\011/* ShiftPointByLastPoint */
CALL[ ]\011/* CallFunction */
SVTCA[0]\011/* SetFreedomAndProjectionVectorToAxis */
RTG[ ]\011/* RoundToGrid */
MIAP[1]\011/* MoveIndirectAbsPt */
SHP[1]\011/* ShiftPointByLastPoint */
CALL[ ]\011/* CallFunction */
SVTCA[0]\011/* SetFreedomAndProjectionVectorToAxis */
RTG[ ]\011/* RoundToGrid */
MIAP[1]\011/* MoveIndirectAbsPt */
SRP1[ ]\011/* SetRefPoint1 */
SRP2[ ]\011/* SetRefPoint2 */
SVTCA[1]\011/* SetFreedomAndProjectionVectorToAxis */
IP[ ]\011/* InterpolatePts */
SRP1[ ]\011/* SetRefPoint1 */
SHP[1]\011/* ShiftPointByLastPoint */
SRP2[ ]\011/* SetRefPoint2 */
IP[ ]\011/* InterpolatePts */
SRP1[ ]\011/* SetRefPoint1 */
SHP[1]\011/* ShiftPointByLastPoint */
SRP1[ ]\011/* SetRefPoint1 */
SHP[1]\011/* ShiftPointByLastPoint */
SHP[1]\011/* ShiftPointByLastPoint */
IUP[1]\011/* InterpolateUntPts */
IUP[0]\011/* InterpolateUntPts */";
};
width = 1229;
}
);
note = q;
unicode = 0071;
},
{
glyphname = r;
lastChange = "2019-12-17 17:05:58 +0000";
layers = (
{
layerId = "1812DDDA-A435-4DB7-9993-49CCF378232E";
paths = (
{
closed = 1;
nodes = (
"1081 1085 LINE",
"979 1102 OFFCURVE",
"875 1102 QCURVE SMOOTH",
"739 1102 OFFCURVE",
"569 990 OFFCURVE",
"519 854 QCURVE",
"515 854 LINE",
"505 952 OFFCURVE",
"469 1082 QCURVE",
"198 1082 LINE",
"223 983 OFFCURVE",
"250 777 OFFCURVE",
"250 701 QCURVE SMOOTH",
"250 0 LINE",
"530 0 LINE",
"530 438 LINE SMOOTH",
"530 631 OFFCURVE",
"713 867 OFFCURVE",
"869 867 QCURVE SMOOTH",
"969 867 OFFCURVE",
"1081 848 QCURVE"
);
}
);
userData = {
assembly = "NPUSHB[ ]\011/* 20 values pushed */
14 6 6 7 7 20 21 22 14 18 18 2 82 89 18 16 11 15 6 21 
SVTCA[0]\011/* SetFreedomAndProjectionVectorToAxis */
MIAP[1]\011/* MoveIndirectAbsPt */
MIAP[1]\011/* MoveIndirectAbsPt */
MIAP[1]\011/* MoveIndirectAbsPt */
CALL[ ]\011/* CallFunction */
SRP1[ ]\011/* SetRefPoint1 */
SVTCA[0]\011/* SetFreedomAndProjectionVectorToAxis */
SHP[1]\011/* ShiftPointByLastPoint */
SRP1[ ]\011/* SetRefPoint1 */
SRP2[ ]\011/* SetRefPoint2 */
SVTCA[1]\011/* SetFreedomAndProjectionVectorToAxis */
IP[ ]\011/* InterpolatePts */
IP[ ]\011/* InterpolatePts */
SRP1[ ]\011/* SetRefPoint1 */
SHP[1]\011/* ShiftPointByLastPoint */
SRP1[ ]\011/* SetRefPoint1 */
SHP[1]\011/* ShiftPointByLastPoint */
IUP[1]\011/* InterpolateUntPts */
IUP[0]\011/* InterpolateUntPts */";
};
width = 1229;
}
);
note = r;
unicode = 0072;
},
{
glyphname = s;
lastChange = "2019-12-17 17:05:58 +0000";
layers = (
{
layerId = "1812DDDA-A435-4DB7-9993-49CCF378232E";
paths = (
{
closed = 1;
nodes = (
"1104 409 OFFCURVE",
"1033 528 OFFCURVE",
"914 604 OFFCURVE",
"717 659 OFFCURVE",
"590 685 QCURVE SMOOTH",
"499 703 OFFCURVE",
"422 758 OFFCURVE",
"422 805 QCURVE SMOOTH",
"422 865 OFFCURVE",
"522 916 OFFCURVE",
"622 916 QCURVE SMOOTH",
"724 916 OFFCURVE",
"818 851 OFFCURVE",
"830 785 QCURVE",
"1079 811 LINE",
"1050 953 OFFCURVE",
"815 1103 OFFCURVE",
"622 1103 QCURVE SMOOTH",
"403 1103 OFFCURVE",
"164 930 OFFCURVE",
"164 775 QCURVE SMOOTH",
"164 681 OFFCURVE",
"251 552 OFFCURVE",
"417 471 OFFCURVE",
"655 424 QCURVE SMOOTH",
"759 403 OFFCURVE",
"846 342 OFFCURVE",
"846 290 QCURVE SMOOTH",
"846 226 OFFCURVE",
"738 166 OFFCURVE",
"620 166 QCURVE SMOOTH",
"492 166 OFFCURVE",
"389 230 OFFCURVE",
"368 307 QCURVE",
"121 270 LINE",
"160 121 OFFCURVE",
"397 -20 OFFCURVE",
"620 -20 QCURVE SMOOTH",
"847 -20 OFFCURVE",
"1104 159 OFFCURVE",
"1104 316 QCURVE SMOOTH"
);
}
);
userData = {
assembly = "NPUSHB[ ]\011/* 50 values pushed */
7 6 33 20 27 26 13 0 0 26 20 6 4 41 42 33 13 23 3 23 30 80 89 96 27 1 15 27 31 27 2 10 3 27 27 23 16 3 10 80 89 16 7 32 7 2 7 7 3 22 
SVTCA[0]\011/* SetFreedomAndProjectionVectorToAxis */
MIAP[1]\011/* MoveIndirectAbsPt */
SHP[1]\011/* ShiftPointByLastPoint */
MDAP[1]\011/* MoveDirectAbsPt */
DELTAP1[ ]\011/* DeltaExceptionP1 */
CALL[ ]\011/* CallFunction */
SVTCA[0]\011/* SetFreedomAndProjectionVectorToAxis */
RTG[ ]\011/* RoundToGrid */
MIAP[1]\011/* MoveIndirectAbsPt */
SHP[1]\011/* ShiftPointByLastPoint */
MDAP[1]\011/* MoveDirectAbsPt */
SDS[ ]\011/* SetDeltaShiftInGState */
SDB[ ]\011/* SetDeltaBaseInGState */
DELTAP1[ ]\011/* DeltaExceptionP1 */
DELTAP1[ ]\011/* DeltaExceptionP1 */
CALL[ ]\011/* CallFunction */
SRP1[ ]\011/* SetRefPoint1 */
SRP2[ ]\011/* SetRefPoint2 */
SVTCA[0]\011/* SetFreedomAndProjectionVectorToAxis */
IP[ ]\011/* InterpolatePts */
IP[ ]\011/* InterpolatePts */
SRP1[ ]\011/* SetRefPoint1 */
SRP2[ ]\011/* SetRefPoint2 */
SVTCA[1]\011/* SetFreedomAndProjectionVectorToAxis */
SLOOP[ ]\011/* SetLoopVariable */
IP[ ]\011/* InterpolatePts */
SRP1[ ]\011/* SetRefPoint1 */
SHP[1]\011/* ShiftPointByLastPoint */
SRP1[ ]\011/* SetRefPoint1 */
SHP[1]\011/* ShiftPointByLastPoint */
SRP1[ ]\011/* SetRefPoint1 */
SHP[1]\011/* ShiftPointByLastPoint */
SRP1[ ]\011/* SetRefPoint1 */
SHP[1]\011/* ShiftPointByLastPoint */
IUP[1]\011/* InterpolateUntPts */
IUP[0]\011/* InterpolateUntPts */";
};
width = 1229;
}
);
note = s;
unicode = 0073;
},
{
glyphname = t;
lastChange = "2019-12-17 17:05:58 +0000";
layers = (
{
layerId = "1812DDDA-A435-4DB7-9993-49CCF378232E";
paths = (
{
closed = 1;
nodes = (
"326 336 LINE SMOOTH",
"326 203 OFFCURVE",
"413 56 OFFCURVE",
"584 -13 OFFCURVE",
"711 -13 QCURVE SMOOTH",
"775 -13 OFFCURVE",
"893 -4 OFFCURVE",
"1035 19 QCURVE",
"1035 205 LINE",
"904 178 OFFCURVE",
"780 178 QCURVE SMOOTH",
"713 178 OFFCURVE",
"639 213 OFFCURVE",
"606 274 OFFCURVE",
"606 362 QCURVE SMOOTH",
"606 892 LINE",
"991 892 LINE",
"991 1082 LINE",
"606 1082 LINE",
"606 1364 LINE",
"430 1364 LINE",
"342 1082 LINE",
"161 1082 LINE",
"161 892 LINE",
"328 892 LINE"
);
}
);
userData = {
assembly = "NPUSHB[ ]\011/* 27 values pushed */
6 10 10 3 24 24 17 25 26 20 14 80 89 20 22 9 1 2 1 80 89 6 2 4 4 2 15 
SVTCA[0]\011/* SetFreedomAndProjectionVectorToAxis */
MIAP[1]\011/* MoveIndirectAbsPt */
SHP[1]\011/* ShiftPointByLastPoint */
MDAP[1]\011/* MoveDirectAbsPt */
SRP1[ ]\011/* SetRefPoint1 */
SHP[1]\011/* ShiftPointByLastPoint */
CALL[ ]\011/* CallFunction */
SRP1[ ]\011/* SetRefPoint1 */
SVTCA[0]\011/* SetFreedomAndProjectionVectorToAxis */
SHP[1]\011/* ShiftPointByLastPoint */
RTG[ ]\011/* RoundToGrid */
MIAP[1]\011/* MoveIndirectAbsPt */
CALL[ ]\011/* CallFunction */
SRP1[ ]\011/* SetRefPoint1 */
SRP2[ ]\011/* SetRefPoint2 */
SVTCA[1]\011/* SetFreedomAndProjectionVectorToAxis */
IP[ ]\011/* InterpolatePts */
IP[ ]\011/* InterpolatePts */
SRP1[ ]\011/* SetRefPoint1 */
SHP[1]\011/* ShiftPointByLastPoint */
SHP[1]\011/* ShiftPointByLastPoint */
SRP1[ ]\011/* SetRefPoint1 */
SHP[1]\011/* ShiftPointByLastPoint */
IUP[1]\011/* InterpolateUntPts */
IUP[0]\011/* InterpolateUntPts */";
};
width = 1229;
}
);
note = t;
unicode = 0074;
},
{
glyphname = u;
lastChange = "2019-12-17 17:05:58 +0000";
layers = (
{
layerId = "1812DDDA-A435-4DB7-9993-49CCF378232E";
paths = (
{
closed = 1;
nodes = (
"135 1082 LINE",
"135 395 LINE SMOOTH",
"135 189 OFFCURVE",
"307 -20 OFFCURVE",
"471 -20 QCURVE SMOOTH",
"692 -20 OFFCURVE",
"799 215 QCURVE",
"804 215 LINE",
"804 144 OFFCURVE",
"816 0 QCURVE",
"1084 0 LINE",
"1076 104 OFFCURVE",
"1076 242 QCURVE SMOOTH",
"1076 1082 LINE",
"795 1082 LINE",
"795 502 LINE SMOOTH",
"795 367 OFFCURVE",
"678 190 OFFCURVE",
"588 190 QCURVE SMOOTH",
"505 190 OFFCURVE",
"416 337 OFFCURVE",
"416 475 QCURVE SMOOTH",
"416 1082 LINE"
);
}
);
userData = {
assembly = "NPUSHB[ ]\011/* 23 values pushed */
0 22 15 8 8 9 22 9 23 24 15 18 18 4 82 89 18 22 13 21 8 0 15 
SVTCA[0]\011/* SetFreedomAndProjectionVectorToAxis */
MIAP[1]\011/* MoveIndirectAbsPt */
SHP[0]\011/* ShiftPointByLastPoint */
MIAP[1]\011/* MoveIndirectAbsPt */
MIAP[1]\011/* MoveIndirectAbsPt */
CALL[ ]\011/* CallFunction */
SRP1[ ]\011/* SetRefPoint1 */
SVTCA[0]\011/* SetFreedomAndProjectionVectorToAxis */
SHP[1]\011/* ShiftPointByLastPoint */
SRP1[ ]\011/* SetRefPoint1 */
SRP2[ ]\011/* SetRefPoint2 */
SVTCA[1]\011/* SetFreedomAndProjectionVectorToAxis */
IP[ ]\011/* InterpolatePts */
IP[ ]\011/* InterpolatePts */
SRP1[ ]\011/* SetRefPoint1 */
SHP[1]\011/* ShiftPointByLastPoint */
SRP1[ ]\011/* SetRefPoint1 */
SHP[1]\011/* ShiftPointByLastPoint */
SRP1[ ]\011/* SetRefPoint1 */
SHP[1]\011/* ShiftPointByLastPoint */
IUP[1]\011/* InterpolateUntPts */
IUP[0]\011/* InterpolateUntPts */";
};
width = 1229;
}
);
note = u;
unicode = 0075;
},
{
glyphname = v;
lastChange = "2019-12-17 17:05:58 +0000";
layers = (
{
layerId = "1812DDDA-A435-4DB7-9993-49CCF378232E";
paths = (
{
closed = 1;
nodes = (
"1193 1082 LINE",
"899 1082 LINE",
"675 441 OFFCURVE",
"614 234 OFFCURVE",
"608 210 QCURVE",
"552 410 OFFCURVE",
"537 460 QCURVE SMOOTH",
"328 1082 LINE",
"31 1082 LINE",
"438 0 LINE",
"774 0 LINE"
);
}
);
userData = {
assembly = "NPUSHB[ ]\011/* 23 values pushed */
1 0 6 6 2 9 10 3 2 2 10 11 12 6 1 10 9 3 2 15 0 1 21 
SVTCA[0]\011/* SetFreedomAndProjectionVectorToAxis */
MIAP[1]\011/* MoveIndirectAbsPt */
SHP[1]\011/* ShiftPointByLastPoint */
MIAP[1]\011/* MoveIndirectAbsPt */
SHP[1]\011/* ShiftPointByLastPoint */
SHP[1]\011/* ShiftPointByLastPoint */
SHP[1]\011/* ShiftPointByLastPoint */
SRP2[ ]\011/* SetRefPoint2 */
IP[ ]\011/* InterpolatePts */
SRP1[ ]\011/* SetRefPoint1 */
SRP2[ ]\011/* SetRefPoint2 */
SVTCA[1]\011/* SetFreedomAndProjectionVectorToAxis */
IP[ ]\011/* InterpolatePts */
IP[ ]\011/* InterpolatePts */
SRP1[ ]\011/* SetRefPoint1 */
SHP[1]\011/* ShiftPointByLastPoint */
SRP1[ ]\011/* SetRefPoint1 */
SHP[1]\011/* ShiftPointByLastPoint */
SRP2[ ]\011/* SetRefPoint2 */
IP[ ]\011/* InterpolatePts */
SRP1[ ]\011/* SetRefPoint1 */
SHP[1]\011/* ShiftPointByLastPoint */
SHP[1]\011/* ShiftPointByLastPoint */
IUP[1]\011/* InterpolateUntPts */
IUP[0]\011/* InterpolateUntPts */";
};
width = 1229;
}
);
note = v;
unicode = 0076;
},
{
glyphname = w;
lastChange = "2019-12-17 17:05:58 +0000";
layers = (
{
layerId = "1812DDDA-A435-4DB7-9993-49CCF378232E";
paths = (
{
closed = 1;
nodes = (
"1218 1082 LINE",
"992 1082 LINE",
"900 473 OFFCURVE",
"880 311 OFFCURVE",
"880 249 QCURVE",
"866 312 OFFCURVE",
"851 362 QCURVE SMOOTH",
"711 817 LINE",
"518 817 LINE",
"361 323 LINE",
"341 249 LINE",
"341 323 OFFCURVE",
"322 475 QCURVE SMOOTH",
"239 1082 LINE",
"11 1082 LINE",
"194 0 LINE",
"437 0 LINE",
"593 489 OFFCURVE",
"613 564 OFFCURVE",
"614 573 QCURVE",
"616 551 OFFCURVE",
"641 471 QCURVE SMOOTH",
"784 0 LINE",
"1028 0 LINE"
);
}
);
userData = {
assembly = "NPUSHB[ ]\011/* 37 values pushed */
10 1 0 19 16 15 4 8 7 13 13 4 19 3 9 22 23 9 23 24 25 19 13 16 13 15 15 23 22 10 9 15 8 7 1 0 21 
SVTCA[0]\011/* SetFreedomAndProjectionVectorToAxis */
MIAP[1]\011/* MoveIndirectAbsPt */
SHP[0]\011/* ShiftPointByLastPoint */
SHP[0]\011/* ShiftPointByLastPoint */
SHP[0]\011/* ShiftPointByLastPoint */
MIAP[1]\011/* MoveIndirectAbsPt */
SHP[1]\011/* ShiftPointByLastPoint */
SHP[1]\011/* ShiftPointByLastPoint */
SHP[1]\011/* ShiftPointByLastPoint */
IP[ ]\011/* InterpolatePts */
MDAP[1]\011/* MoveDirectAbsPt */
IP[ ]\011/* InterpolatePts */
SHP[1]\011/* ShiftPointByLastPoint */
SRP1[ ]\011/* SetRefPoint1 */
SHP[1]\011/* ShiftPointByLastPoint */
SRP1[ ]\011/* SetRefPoint1 */
SRP2[ ]\011/* SetRefPoint2 */
SVTCA[1]\011/* SetFreedomAndProjectionVectorToAxis */
IP[ ]\011/* InterpolatePts */
IP[ ]\011/* InterpolatePts */
SRP1[ ]\011/* SetRefPoint1 */
SHP[1]\011/* ShiftPointByLastPoint */
SRP2[ ]\011/* SetRefPoint2 */
SLOOP[ ]\011/* SetLoopVariable */
IP[ ]\011/* InterpolatePts */
SRP1[ ]\011/* SetRefPoint1 */
SHP[1]\011/* ShiftPointByLastPoint */
SHP[1]\011/* ShiftPointByLastPoint */
SRP1[ ]\011/* SetRefPoint1 */
SHP[1]\011/* ShiftPointByLastPoint */
SHP[1]\011/* ShiftPointByLastPoint */
SRP1[ ]\011/* SetRefPoint1 */
SHP[1]\011/* ShiftPointByLastPoint */
SHP[1]\011/* ShiftPointByLastPoint */
SHP[0]\011/* ShiftPointByLastPoint */
IUP[1]\011/* InterpolateUntPts */
IUP[0]\011/* InterpolateUntPts */";
};
width = 1229;
}
);
note = w;
unicode = 0077;
},
{
glyphname = x;
lastChange = "2019-12-17 17:05:58 +0000";
layers = (
{
layerId = "1812DDDA-A435-4DB7-9993-49CCF378232E";
paths = (
{
closed = 1;
nodes = (
"1179 0 LINE",
"770 562 LINE",
"1157 1082 LINE",
"852 1082 LINE",
"612 728 LINE",
"371 1082 LINE",
"68 1082 LINE",
"455 559 LINE",
"49 0 LINE",
"348 0 LINE",
"612 392 LINE",
"874 0 LINE"
);
}
);
userData = {
assembly = "NPUSHB[ ]\011/* 93 values pushed */
10 7 11 6 1 4 0 5 8 9 9 0 11 6 5 5 2 3 11 3 13 12 244 7 1 182 7 230 7 2 149 7 1 118 7 134 7 2 82 7 1 70 7 1 52 7 1 22 7 1 251 1 1 185 1 233 1 2 154 1 1 121 1 137 1 2 59 1 91 1 2 1 4 10 7 4 9 8 6 70 5 86 5 102 5 3 5 15 11 3 2 0 21 
SVTCA[0]\011/* SetFreedomAndProjectionVectorToAxis */
MIAP[1]\011/* MoveIndirectAbsPt */
SHP[0]\011/* ShiftPointByLastPoint */
SHP[0]\011/* ShiftPointByLastPoint */
SHP[0]\011/* ShiftPointByLastPoint */
MIAP[1]\011/* MoveIndirectAbsPt */
DELTAP1[ ]\011/* DeltaExceptionP1 */
SHP[1]\011/* ShiftPointByLastPoint */
SHP[1]\011/* ShiftPointByLastPoint */
SHP[1]\011/* ShiftPointByLastPoint */
SLOOP[ ]\011/* SetLoopVariable */
IP[ ]\011/* InterpolatePts */
DELTAP1[ ]\011/* DeltaExceptionP1 */
DELTAP1[ ]\011/* DeltaExceptionP1 */
DELTAP1[ ]\011/* DeltaExceptionP1 */
DELTAP1[ ]\011/* DeltaExceptionP1 */
DELTAP1[ ]\011/* DeltaExceptionP1 */
DELTAP1[ ]\011/* DeltaExceptionP1 */
DELTAP1[ ]\011/* DeltaExceptionP1 */
DELTAP1[ ]\011/* DeltaExceptionP1 */
DELTAP1[ ]\011/* DeltaExceptionP1 */
DELTAP1[ ]\011/* DeltaExceptionP1 */
DELTAP1[ ]\011/* DeltaExceptionP1 */
DELTAP1[ ]\011/* DeltaExceptionP1 */
DELTAP1[ ]\011/* DeltaExceptionP1 */
SRP1[ ]\011/* SetRefPoint1 */
SRP2[ ]\011/* SetRefPoint2 */
SVTCA[1]\011/* SetFreedomAndProjectionVectorToAxis */
IP[ ]\011/* InterpolatePts */
IP[ ]\011/* InterpolatePts */
SRP1[ ]\011/* SetRefPoint1 */
SHP[1]\011/* ShiftPointByLastPoint */
SHP[1]\011/* ShiftPointByLastPoint */
SRP1[ ]\011/* SetRefPoint1 */
SHP[1]\011/* ShiftPointByLastPoint */
SRP1[ ]\011/* SetRefPoint1 */
SHP[1]\011/* ShiftPointByLastPoint */
SHP[1]\011/* ShiftPointByLastPoint */
SRP1[ ]\011/* SetRefPoint1 */
SHP[1]\011/* ShiftPointByLastPoint */
SRP1[ ]\011/* SetRefPoint1 */
SRP2[ ]\011/* SetRefPoint2 */
IP[ ]\011/* InterpolatePts */
IP[ ]\011/* InterpolatePts */
SRP1[ ]\011/* SetRefPoint1 */
SRP2[ ]\011/* SetRefPoint2 */
IP[ ]\011/* InterpolatePts */
IP[ ]\011/* InterpolatePts */
IUP[1]\011/* InterpolateUntPts */
IUP[0]\011/* InterpolateUntPts */";
};
width = 1229;
}
);
note = x;
unicode = 0078;
},
{
glyphname = y;
lastChange = "2019-12-17 17:05:58 +0000";
layers = (
{
layerId = "1812DDDA-A435-4DB7-9993-49CCF378232E";
paths = (
{
closed = 1;
nodes = (
"472 -425 OFFCURVE",
"662 -263 OFFCURVE",
"742 -57 QCURVE SMOOTH",
"1190 1082 LINE",
"896 1082 LINE",
"716 551 LINE",
"635 258 LINE",
"626 221 LINE",
"565 446 OFFCURVE",
"525 555 QCURVE SMOOTH",
"335 1082 LINE",
"38 1082 LINE",
"486 11 LINE",
"447 -94 OFFCURVE",
"384 -182 OFFCURVE",
"305 -220 OFFCURVE",
"245 -220 QCURVE SMOOTH",
"194 -217 LINE",
"143 -212 LINE",
"143 -412 LINE",
"219 -425 OFFCURVE",
"325 -425 QCURVE SMOOTH"
);
}
);
userData = {
assembly = "NPUSHB[ ]\011/* 20 values pushed */
2 9 19 3 14 14 18 11 10 17 18 10 18 22 23 127 14 1 3 14 
PUSHW[ ]\011/* 1 value pushed */
-64 
NPUSHB[ ]\011/* 27 values pushed */
15 18 72 2 14 18 14 2 9 4 14 10 9 9 19 22 18 17 11 10 15 0 5 83 89 0 27 
SVTCA[0]\011/* SetFreedomAndProjectionVectorToAxis */
MIAP[1]\011/* MoveIndirectAbsPt */
CALL[ ]\011/* CallFunction */
SVTCA[0]\011/* SetFreedomAndProjectionVectorToAxis */
RTG[ ]\011/* RoundToGrid */
MIAP[1]\011/* MoveIndirectAbsPt */
SHP[1]\011/* ShiftPointByLastPoint */
SHP[1]\011/* ShiftPointByLastPoint */
SHP[1]\011/* ShiftPointByLastPoint */
SRP1[ ]\011/* SetRefPoint1 */
SHP[1]\011/* ShiftPointByLastPoint */
SHP[1]\011/* ShiftPointByLastPoint */
SRP1[ ]\011/* SetRefPoint1 */
SRP2[ ]\011/* SetRefPoint2 */
IP[ ]\011/* InterpolatePts */
SDS[ ]\011/* SetDeltaShiftInGState */
SDB[ ]\011/* SetDeltaBaseInGState */
DELTAP1[ ]\011/* DeltaExceptionP1 */
CALL[ ]\011/* CallFunction */
SDS[ ]\011/* SetDeltaShiftInGState */
DELTAP2[ ]\011/* DeltaExceptionP2 */
SRP1[ ]\011/* SetRefPoint1 */
SRP2[ ]\011/* SetRefPoint2 */
SVTCA[1]\011/* SetFreedomAndProjectionVectorToAxis */
IP[ ]\011/* InterpolatePts */
IP[ ]\011/* InterpolatePts */
SRP1[ ]\011/* SetRefPoint1 */
SHP[1]\011/* ShiftPointByLastPoint */
SRP1[ ]\011/* SetRefPoint1 */
SHP[1]\011/* ShiftPointByLastPoint */
SRP2[ ]\011/* SetRefPoint2 */
IP[ ]\011/* InterpolatePts */
SRP1[ ]\011/* SetRefPoint1 */
SLOOP[ ]\011/* SetLoopVariable */
SHP[1]\011/* ShiftPointByLastPoint */
IUP[1]\011/* InterpolateUntPts */
IUP[0]\011/* InterpolateUntPts */";
};
width = 1229;
}
);
note = y;
unicode = 0079;
},
{
glyphname = z;
lastChange = "2019-12-17 17:05:58 +0000";
layers = (
{
layerId = "1812DDDA-A435-4DB7-9993-49CCF378232E";
paths = (
{
closed = 1;
nodes = (
"1077 0 LINE",
"1077 205 LINE",
"461 205 LINE",
"1028 881 LINE",
"1028 1082 LINE",
"179 1082 LINE",
"179 879 LINE",
"708 879 LINE",
"138 199 LINE",
"138 0 LINE"
);
}
);
userData = {
assembly = "NPUSHB[ ]\011/* 26 values pushed */
7 4 1 9 2 6 1 6 10 11 6 3 4 3 82 89 4 15 1 7 0 7 82 89 0 21 
SVTCA[0]\011/* SetFreedomAndProjectionVectorToAxis */
MIAP[1]\011/* MoveIndirectAbsPt */
CALL[ ]\011/* CallFunction */
SRP1[ ]\011/* SetRefPoint1 */
SVTCA[0]\011/* SetFreedomAndProjectionVectorToAxis */
SHP[1]\011/* ShiftPointByLastPoint */
RTG[ ]\011/* RoundToGrid */
MIAP[1]\011/* MoveIndirectAbsPt */
CALL[ ]\011/* CallFunction */
SRP1[ ]\011/* SetRefPoint1 */
SVTCA[0]\011/* SetFreedomAndProjectionVectorToAxis */
SHP[1]\011/* ShiftPointByLastPoint */
SRP1[ ]\011/* SetRefPoint1 */
SRP2[ ]\011/* SetRefPoint2 */
SVTCA[1]\011/* SetFreedomAndProjectionVectorToAxis */
IP[ ]\011/* InterpolatePts */
IP[ ]\011/* InterpolatePts */
SRP1[ ]\011/* SetRefPoint1 */
SHP[1]\011/* ShiftPointByLastPoint */
SHP[1]\011/* ShiftPointByLastPoint */
SRP1[ ]\011/* SetRefPoint1 */
SHP[1]\011/* ShiftPointByLastPoint */
SHP[1]\011/* ShiftPointByLastPoint */
IUP[1]\011/* InterpolateUntPts */
IUP[0]\011/* InterpolateUntPts */";
};
width = 1229;
}
);
note = z;
unicode = 007A;
},
{
glyphname = braceleft;
lastChange = "2019-12-17 17:05:58 +0000";
layers = (
{
layerId = "1812DDDA-A435-4DB7-9993-49CCF378232E";
paths = (
{
closed = 1;
nodes = (
"1045 -425 LINE",
"1045 -234 LINE",
"857 -234 LINE SMOOTH",
"766 -234 OFFCURVE",
"685 -131 OFFCURVE",
"685 -25 QCURVE SMOOTH",
"685 276 LINE SMOOTH",
"685 369 OFFCURVE",
"573 506 OFFCURVE",
"478 528 QCURVE",
"478 532 LINE",
"570 551 OFFCURVE",
"685 689 OFFCURVE",
"685 784 QCURVE SMOOTH",
"685 1085 LINE SMOOTH",
"685 1190 OFFCURVE",
"766 1294 OFFCURVE",
"857 1294 QCURVE SMOOTH",
"1045 1294 LINE",
"1045 1484 LINE",
"718 1484 LINE SMOOTH",
"580 1484 OFFCURVE",
"423 1331 OFFCURVE",
"423 1185 QCURVE SMOOTH",
"423 857 LINE SMOOTH",
"423 744 OFFCURVE",
"315 631 OFFCURVE",
"194 626 QCURVE",
"194 431 LINE",
"313 429 OFFCURVE",
"423 316 OFFCURVE",
"423 202 QCURVE SMOOTH",
"423 -126 LINE SMOOTH",
"423 -268 OFFCURVE",
"584 -425 OFFCURVE",
"718 -425 QCURVE SMOOTH"
);
}
);
userData = {
assembly = "NPUSHB[ ]\011/* 39 values pushed */
25 3 22 22 30 8 11 30 3 3 35 16 3 16 36 37 25 8 7 8 7 245 89 8 8 15 0 15 18 245 89 15 0 0 33 245 89 0 27 
SVTCA[0]\011/* SetFreedomAndProjectionVectorToAxis */
MIAP[1]\011/* MoveIndirectAbsPt */
CALL[ ]\011/* CallFunction */
SVTCA[0]\011/* SetFreedomAndProjectionVectorToAxis */
RTG[ ]\011/* RoundToGrid */
MIAP[1]\011/* MoveIndirectAbsPt */
CALL[ ]\011/* CallFunction */
SRP1[ ]\011/* SetRefPoint1 */
SRP2[ ]\011/* SetRefPoint2 */
SVTCA[0]\011/* SetFreedomAndProjectionVectorToAxis */
IP[ ]\011/* InterpolatePts */
RTG[ ]\011/* RoundToGrid */
MDAP[1]\011/* MoveDirectAbsPt */
CALL[ ]\011/* CallFunction */
SRP1[ ]\011/* SetRefPoint1 */
SRP2[ ]\011/* SetRefPoint2 */
SVTCA[0]\011/* SetFreedomAndProjectionVectorToAxis */
IP[ ]\011/* InterpolatePts */
SRP1[ ]\011/* SetRefPoint1 */
SRP2[ ]\011/* SetRefPoint2 */
SVTCA[1]\011/* SetFreedomAndProjectionVectorToAxis */
IP[ ]\011/* InterpolatePts */
IP[ ]\011/* InterpolatePts */
SRP1[ ]\011/* SetRefPoint1 */
SHP[1]\011/* ShiftPointByLastPoint */
SRP1[ ]\011/* SetRefPoint1 */
SLOOP[ ]\011/* SetLoopVariable */
SHP[1]\011/* ShiftPointByLastPoint */
SRP1[ ]\011/* SetRefPoint1 */
SHP[1]\011/* ShiftPointByLastPoint */
SRP1[ ]\011/* SetRefPoint1 */
SRP2[ ]\011/* SetRefPoint2 */
IP[ ]\011/* InterpolatePts */
IUP[1]\011/* InterpolateUntPts */
IUP[0]\011/* InterpolateUntPts */";
};
width = 1229;
}
);
note = braceleft;
unicode = 007B;
},
{
glyphname = bar;
lastChange = "2019-12-17 17:05:58 +0000";
layers = (
{
layerId = "1812DDDA-A435-4DB7-9993-49CCF378232E";
paths = (
{
closed = 1;
nodes = (
"745 -455 LINE",
"745 1484 LINE",
"483 1484 LINE",
"483 -455 LINE"
);
}
);
userData = {
assembly = "PUSHB[ ]\011/* 8 values pushed */
2 1 1 4 5 1 0 0 
SVTCA[0]\011/* SetFreedomAndProjectionVectorToAxis */
MDAP[1]\011/* MoveDirectAbsPt */
MIAP[1]\011/* MoveIndirectAbsPt */
SRP1[ ]\011/* SetRefPoint1 */
SRP2[ ]\011/* SetRefPoint2 */
SVTCA[1]\011/* SetFreedomAndProjectionVectorToAxis */
IP[ ]\011/* InterpolatePts */
SRP1[ ]\011/* SetRefPoint1 */
SHP[1]\011/* ShiftPointByLastPoint */
IUP[1]\011/* InterpolateUntPts */
IUP[0]\011/* InterpolateUntPts */";
};
width = 1229;
}
);
note = bar;
unicode = 007C;
},
{
glyphname = braceright;
lastChange = "2019-12-17 17:05:58 +0000";
layers = (
{
layerId = "1812DDDA-A435-4DB7-9993-49CCF378232E";
paths = (
{
closed = 1;
nodes = (
"511 -425 LINE SMOOTH",
"646 -425 OFFCURVE",
"806 -267 OFFCURVE",
"806 -126 QCURVE SMOOTH",
"806 202 LINE SMOOTH",
"806 316 OFFCURVE",
"916 429 OFFCURVE",
"1035 431 QCURVE",
"1035 626 LINE",
"914 631 OFFCURVE",
"806 744 OFFCURVE",
"806 857 QCURVE SMOOTH",
"806 1185 LINE SMOOTH",
"806 1331 OFFCURVE",
"649 1484 OFFCURVE",
"511 1484 QCURVE SMOOTH",
"184 1484 LINE",
"184 1294 LINE",
"372 1294 LINE SMOOTH",
"463 1294 OFFCURVE",
"544 1190 OFFCURVE",
"544 1085 QCURVE SMOOTH",
"544 784 LINE SMOOTH",
"544 690 OFFCURVE",
"658 552 OFFCURVE",
"751 532 QCURVE",
"751 528 LINE",
"656 506 OFFCURVE",
"544 369 OFFCURVE",
"544 276 QCURVE SMOOTH",
"544 -25 LINE SMOOTH",
"544 -131 OFFCURVE",
"463 -234 OFFCURVE",
"372 -234 QCURVE SMOOTH",
"184 -234 LINE",
"184 -425 LINE"
);
}
);
userData = {
assembly = "NPUSHB[ ]\011/* 38 values pushed */
9 24 13 5 24 27 5 3 32 18 0 0 32 36 37 10 27 28 27 28 245 89 27 27 19 0 19 18 245 89 19 0 0 1 245 89 0 27 
SVTCA[0]\011/* SetFreedomAndProjectionVectorToAxis */
MIAP[1]\011/* MoveIndirectAbsPt */
CALL[ ]\011/* CallFunction */
SVTCA[0]\011/* SetFreedomAndProjectionVectorToAxis */
RTG[ ]\011/* RoundToGrid */
MIAP[1]\011/* MoveIndirectAbsPt */
CALL[ ]\011/* CallFunction */
SRP1[ ]\011/* SetRefPoint1 */
SRP2[ ]\011/* SetRefPoint2 */
SVTCA[0]\011/* SetFreedomAndProjectionVectorToAxis */
IP[ ]\011/* InterpolatePts */
RTG[ ]\011/* RoundToGrid */
MDAP[1]\011/* MoveDirectAbsPt */
CALL[ ]\011/* CallFunction */
SRP1[ ]\011/* SetRefPoint1 */
SRP2[ ]\011/* SetRefPoint2 */
SVTCA[0]\011/* SetFreedomAndProjectionVectorToAxis */
IP[ ]\011/* InterpolatePts */
SRP1[ ]\011/* SetRefPoint1 */
SRP2[ ]\011/* SetRefPoint2 */
SVTCA[1]\011/* SetFreedomAndProjectionVectorToAxis */
IP[ ]\011/* InterpolatePts */
IP[ ]\011/* InterpolatePts */
SRP1[ ]\011/* SetRefPoint1 */
SHP[1]\011/* ShiftPointByLastPoint */
SRP1[ ]\011/* SetRefPoint1 */
SLOOP[ ]\011/* SetLoopVariable */
SHP[1]\011/* ShiftPointByLastPoint */
SRP1[ ]\011/* SetRefPoint1 */
SHP[1]\011/* ShiftPointByLastPoint */
SRP2[ ]\011/* SetRefPoint2 */
IP[ ]\011/* InterpolatePts */
IUP[1]\011/* InterpolateUntPts */
IUP[0]\011/* InterpolateUntPts */";
};
width = 1229;
}
);
note = braceright;
unicode = 007D;
},
{
glyphname = asciitilde;
lastChange = "2019-12-17 17:05:58 +0000";
layers = (
{
layerId = "1812DDDA-A435-4DB7-9993-49CCF378232E";
paths = (
{
closed = 1;
nodes = (
"952 516 OFFCURVE",
"1069 552 OFFCURVE",
"1133 596 QCURVE",
"1133 815 LINE",
"1019 723 OFFCURVE",
"885 723 QCURVE SMOOTH",
"840 723 OFFCURVE",
"740 747 OFFCURVE",
"608 793 QCURVE SMOOTH",
"471 840 OFFCURVE",
"366 840 QCURVE SMOOTH",
"208 840 OFFCURVE",
"95 756 QCURVE",
"95 543 LINE",
"160 588 OFFCURVE",
"279 631 OFFCURVE",
"350 631 QCURVE SMOOTH",
"436 631 OFFCURVE",
"571 584 QCURVE SMOOTH",
"646 558 OFFCURVE",
"791 516 OFFCURVE",
"866 516 QCURVE SMOOTH"
);
}
);
userData = {
assembly = "NPUSHB[ ]\011/* 53 values pushed */
9 19 22 23 0 16 176 89 8 0 0 64 0 80 0 96 0 208 0 5 9 3 0 0 18 11 11 5 176 89 15 11 95 11 175 11 3 15 11 31 11 111 11 143 11 159 11 191 11 239 11 7 11 
SVTCA[0]\011/* SetFreedomAndProjectionVectorToAxis */
MDAP[1]\011/* MoveDirectAbsPt */
DELTAP1[ ]\011/* DeltaExceptionP1 */
DELTAP2[ ]\011/* DeltaExceptionP2 */
CALL[ ]\011/* CallFunction */
SRP1[ ]\011/* SetRefPoint1 */
SVTCA[0]\011/* SetFreedomAndProjectionVectorToAxis */
SHP[1]\011/* ShiftPointByLastPoint */
SHP[1]\011/* ShiftPointByLastPoint */
RTG[ ]\011/* RoundToGrid */
MDAP[1]\011/* MoveDirectAbsPt */
SDS[ ]\011/* SetDeltaShiftInGState */
SDB[ ]\011/* SetDeltaBaseInGState */
DELTAP1[ ]\011/* DeltaExceptionP1 */
SHP[1]\011/* ShiftPointByLastPoint */
CALL[ ]\011/* CallFunction */
SRP1[ ]\011/* SetRefPoint1 */
SRP2[ ]\011/* SetRefPoint2 */
SVTCA[1]\011/* SetFreedomAndProjectionVectorToAxis */
IP[ ]\011/* InterpolatePts */
IP[ ]\011/* InterpolatePts */
IUP[1]\011/* InterpolateUntPts */
IUP[0]\011/* InterpolateUntPts */";
};
width = 1229;
}
);
note = asciitilde;
unicode = 007E;
},
{
glyphname = dagger;
lastChange = "2019-12-17 17:05:58 +0000";
layers = (
{
layerId = "1812DDDA-A435-4DB7-9993-49CCF378232E";
paths = (
{
closed = 1;
nodes = (
"1056 933 LINE",
"1056 1137 LINE",
"713 1108 LINE",
"741 1484 LINE",
"486 1484 LINE",
"514 1108 LINE",
"172 1137 LINE",
"172 933 LINE",
"514 960 LINE",
"536 -213 LINE",
"691 -213 LINE",
"713 960 LINE"
);
}
);
userData = {
assembly = "NPUSHB[ ]\011/* 26 values pushed */
10 0 8 3 5 8 3 7 7 12 13 11 4 5 4 191 89 10 5 7 5 194 91 7 0 2 
PUSHW[ ]\011/* 1 value pushed */
290 
SVTCA[0]\011/* SetFreedomAndProjectionVectorToAxis */
MIAP[1]\011/* MoveIndirectAbsPt */
MIAP[1]\011/* MoveIndirectAbsPt */
CALL[ ]\011/* CallFunction */
SRP1[ ]\011/* SetRefPoint1 */
SVTCA[0]\011/* SetFreedomAndProjectionVectorToAxis */
SHP[1]\011/* ShiftPointByLastPoint */
CALL[ ]\011/* CallFunction */
SRP1[ ]\011/* SetRefPoint1 */
SVTCA[0]\011/* SetFreedomAndProjectionVectorToAxis */
SHP[1]\011/* ShiftPointByLastPoint */
SRP1[ ]\011/* SetRefPoint1 */
SRP2[ ]\011/* SetRefPoint2 */
SVTCA[1]\011/* SetFreedomAndProjectionVectorToAxis */
IP[ ]\011/* InterpolatePts */
SRP1[ ]\011/* SetRefPoint1 */
SLOOP[ ]\011/* SetLoopVariable */
SHP[1]\011/* ShiftPointByLastPoint */
SRP1[ ]\011/* SetRefPoint1 */
SHP[1]\011/* ShiftPointByLastPoint */
SHP[1]\011/* ShiftPointByLastPoint */
IUP[1]\011/* InterpolateUntPts */
IUP[0]\011/* InterpolateUntPts */";
};
width = 1229;
}
);
note = dagger;
unicode = 2020;
},
{
glyphname = degree;
lastChange = "2019-12-17 17:05:58 +0000";
layers = (
{
layerId = "1812DDDA-A435-4DB7-9993-49CCF378232E";
paths = (
{
closed = 1;
nodes = (
"935 1240 OFFCURVE",
"749 1425 OFFCURVE",
"614 1425 QCURVE SMOOTH",
"526 1425 OFFCURVE",
"379 1342 OFFCURVE",
"294 1196 OFFCURVE",
"294 1110 QCURVE SMOOTH",
"294 977 OFFCURVE",
"482 795 OFFCURVE",
"614 795 QCURVE SMOOTH",
"748 795 OFFCURVE",
"935 980 OFFCURVE",
"935 1110 QCURVE SMOOTH"
);
},
{
closed = 1;
nodes = (
"777 1040 OFFCURVE",
"681 942 OFFCURVE",
"614 942 QCURVE SMOOTH",
"546 942 OFFCURVE",
"448 1041 OFFCURVE",
"448 1110 QCURVE SMOOTH",
"448 1179 OFFCURVE",
"543 1276 OFFCURVE",
"614 1276 QCURVE SMOOTH",
"684 1276 OFFCURVE",
"777 1180 OFFCURVE",
"777 1110 QCURVE SMOOTH"
);
}
);
userData = {
assembly = "NPUSHB[ ]\011/* 10 values pushed */
13 0 0 19 6 6 25 26 3 22 
PUSHW[ ]\011/* 1 value pushed */
287 
NPUSHB[ ]\011/* 12 values pushed */
89 0 3 48 3 2 21 3 3 10 10 16 
PUSHW[ ]\011/* 1 value pushed */
287 
PUSHB[ ]\011/* 2 values pushed */
89 10 
SVTCA[0]\011/* SetFreedomAndProjectionVectorToAxis */
MDAP[1]\011/* MoveDirectAbsPt */
CALL[ ]\011/* CallFunction */
SVTCA[0]\011/* SetFreedomAndProjectionVectorToAxis */
RTG[ ]\011/* RoundToGrid */
SRP0[ ]\011/* SetRefPoint0 */
MDRP[00100]\011/* MoveDirectRelPt */
SDS[ ]\011/* SetDeltaShiftInGState */
SDB[ ]\011/* SetDeltaBaseInGState */
DELTAP1[ ]\011/* DeltaExceptionP1 */
CALL[ ]\011/* CallFunction */
SRP1[ ]\011/* SetRefPoint1 */
SRP2[ ]\011/* SetRefPoint2 */
SVTCA[1]\011/* SetFreedomAndProjectionVectorToAxis */
IP[ ]\011/* InterpolatePts */
SRP1[ ]\011/* SetRefPoint1 */
SHP[1]\011/* ShiftPointByLastPoint */
SHP[1]\011/* ShiftPointByLastPoint */
SRP1[ ]\011/* SetRefPoint1 */
SHP[1]\011/* ShiftPointByLastPoint */
IUP[1]\011/* InterpolateUntPts */
IUP[0]\011/* InterpolateUntPts */";
};
width = 1229;
}
);
note = degree;
unicode = 00B0;
},
{
glyphname = cent;
lastChange = "2019-12-17 17:05:58 +0000";
layers = (
{
layerId = "1812DDDA-A435-4DB7-9993-49CCF378232E";
paths = (
{
closed = 1;
nodes = (
"514 311 OFFCURVE",
"381 493 OFFCURVE",
"381 667 QCURVE SMOOTH",
"381 831 OFFCURVE",
"509 1015 OFFCURVE",
"633 1015 QCURVE SMOOTH",
"721 1015 OFFCURVE",
"833 916 OFFCURVE",
"848 825 QCURVE",
"1130 839 LINE",
"1102 990 OFFCURVE",
"884 1177 OFFCURVE",
"715 1196 QCURVE",
"715 1380 LINE",
"553 1380 LINE",
"553 1196 LINE",
"333 1171 OFFCURVE",
"98 889 OFFCURVE",
"98 657 QCURVE SMOOTH",
"98 422 OFFCURVE",
"338 150 OFFCURVE",
"553 129 QCURVE",
"553 -60 LINE",
"715 -60 LINE",
"715 131 LINE",
"893 152 OFFCURVE",
"1117 355 OFFCURVE",
"1139 508 QCURVE",
"856 520 LINE",
"842 420 OFFCURVE",
"723 311 OFFCURVE",
"635 311 QCURVE SMOOTH"
);
}
);
userData = {
assembly = "NPUSHB[ ]\011/* 65 values pushed */
19 8 8 16 9 23 22 22 3 9 4 29 13 4 13 32 33 112 23 1 15 23 1 0 3 64 3 80 3 160 3 176 3 5 9 3 23 3 23 3 16 7 16 26 118 89 19 0 16 1 16 3 16 16 17 7 10 7 7 0 118 89 7 7 8 
SVTCA[0]\011/* SetFreedomAndProjectionVectorToAxis */
MDAP[1]\011/* MoveDirectAbsPt */
SHP[1]\011/* ShiftPointByLastPoint */
MDAP[1]\011/* MoveDirectAbsPt */
CALL[ ]\011/* CallFunction */
SRP1[ ]\011/* SetRefPoint1 */
SVTCA[0]\011/* SetFreedomAndProjectionVectorToAxis */
SHP[1]\011/* ShiftPointByLastPoint */
RTG[ ]\011/* RoundToGrid */
MIAP[1]\011/* MoveIndirectAbsPt */
SHP[1]\011/* ShiftPointByLastPoint */
MDAP[1]\011/* MoveDirectAbsPt */
SDS[ ]\011/* SetDeltaShiftInGState */
SDB[ ]\011/* SetDeltaBaseInGState */
DELTAP1[ ]\011/* DeltaExceptionP1 */
SHP[1]\011/* ShiftPointByLastPoint */
CALL[ ]\011/* CallFunction */
SRP1[ ]\011/* SetRefPoint1 */
SRP2[ ]\011/* SetRefPoint2 */
SVTCA[0]\011/* SetFreedomAndProjectionVectorToAxis */
IP[ ]\011/* InterpolatePts */
IP[ ]\011/* InterpolatePts */
RTG[ ]\011/* RoundToGrid */
MDAP[1]\011/* MoveDirectAbsPt */
MDAP[1]\011/* MoveDirectAbsPt */
SDS[ ]\011/* SetDeltaShiftInGState */
SDB[ ]\011/* SetDeltaBaseInGState */
DELTAP1[ ]\011/* DeltaExceptionP1 */
DELTAP1[ ]\011/* DeltaExceptionP1 */
DELTAP1[ ]\011/* DeltaExceptionP1 */
SRP1[ ]\011/* SetRefPoint1 */
SRP2[ ]\011/* SetRefPoint2 */
SVTCA[1]\011/* SetFreedomAndProjectionVectorToAxis */
IP[ ]\011/* InterpolatePts */
IP[ ]\011/* InterpolatePts */
SRP1[ ]\011/* SetRefPoint1 */
SHP[1]\011/* ShiftPointByLastPoint */
SRP2[ ]\011/* SetRefPoint2 */
IP[ ]\011/* InterpolatePts */
SHP[0]\011/* ShiftPointByLastPoint */
SHP[0]\011/* ShiftPointByLastPoint */
SRP1[ ]\011/* SetRefPoint1 */
SHP[1]\011/* ShiftPointByLastPoint */
SRP1[ ]\011/* SetRefPoint1 */
SHP[1]\011/* ShiftPointByLastPoint */
SHP[1]\011/* ShiftPointByLastPoint */
SRP1[ ]\011/* SetRefPoint1 */
SHP[1]\011/* ShiftPointByLastPoint */
IUP[1]\011/* InterpolateUntPts */
IUP[0]\011/* InterpolateUntPts */";
};
width = 1229;
}
);
note = cent;
unicode = 00A2;
},
{
glyphname = sterling;
lastChange = "2019-12-17 17:05:58 +0000";
layers = (
{
layerId = "1812DDDA-A435-4DB7-9993-49CCF378232E";
paths = (
{
closed = 1;
nodes = (
"947 402 LINE",
"930 308 OFFCURVE",
"823 209 OFFCURVE",
"719 209 QCURVE SMOOTH",
"329 209 LINE",
"429 265 OFFCURVE",
"511 411 OFFCURVE",
"511 514 QCURVE SMOOTH",
"511 594 LINE",
"797 594 LINE",
"797 764 LINE",
"511 764 LINE",
"511 939 LINE SMOOTH",
"511 1064 OFFCURVE",
"591 1179 OFFCURVE",
"682 1179 QCURVE SMOOTH",
"748 1179 OFFCURVE",
"830 1109 OFFCURVE",
"851 1032 QCURVE",
"1084 1079 LINE",
"1040 1232 OFFCURVE",
"846 1370 OFFCURVE",
"677 1370 QCURVE SMOOTH",
"465 1370 OFFCURVE",
"251 1163 OFFCURVE",
"251 962 QCURVE SMOOTH",
"251 764 LINE",
"73 764 LINE",
"73 594 LINE",
"261 594 LINE",
"261 512 LINE SMOOTH",
"261 407 OFFCURVE",
"186 263 OFFCURVE",
"84 205 QCURVE",
"84 0 LINE",
"788 0 LINE SMOOTH",
"939 0 OFFCURVE",
"1149 191 OFFCURVE",
"1180 363 QCURVE"
);
}
);
userData = {
assembly = "NPUSHB[ ]\011/* 32 values pushed */
28 19 27 31 31 12 8 38 0 0 20 19 8 19 39 40 0 38 16 38 48 38 64 38 80 38 128 38 6 16 3 38 
PUSHW[ ]\011/* 1 value pushed */
-64 
NPUSHB[ ]\011/* 10 values pushed */
9 14 72 38 38 34 30 10 11 10 
PUSHW[ ]\011/* 1 value pushed */
282 
NPUSHB[ ]\011/* 41 values pushed */
89 27 63 11 1 112 20 128 20 192 20 3 15 20 31 20 47 20 3 9 3 11 20 11 20 4 16 16 23 118 89 16 7 5 34 4 34 115 89 4 24 
SVTCA[0]\011/* SetFreedomAndProjectionVectorToAxis */
MIAP[1]\011/* MoveIndirectAbsPt */
CALL[ ]\011/* CallFunction */
SRP1[ ]\011/* SetRefPoint1 */
SVTCA[0]\011/* SetFreedomAndProjectionVectorToAxis */
SHP[1]\011/* ShiftPointByLastPoint */
RTG[ ]\011/* RoundToGrid */
MIAP[1]\011/* MoveIndirectAbsPt */
CALL[ ]\011/* CallFunction */
SRP1[ ]\011/* SetRefPoint1 */
SRP2[ ]\011/* SetRefPoint2 */
SVTCA[0]\011/* SetFreedomAndProjectionVectorToAxis */
IP[ ]\011/* InterpolatePts */
IP[ ]\011/* InterpolatePts */
RTG[ ]\011/* RoundToGrid */
MDAP[1]\011/* MoveDirectAbsPt */
MDAP[1]\011/* MoveDirectAbsPt */
SDS[ ]\011/* SetDeltaShiftInGState */
SDB[ ]\011/* SetDeltaBaseInGState */
DELTAP1[ ]\011/* DeltaExceptionP1 */
DELTAP1[ ]\011/* DeltaExceptionP1 */
DELTAP1[ ]\011/* DeltaExceptionP1 */
SHP[1]\011/* ShiftPointByLastPoint */
CALL[ ]\011/* CallFunction */
SRP1[ ]\011/* SetRefPoint1 */
SVTCA[0]\011/* SetFreedomAndProjectionVectorToAxis */
SHP[1]\011/* ShiftPointByLastPoint */
SRP2[ ]\011/* SetRefPoint2 */
IP[ ]\011/* InterpolatePts */
RTG[ ]\011/* RoundToGrid */
MDAP[1]\011/* MoveDirectAbsPt */
CALL[ ]\011/* CallFunction */
SDS[ ]\011/* SetDeltaShiftInGState */
SDB[ ]\011/* SetDeltaBaseInGState */
DELTAP1[ ]\011/* DeltaExceptionP1 */
SRP1[ ]\011/* SetRefPoint1 */
SRP2[ ]\011/* SetRefPoint2 */
SVTCA[1]\011/* SetFreedomAndProjectionVectorToAxis */
IP[ ]\011/* InterpolatePts */
IP[ ]\011/* InterpolatePts */
SRP1[ ]\011/* SetRefPoint1 */
SHP[1]\011/* ShiftPointByLastPoint */
SHP[1]\011/* ShiftPointByLastPoint */
SRP1[ ]\011/* SetRefPoint1 */
SHP[1]\011/* ShiftPointByLastPoint */
SRP1[ ]\011/* SetRefPoint1 */
SHP[1]\011/* ShiftPointByLastPoint */
SHP[1]\011/* ShiftPointByLastPoint */
SRP1[ ]\011/* SetRefPoint1 */
SHP[1]\011/* ShiftPointByLastPoint */
SRP2[ ]\011/* SetRefPoint2 */
IP[ ]\011/* InterpolatePts */
IUP[1]\011/* InterpolateUntPts */
IUP[0]\011/* InterpolateUntPts */";
};
width = 1229;
}
);
note = sterling;
unicode = 00A3;
},
{
glyphname = section;
lastChange = "2019-12-17 17:05:58 +0000";
layers = (
{
layerId = "1812DDDA-A435-4DB7-9993-49CCF378232E";
paths = (
{
closed = 1;
nodes = (
"405 1485 OFFCURVE",
"170 1321 OFFCURVE",
"170 1172 QCURVE SMOOTH",
"170 1088 OFFCURVE",
"268 952 OFFCURVE",
"358 914 QCURVE",
"255 879 OFFCURVE",
"145 751 OFFCURVE",
"145 658 QCURVE SMOOTH",
"145 546 OFFCURVE",
"316 390 OFFCURVE",
"522 341 QCURVE SMOOTH",
"707 297 OFFCURVE",
"810 252 OFFCURVE",
"858 192 OFFCURVE",
"858 144 QCURVE SMOOTH",
"858 64 OFFCURVE",
"732 -1 OFFCURVE",
"610 -1 QCURVE SMOOTH",
"487 -1 OFFCURVE",
"364 74 OFFCURVE",
"344 154 QCURVE",
"107 117 LINE",
"146 -32 OFFCURVE",
"387 -171 OFFCURVE",
"610 -171 QCURVE SMOOTH",
"843 -171 OFFCURVE",
"1094 6 OFFCURVE",
"1094 173 QCURVE SMOOTH",
"1094 350 OFFCURVE",
"913 429 QCURVE",
"1000 456 OFFCURVE",
"1110 599 OFFCURVE",
"1110 692 QCURVE SMOOTH",
"1110 779 OFFCURVE",
"1025 901 OFFCURVE",
"864 983 OFFCURVE",
"696 1021 QCURVE SMOOTH",
"565 1050 OFFCURVE",
"466 1093 OFFCURVE",
"412 1150 OFFCURVE",
"412 1191 QCURVE SMOOTH",
"412 1256 OFFCURVE",
"517 1315 OFFCURVE",
"629 1315 QCURVE SMOOTH",
"719 1315 OFFCURVE",
"833 1248 OFFCURVE",
"846 1186 QCURVE",
"1085 1211 LINE",
"1058 1344 OFFCURVE",
"823 1485 OFFCURVE",
"629 1485 QCURVE SMOOTH"
);
},
{
closed = 1;
nodes = (
"872 526 OFFCURVE",
"677 516 QCURVE",
"541 547 OFFCURVE",
"441 589 OFFCURVE",
"387 644 OFFCURVE",
"387 685 QCURVE SMOOTH",
"387 815 OFFCURVE",
"580 838 QCURVE",
"753 805 OFFCURVE",
"872 729 OFFCURVE",
"872 658 QCURVE SMOOTH"
);
}
);
userData = {
assembly = "NPUSHB[ ]\011/* 76 values pushed */
21 61 23 43 46 55 18 49 30 29 4 3 36 23 10 49 49 29 23 3 4 43 52 18 57 43 43 18 63 64 61 40 21 55 14 46 21 46 33 0 26 33 81 89 0 30 16 30 192 30 208 30 224 30 5 10 3 30 30 26 0 7 81 89 116 4 132 4 2 47 4 1 4 4 0 0 
SVTCA[0]\011/* SetFreedomAndProjectionVectorToAxis */
MIAP[1]\011/* MoveIndirectAbsPt */
SHP[0]\011/* ShiftPointByLastPoint */
MDAP[1]\011/* MoveDirectAbsPt */
DELTAP1[ ]\011/* DeltaExceptionP1 */
DELTAP1[ ]\011/* DeltaExceptionP1 */
CALL[ ]\011/* CallFunction */
SVTCA[0]\011/* SetFreedomAndProjectionVectorToAxis */
RTG[ ]\011/* RoundToGrid */
MDAP[1]\011/* MoveDirectAbsPt */
SHP[1]\011/* ShiftPointByLastPoint */
MDAP[1]\011/* MoveDirectAbsPt */
SDS[ ]\011/* SetDeltaShiftInGState */
SDB[ ]\011/* SetDeltaBaseInGState */
DELTAP1[ ]\011/* DeltaExceptionP1 */
CALL[ ]\011/* CallFunction */
SRP1[ ]\011/* SetRefPoint1 */
SRP2[ ]\011/* SetRefPoint2 */
SVTCA[0]\011/* SetFreedomAndProjectionVectorToAxis */
IP[ ]\011/* InterpolatePts */
IP[ ]\011/* InterpolatePts */
SRP1[ ]\011/* SetRefPoint1 */
SHP[1]\011/* ShiftPointByLastPoint */
SHP[1]\011/* ShiftPointByLastPoint */
SRP1[ ]\011/* SetRefPoint1 */
SHP[1]\011/* ShiftPointByLastPoint */
SHP[1]\011/* ShiftPointByLastPoint */
SRP1[ ]\011/* SetRefPoint1 */
SRP2[ ]\011/* SetRefPoint2 */
SVTCA[1]\011/* SetFreedomAndProjectionVectorToAxis */
IP[ ]\011/* InterpolatePts */
IP[ ]\011/* InterpolatePts */
SRP1[ ]\011/* SetRefPoint1 */
SHP[1]\011/* ShiftPointByLastPoint */
SRP1[ ]\011/* SetRefPoint1 */
SHP[1]\011/* ShiftPointByLastPoint */
SRP2[ ]\011/* SetRefPoint2 */
SLOOP[ ]\011/* SetLoopVariable */
IP[ ]\011/* InterpolatePts */
SRP1[ ]\011/* SetRefPoint1 */
SHP[1]\011/* ShiftPointByLastPoint */
SRP1[ ]\011/* SetRefPoint1 */
SHP[1]\011/* ShiftPointByLastPoint */
SRP1[ ]\011/* SetRefPoint1 */
SHP[1]\011/* ShiftPointByLastPoint */
SRP1[ ]\011/* SetRefPoint1 */
SHP[1]\011/* ShiftPointByLastPoint */
SRP1[ ]\011/* SetRefPoint1 */
SRP2[ ]\011/* SetRefPoint2 */
IP[ ]\011/* InterpolatePts */
IP[ ]\011/* InterpolatePts */
SRP1[ ]\011/* SetRefPoint1 */
SRP2[ ]\011/* SetRefPoint2 */
IP[ ]\011/* InterpolatePts */
IP[ ]\011/* InterpolatePts */
IUP[1]\011/* InterpolateUntPts */
IUP[0]\011/* InterpolateUntPts */";
};
width = 1229;
}
);
note = section;
unicode = 00A7;
},
{
glyphname = bullet;
lastChange = "2019-12-17 17:05:58 +0000";
layers = (
{
layerId = "1812DDDA-A435-4DB7-9993-49CCF378232E";
paths = (
{
closed = 1;
nodes = (
"907 803 OFFCURVE",
"734 974 OFFCURVE",
"612 974 QCURVE SMOOTH",
"492 974 OFFCURVE",
"321 803 OFFCURVE",
"321 681 QCURVE SMOOTH",
"321 559 OFFCURVE",
"493 386 OFFCURVE",
"612 386 QCURVE SMOOTH",
"733 386 OFFCURVE",
"907 560 OFFCURVE",
"907 681 QCURVE SMOOTH"
);
}
);
userData = {
assembly = "PUSHB[ ]\011/* 6 values pushed */
0 6 6 12 13 3 
PUSHW[ ]\011/* 1 value pushed */
-64 
NPUSHB[ ]\011/* 11 values pushed */
9 12 72 3 80 9 1 15 9 1 9 
SVTCA[0]\011/* SetFreedomAndProjectionVectorToAxis */
MDAP[1]\011/* MoveDirectAbsPt */
DELTAP1[ ]\011/* DeltaExceptionP1 */
DELTAP1[ ]\011/* DeltaExceptionP1 */
MDRP[01101]\011/* MoveDirectRelPt */
CALL[ ]\011/* CallFunction */
SRP1[ ]\011/* SetRefPoint1 */
SRP2[ ]\011/* SetRefPoint2 */
SVTCA[1]\011/* SetFreedomAndProjectionVectorToAxis */
IP[ ]\011/* InterpolatePts */
SRP1[ ]\011/* SetRefPoint1 */
SHP[1]\011/* ShiftPointByLastPoint */
IUP[1]\011/* InterpolateUntPts */
IUP[0]\011/* InterpolateUntPts */";
};
width = 1229;
}
);
note = bullet;
unicode = 2022;
},
{
glyphname = paragraph;
lastChange = "2019-12-17 17:05:58 +0000";
layers = (
{
layerId = "1812DDDA-A435-4DB7-9993-49CCF378232E";
paths = (
{
closed = 1;
nodes = (
"1115 1206 LINE",
"1115 1349 LINE",
"486 1349 LINE SMOOTH",
"312 1349 OFFCURVE",
"115 1158 OFFCURVE",
"115 989 QCURVE SMOOTH",
"115 819 OFFCURVE",
"309 634 OFFCURVE",
"478 634 QCURVE",
"478 -324 LINE",
"633 -324 LINE",
"633 1206 LINE",
"828 1206 LINE",
"828 -324 LINE",
"984 -324 LINE",
"984 1206 LINE"
);
}
);
userData = {
assembly = "NPUSHB[ ]\011/* 22 values pushed */
5 6 6 10 2 2 1 10 1 16 17 0 4 4 16 7 1 7 13 3 6 1 
SVTCA[0]\011/* SetFreedomAndProjectionVectorToAxis */
MDAP[1]\011/* MoveDirectAbsPt */
SHP[1]\011/* ShiftPointByLastPoint */
MIAP[1]\011/* MoveIndirectAbsPt */
MDRP[01101]\011/* MoveDirectRelPt */
DELTAP1[ ]\011/* DeltaExceptionP1 */
SHP[1]\011/* ShiftPointByLastPoint */
SRP1[ ]\011/* SetRefPoint1 */
SHP[1]\011/* ShiftPointByLastPoint */
SRP1[ ]\011/* SetRefPoint1 */
SRP2[ ]\011/* SetRefPoint2 */
SVTCA[1]\011/* SetFreedomAndProjectionVectorToAxis */
IP[ ]\011/* InterpolatePts */
IP[ ]\011/* InterpolatePts */
SRP1[ ]\011/* SetRefPoint1 */
SHP[1]\011/* ShiftPointByLastPoint */
SRP1[ ]\011/* SetRefPoint1 */
SRP2[ ]\011/* SetRefPoint2 */
IP[ ]\011/* InterpolatePts */
SRP1[ ]\011/* SetRefPoint1 */
SHP[1]\011/* ShiftPointByLastPoint */
IUP[1]\011/* InterpolateUntPts */
IUP[0]\011/* InterpolateUntPts */";
};
width = 1229;
}
);
note = paragraph;
unicode = 00B6;
},
{
glyphname = germandbls;
lastChange = "2019-12-17 17:05:58 +0000";
layers = (
{
layerId = "1812DDDA-A435-4DB7-9993-49CCF378232E";
paths = (
{
closed = 1;
nodes = (
"1178 493 OFFCURVE",
"1010 618 QCURVE SMOOTH",
"883 712 OFFCURVE",
"842 757 OFFCURVE",
"842 782 QCURVE SMOOTH",
"842 802 OFFCURVE",
"875 843 OFFCURVE",
"925 888 OFFCURVE",
"984 942 OFFCURVE",
"1034 1010 OFFCURVE",
"1067 1095 OFFCURVE",
"1067 1149 QCURVE SMOOTH",
"1067 1304 OFFCURVE",
"829 1484 OFFCURVE",
"623 1484 QCURVE SMOOTH",
"383 1484 OFFCURVE",
"128 1241 OFFCURVE",
"128 1007 QCURVE SMOOTH",
"128 0 LINE",
"409 0 LINE",
"409 1013 LINE SMOOTH",
"409 1154 OFFCURVE",
"517 1281 OFFCURVE",
"620 1281 QCURVE SMOOTH",
"708 1281 OFFCURVE",
"801 1203 OFFCURVE",
"801 1138 QCURVE SMOOTH",
"801 1093 OFFCURVE",
"751 1012 OFFCURVE",
"690 958 QCURVE SMOOTH",
"633 908 OFFCURVE",
"578 814 OFFCURVE",
"578 760 QCURVE SMOOTH",
"578 607 OFFCURVE",
"747 498 QCURVE SMOOTH",
"840 437 OFFCURVE",
"916 348 OFFCURVE",
"916 296 QCURVE SMOOTH",
"916 239 OFFCURVE",
"842 170 OFFCURVE",
"761 170 QCURVE SMOOTH",
"714 170 OFFCURVE",
"579 206 OFFCURVE",
"529 229 QCURVE",
"529 23 LINE",
"645 -20 OFFCURVE",
"791 -20 QCURVE SMOOTH",
"977 -20 OFFCURVE",
"1178 150 OFFCURVE",
"1178 312 QCURVE SMOOTH"
);
}
);
userData = {
assembly = "NPUSHB[ ]\011/* 37 values pushed */
5 30 45 17 23 38 17 38 31 12 0 30 31 0 31 50 51 12 45 23 3 35 3 35 26 83 89 35 0 31 21 3 9 80 89 3 22 
SVTCA[0]\011/* SetFreedomAndProjectionVectorToAxis */
MIAP[1]\011/* MoveIndirectAbsPt */
CALL[ ]\011/* CallFunction */
SVTCA[0]\011/* SetFreedomAndProjectionVectorToAxis */
RTG[ ]\011/* RoundToGrid */
MIAP[1]\011/* MoveIndirectAbsPt */
MIAP[1]\011/* MoveIndirectAbsPt */
CALL[ ]\011/* CallFunction */
SRP1[ ]\011/* SetRefPoint1 */
SRP2[ ]\011/* SetRefPoint2 */
SVTCA[0]\011/* SetFreedomAndProjectionVectorToAxis */
SLOOP[ ]\011/* SetLoopVariable */
IP[ ]\011/* InterpolatePts */
SRP1[ ]\011/* SetRefPoint1 */
SRP2[ ]\011/* SetRefPoint2 */
SVTCA[1]\011/* SetFreedomAndProjectionVectorToAxis */
IP[ ]\011/* InterpolatePts */
IP[ ]\011/* InterpolatePts */
SRP1[ ]\011/* SetRefPoint1 */
SHP[1]\011/* ShiftPointByLastPoint */
SRP1[ ]\011/* SetRefPoint1 */
SHP[1]\011/* ShiftPointByLastPoint */
SRP2[ ]\011/* SetRefPoint2 */
IP[ ]\011/* InterpolatePts */
IP[ ]\011/* InterpolatePts */
SRP1[ ]\011/* SetRefPoint1 */
SHP[1]\011/* ShiftPointByLastPoint */
SRP1[ ]\011/* SetRefPoint1 */
SHP[1]\011/* ShiftPointByLastPoint */
SRP2[ ]\011/* SetRefPoint2 */
IP[ ]\011/* InterpolatePts */
IUP[1]\011/* InterpolateUntPts */
IUP[0]\011/* InterpolateUntPts */";
};
width = 1229;
}
);
note = germandbls;
unicode = 00DF;
},
{
glyphname = registered;
lastChange = "2019-12-17 17:05:58 +0000";
layers = (
{
layerId = "1812DDDA-A435-4DB7-9993-49CCF378232E";
paths = (
{
closed = 1;
nodes = (
"1197 989 OFFCURVE",
"1055 1314 OFFCURVE",
"790 1484 OFFCURVE",
"614 1484 QCURVE SMOOTH",
"438 1484 OFFCURVE",
"173 1313 OFFCURVE",
"31 987 OFFCURVE",
"31 761 QCURVE SMOOTH",
"31 535 OFFCURVE",
"174 209 OFFCURVE",
"437 38 OFFCURVE",
"614 38 QCURVE SMOOTH",
"791 38 OFFCURVE",
"1055 207 OFFCURVE",
"1197 534 OFFCURVE",
"1197 761 QCURVE SMOOTH"
);
},
{
closed = 1;
nodes = (
"964 343 LINE",
"746 686 LINE",
"831 705 OFFCURVE",
"932 835 OFFCURVE",
"932 937 QCURVE SMOOTH",
"932 1048 OFFCURVE",
"781 1174 OFFCURVE",
"639 1174 QCURVE SMOOTH",
"332 1174 LINE",
"332 343 LINE",
"483 343 LINE",
"483 672 LINE",
"599 672 LINE",
"789 343 LINE"
);
},
{
closed = 1;
nodes = (
"781 860 OFFCURVE",
"697 782 OFFCURVE",
"617 782 QCURVE SMOOTH",
"483 782 LINE",
"483 1062 LINE",
"605 1062 LINE SMOOTH",
"781 1062 OFFCURVE",
"781 935 QCURVE SMOOTH"
);
},
{
closed = 1;
nodes = (
"1071 470 OFFCURVE",
"831 153 OFFCURVE",
"614 153 QCURVE SMOOTH",
"400 153 OFFCURVE",
"160 470 OFFCURVE",
"160 761 QCURVE SMOOTH",
"160 1049 OFFCURVE",
"399 1368 OFFCURVE",
"614 1368 QCURVE SMOOTH",
"832 1368 OFFCURVE",
"1071 1049 OFFCURVE",
"1071 761 QCURVE SMOOTH"
);
}
);
userData = {
assembly = "NPUSHB[ ]\011/* 81 values pushed */
28 17 17 19 25 16 29 29 30 25 34 19 19 20 25 20 0 44 8 38 0 8 0 50 51 16 20 28 18 34 18 200 89 21 33 200 89 15 20 31 20 79 20 95 20 111 20 5 79 34 95 34 2 0 21 16 21 2 9 3 20 34 21 21 34 20 3 4 12 12 41 200 89 12 0 4 47 200 89 4 209 
SVTCA[0]\011/* SetFreedomAndProjectionVectorToAxis */
MIAP[1]\011/* MoveIndirectAbsPt */
CALL[ ]\011/* CallFunction */
SVTCA[0]\011/* SetFreedomAndProjectionVectorToAxis */
RTG[ ]\011/* RoundToGrid */
MIAP[1]\011/* MoveIndirectAbsPt */
CALL[ ]\011/* CallFunction */
SRP1[ ]\011/* SetRefPoint1 */
SRP2[ ]\011/* SetRefPoint2 */
SVTCA[0]\011/* SetFreedomAndProjectionVectorToAxis */
SLOOP[ ]\011/* SetLoopVariable */
IP[ ]\011/* InterpolatePts */
RTG[ ]\011/* RoundToGrid */
MDAP[1]\011/* MoveDirectAbsPt */
MDAP[1]\011/* MoveDirectAbsPt */
MDAP[1]\011/* MoveDirectAbsPt */
SDS[ ]\011/* SetDeltaShiftInGState */
SDB[ ]\011/* SetDeltaBaseInGState */
DELTAP1[ ]\011/* DeltaExceptionP1 */
DELTAP1[ ]\011/* DeltaExceptionP1 */
DELTAP1[ ]\011/* DeltaExceptionP1 */
CALL[ ]\011/* CallFunction */
CALL[ ]\011/* CallFunction */
SRP1[ ]\011/* SetRefPoint1 */
SVTCA[0]\011/* SetFreedomAndProjectionVectorToAxis */
SHP[1]\011/* ShiftPointByLastPoint */
SRP1[ ]\011/* SetRefPoint1 */
SHP[1]\011/* ShiftPointByLastPoint */
SRP1[ ]\011/* SetRefPoint1 */
SRP2[ ]\011/* SetRefPoint2 */
SVTCA[1]\011/* SetFreedomAndProjectionVectorToAxis */
IP[ ]\011/* InterpolatePts */
IP[ ]\011/* InterpolatePts */
SRP1[ ]\011/* SetRefPoint1 */
SHP[1]\011/* ShiftPointByLastPoint */
SRP1[ ]\011/* SetRefPoint1 */
SHP[1]\011/* ShiftPointByLastPoint */
SRP2[ ]\011/* SetRefPoint2 */
IP[ ]\011/* InterpolatePts */
IP[ ]\011/* InterpolatePts */
SRP1[ ]\011/* SetRefPoint1 */
SHP[1]\011/* ShiftPointByLastPoint */
SRP1[ ]\011/* SetRefPoint1 */
SHP[1]\011/* ShiftPointByLastPoint */
SRP1[ ]\011/* SetRefPoint1 */
SHP[1]\011/* ShiftPointByLastPoint */
SHP[1]\011/* ShiftPointByLastPoint */
SRP1[ ]\011/* SetRefPoint1 */
SHP[1]\011/* ShiftPointByLastPoint */
SRP1[ ]\011/* SetRefPoint1 */
SRP2[ ]\011/* SetRefPoint2 */
IP[ ]\011/* InterpolatePts */
SRP1[ ]\011/* SetRefPoint1 */
SHP[1]\011/* ShiftPointByLastPoint */
IUP[1]\011/* InterpolateUntPts */
IUP[0]\011/* InterpolateUntPts */";
};
width = 1229;
}
);
note = registered;
unicode = 00AE;
},
{
glyphname = copyright;
lastChange = "2019-12-17 17:05:58 +0000";
layers = (
{
layerId = "1812DDDA-A435-4DB7-9993-49CCF378232E";
paths = (
{
closed = 1;
nodes = (
"736 333 OFFCURVE",
"891 456 OFFCURVE",
"928 569 QCURVE",
"799 611 LINE",
"741 457 OFFCURVE",
"628 457 QCURVE SMOOTH",
"535 457 OFFCURVE",
"428 621 OFFCURVE",
"428 763 QCURVE SMOOTH",
"428 909 OFFCURVE",
"528 1062 OFFCURVE",
"623 1062 QCURVE SMOOTH",
"737 1062 OFFCURVE",
"786 935 QCURVE",
"924 978 LINE",
"838 1187 OFFCURVE",
"621 1187 QCURVE SMOOTH",
"453 1187 OFFCURVE",
"275 965 OFFCURVE",
"275 763 QCURVE SMOOTH",
"275 560 OFFCURVE",
"460 333 OFFCURVE",
"628 333 QCURVE SMOOTH"
);
},
{
closed = 1;
nodes = (
"1197 989 OFFCURVE",
"1055 1314 OFFCURVE",
"790 1484 OFFCURVE",
"614 1484 QCURVE SMOOTH",
"438 1484 OFFCURVE",
"173 1313 OFFCURVE",
"31 987 OFFCURVE",
"31 761 QCURVE SMOOTH",
"31 535 OFFCURVE",
"174 209 OFFCURVE",
"437 38 OFFCURVE",
"614 38 QCURVE SMOOTH",
"791 38 OFFCURVE",
"1055 207 OFFCURVE",
"1197 534 OFFCURVE",
"1197 761 QCURVE SMOOTH"
);
},
{
closed = 1;
nodes = (
"1071 470 OFFCURVE",
"831 153 OFFCURVE",
"614 153 QCURVE SMOOTH",
"400 153 OFFCURVE",
"160 470 OFFCURVE",
"160 761 QCURVE SMOOTH",
"160 1049 OFFCURVE",
"399 1368 OFFCURVE",
"614 1368 QCURVE SMOOTH",
"832 1368 OFFCURVE",
"1071 1049 OFFCURVE",
"1071 761 QCURVE SMOOTH"
);
}
);
userData = {
assembly = "NPUSHB[ ]\011/* 77 values pushed */
9 8 19 8 20 14 3 20 3 23 45 31 39 23 31 23 52 51 19 0 0 17 201 89 6 11 201 89 9 6 15 0 31 0 239 0 255 0 4 0 64 13 17 72 0 6 16 6 112 6 128 6 224 6 240 6 6 9 3 0 6 0 6 27 35 35 42 200 89 35 0 27 48 200 89 27 209 
SVTCA[0]\011/* SetFreedomAndProjectionVectorToAxis */
MIAP[1]\011/* MoveIndirectAbsPt */
CALL[ ]\011/* CallFunction */
SVTCA[0]\011/* SetFreedomAndProjectionVectorToAxis */
RTG[ ]\011/* RoundToGrid */
MIAP[1]\011/* MoveIndirectAbsPt */
CALL[ ]\011/* CallFunction */
SRP1[ ]\011/* SetRefPoint1 */
SRP2[ ]\011/* SetRefPoint2 */
SVTCA[0]\011/* SetFreedomAndProjectionVectorToAxis */
IP[ ]\011/* InterpolatePts */
IP[ ]\011/* InterpolatePts */
RTG[ ]\011/* RoundToGrid */
MDAP[1]\011/* MoveDirectAbsPt */
MDAP[1]\011/* MoveDirectAbsPt */
SDS[ ]\011/* SetDeltaShiftInGState */
SDB[ ]\011/* SetDeltaBaseInGState */
DELTAP1[ ]\011/* DeltaExceptionP1 */
CALL[ ]\011/* CallFunction */
DELTAP1[ ]\011/* DeltaExceptionP1 */
SRP1[ ]\011/* SetRefPoint1 */
SHP[1]\011/* ShiftPointByLastPoint */
CALL[ ]\011/* CallFunction */
CALL[ ]\011/* CallFunction */
SRP1[ ]\011/* SetRefPoint1 */
SVTCA[0]\011/* SetFreedomAndProjectionVectorToAxis */
SHP[1]\011/* ShiftPointByLastPoint */
SRP1[ ]\011/* SetRefPoint1 */
SRP2[ ]\011/* SetRefPoint2 */
SVTCA[1]\011/* SetFreedomAndProjectionVectorToAxis */
IP[ ]\011/* InterpolatePts */
IP[ ]\011/* InterpolatePts */
SRP1[ ]\011/* SetRefPoint1 */
SHP[1]\011/* ShiftPointByLastPoint */
SRP1[ ]\011/* SetRefPoint1 */
SHP[1]\011/* ShiftPointByLastPoint */
SRP2[ ]\011/* SetRefPoint2 */
IP[ ]\011/* InterpolatePts */
IP[ ]\011/* InterpolatePts */
SRP1[ ]\011/* SetRefPoint1 */
SHP[1]\011/* ShiftPointByLastPoint */
SRP1[ ]\011/* SetRefPoint1 */
SHP[1]\011/* ShiftPointByLastPoint */
SHP[1]\011/* ShiftPointByLastPoint */
SRP1[ ]\011/* SetRefPoint1 */
SHP[1]\011/* ShiftPointByLastPoint */
IUP[1]\011/* InterpolateUntPts */
IUP[0]\011/* InterpolateUntPts */";
};
width = 1229;
}
);
note = copyright;
unicode = 00A9;
},
